<?xml version="1.0" encoding="utf-8"?>
<!-- Generator: Adobe Illustrator 27.5.0, SVG Export Plug-In . SVG Version: 6.00 Build 0)  -->
<svg version="1.1" xmlns="http://www.w3.org/2000/svg" xmlns:xlink="http://www.w3.org/1999/xlink" x="0px" y="0px"
	 viewBox="0 0 3710 3710" style="enable-background:new 0 0 3710 3710;" xml:space="preserve">
<g id="Background">
	<g>
		<g>
			<rect style="fill:#FFFFFF;" width="3710" height="3710"/>
		</g>
	</g>
</g>
<g id="Illustration">
	<g>
		<path style="fill:#F4F7FA;" d="M1597.67,3243.39C874.863,3133.926,287.458,2450.528,394.177,1690.946
			c91.043-647.802,658.992-1151.932,1340.073-1199.538c49.317-3.456,99.203-4.525,149.551-3.064
			c379.951,10.975,717.535,162.949,967.212,392.921c248.503,228.868,409.953,534.989,439.35,856.146
			C3368.647,2591.882,2496.682,3379.542,1597.67,3243.39z"/>
		<g>
			
				<linearGradient id="SVGID_1_" gradientUnits="userSpaceOnUse" x1="-2127.2554" y1="894.4876" x2="-1337.1171" y2="2970.6436" gradientTransform="matrix(-0.9755 0.2199 0.2199 0.9755 127.9268 129.15)">
				<stop  offset="0" style="stop-color:#AA80F9"/>
				<stop  offset="0.9964" style="stop-color:#6165D7"/>
			</linearGradient>
			<path style="fill:url(#SVGID_1_);" d="M2443.642,2139.224c58.569,61.936,46.531,143.722,28.549,201.54
				c-7.873,2.259-11.827,5.566-19.238,9.594c-66.899,36.349-103.185,37.602-174.781,63.019c-15.411,5.471-65.528,7.772-86.065,7.398
				l-38.278-1.309c0,0-116.327-157.992-34.259-233.7s-9.377-239.776-47.111-332.664c-23.17-57.04-15.495-90.549-20.645-112.875
				c-54.509-236.332-144.744-284.59-115.26-372.329c32.548-96.858,151.829-65.772,192.803-169.267
				c46.266-116.867-74.768-234.967-6.272-335.776c11.743-17.283,24.279-34.722,47.738-49.776
				c57.903-37.158,120.204-15.35,150.111-80.729c60.113-131.414,199.059-211.518,322.591-128.336
				c121.918,82.097,80.413,325.328-134.161,571.706c-132.62,192.613-122.087,236.17-75.761,336.436
				c32.446,70.231,166.944,239.149,83.26,345.182C2433.18,1963.371,2376.685,2068.42,2443.642,2139.224z"/>
			<g>
				<defs>
					<path id="SVGID_00000181791139604743026310000000841902946849684127_" d="M2443.86,2412.889l-282.184,11.302
						c0,0-124.175-162.717-42.106-238.426c82.069-75.709-9.377-239.776-47.11-332.664
						c-102.38-252.03,207.184-313.437,103.701-647.467c-27.523-88.842-112.189-249.263-53.074-342.78
						c67.348-106.543,159.387-46.426,197.848-130.506c60.113-131.414,199.06-211.518,322.591-128.336
						c121.919,82.097,80.413,325.328-134.158,571.706c-132.621,192.614-122.087,236.17-75.763,336.436
						c32.448,70.231,166.943,239.15,83.26,345.183c-83.684,106.033-140.178,211.081-73.223,281.886
						C2545.522,2246.962,2443.86,2412.889,2443.86,2412.889z"/>
				</defs>
				<clipPath id="SVGID_00000088849279600608670540000005964407779177626016_">
					<use xlink:href="#SVGID_00000181791139604743026310000000841902946849684127_"  style="overflow:visible;"/>
				</clipPath>
				<g style="opacity:0.5;clip-path:url(#SVGID_00000088849279600608670540000005964407779177626016_);">
					<path style="fill:#FCFDFE;" d="M2317.087,2405.403l-5.528,0.884c-5.165-30.476-9.966-61.277-14.271-91.546
						c-31.861-224.12-39.965-443.216-24.081-651.21c13.46-176.239,44.289-346.988,91.63-507.506
						c38.071-129.088,86.98-252.289,145.37-366.183c41.049-80.065,86.319-154.738,134.563-221.942
						c8.405-11.713,17.7-23.266,26.689-34.439c11.977-14.885,24.362-30.278,34.733-46.169l4.774,2.638
						c-10.514,16.11-22.982,31.607-35.039,46.594c-8.945,11.117-18.193,22.612-26.514,34.206
						c-48.092,66.993-93.229,141.443-134.16,221.282c-58.245,113.61-107.036,236.52-145.021,365.31
						c-47.243,160.187-78.01,330.597-91.444,506.495c-15.858,207.642-7.766,426.39,24.048,650.163
						C2307.134,2344.208,2311.928,2374.966,2317.087,2405.403z"/>
					<path style="fill:#FCFDFE;" d="M2321.31,1354.668l-5.527-0.74c38.075-220.514-158.886-552.852-160.881-556.182l4.903-2.576
						C2161.809,798.518,2359.689,1132.39,2321.31,1354.668z"/>
					<path style="fill:#FCFDFE;" d="M2272.963,1979.34l-5.591-0.138c7.016-152.393,254.348-337.958,256.845-339.816l3.46,4.032
						C2525.199,1645.26,2279.868,1829.329,2272.963,1979.34z"/>
					<path style="fill:#FCFDFE;" d="M2277.037,2066.009l-5.546,0.778c-14.449-98.384-90.955-224.565-215.424-355.294
						c-6.259-6.574-6.259-6.574-6.417-7.546l5.537-0.843l-2.768,0.421l2.403-1.345c0.362,0.483,2.724,2.965,5.465,5.841
						C2185.466,1839.498,2262.443,1966.631,2277.037,2066.009z"/>
					<path style="fill:#FCFDFE;" d="M2308.512,2349.649l-5.528-0.721c18.26-108.545,170.08-191.991,171.609-192.821l2.769,4.47
						C2475.854,2161.396,2326.355,2243.59,2308.512,2349.649z"/>
					<path style="fill:#FCFDFE;" d="M2309.074,2408.072c-45.91-76.771-117.296-143.478-218.239-203.931l3.089-4.376
						c101.716,60.919,173.696,128.217,220.053,205.735L2309.074,2408.072z"/>
					<path style="fill:#FCFDFE;" d="M2482.042,859.594l-5.466-1.028c28.518-121.615,28.185-255.069,28.075-298.922
						c-0.026-10.616-0.023-14.353,0.222-15.657l5.512,0.814c-0.173,0.998-0.157,7.067-0.137,14.75
						C2510.358,603.545,2510.691,737.424,2482.042,859.594z"/>
					<path style="fill:#FCFDFE;" d="M2404.245,1051.43l-4.873-2.481c61.646-102.211,303.526-167.417,313.793-170.143l1.46,4.99
						C2712.135,884.458,2464.74,951.128,2404.245,1051.43z"/>
				</g>
			</g>
		</g>
		<g>
			
				<linearGradient id="SVGID_00000070110387008174871200000007395383159223366563_" gradientUnits="userSpaceOnUse" x1="3378.6375" y1="915.6138" x2="4442.3467" y2="2666.7534" gradientTransform="matrix(-0.9932 0.1164 0.1164 0.9932 6047.0449 -181.409)">
				<stop  offset="0.0036" style="stop-color:#E38DDD"/>
				<stop  offset="1" style="stop-color:#9571F6"/>
			</linearGradient>
			<path style="fill:url(#SVGID_00000070110387008174871200000007395383159223366563_);" d="M2319.335,3133.056
				c-19.36-0.161-8.529-101.257-78.927-220.701c-17.587-29.841-102.225-199.254-244.131-187.546
				c-27.546,2.272-55.094,4.543-82.64,6.815c-30.896-58.828-49.115-119.996,31.325-153.448
				c124.921-51.949,99.509-267.695,53.828-339.688c-56.537-89.105-183.669-299.134,8.115-382.312
				c159.659-69.247,277.688-83.142,262.548-286.478c-15.14-203.338,84.98-343.133,280.685-354.039
				c205.949-11.476,339.436-287.823,518.169-221.764c311.431,115.11,106.263,591.37-231.28,762.177
				c-337.54,170.806-118.121,267.37-86.639,431.518c2.059,15.404,4.063,39.443,1.043,68.266
				c-18.599,177.449-195.493,228.575-307.786,385.355C2290.503,2855.025,2351.951,3133.328,2319.335,3133.056z"/>
			<g>
				<defs>
					<path id="SVGID_00000044146384064294737630000017993429184022817433_" d="M2380.755,2729.057l-445.533,49.249
						c-33.342-56.642-80.112-162.762,9.741-200.128c124.922-51.951,99.509-267.696,53.829-339.689
						c-56.538-89.105-183.669-299.134,8.116-382.313c159.659-69.247,277.686-83.14,262.546-286.477
						c-15.139-203.337,84.982-343.133,280.686-354.038c205.948-11.477,339.434-287.825,518.167-221.763
						c311.432,115.109,106.263,591.367-231.278,762.175c-337.542,170.807-118.123,267.37-86.64,431.519
						c42.981,224.098-286.697,214.055-360.336,312.781C2332.324,2577.766,2357.459,2672.192,2380.755,2729.057z"/>
				</defs>
				<clipPath id="SVGID_00000112607662262116044080000008101935874455522718_">
					<use xlink:href="#SVGID_00000044146384064294737630000017993429184022817433_"  style="overflow:visible;"/>
				</clipPath>
				<g style="opacity:0.5;clip-path:url(#SVGID_00000112607662262116044080000008101935874455522718_);">
					<path style="fill:#FCFDFE;" d="M2162.763,2686.119l-9.692-0.71c55.207-668.536,454.003-1308.515,1040.761-1670.189l5.315,7.68
						C2614.862,1383.049,2217.741,2020.36,2162.763,2686.119z"/>
					<path style="fill:#FCFDFE;" d="M2225.952,2324.063l-9.65,1.11c-33.715-261.602-297.341-438.282-300.002-440.036l5.57-7.517
						C1924.565,1879.393,2191.703,2058.338,2225.952,2324.063z"/>
					<path style="fill:#FCFDFE;" d="M2176.473,2563.397l-9.049-3.348c103.378-248.729,609.827-340.369,614.931-341.264l1.779,9.018
						C2779.085,2228.688,2277.885,2319.397,2176.473,2563.397z"/>
					<path style="fill:#FCFDFE;" d="M2495.623,1718.065l-9.323-2.604c63.859-203.201-107.934-484.893-109.675-487.714l8.395-4.622
						C2386.784,1225.98,2560.664,1511.11,2495.623,1718.065z"/>
					<path style="fill:#FCFDFE;" d="M2763.825,1375.545l-6.056-7.178c200.277-150.371,544.471-119.492,547.93-119.158l-0.977,9.126
						C3301.307,1258.003,2960.979,1227.514,2763.825,1375.545z"/>
				</g>
			</g>
		</g>
		<g>
			<g>
				
					<linearGradient id="SVGID_00000107565872716784013260000011454824836362790793_" gradientUnits="userSpaceOnUse" x1="2579.54" y1="4764.1855" x2="998.8214" y2="6198.6709" gradientTransform="matrix(0 -1 1 0 -3755.802 3738.6064)">
					<stop  offset="0.0036" style="stop-color:#26264F"/>
					<stop  offset="1" style="stop-color:#444B8C"/>
				</linearGradient>
				<path style="fill:url(#SVGID_00000107565872716784013260000011454824836362790793_);" d="M2543.516,2896.064
					c0,43.841-31.106,81.326-69.463,83.565l-1479.644,86.362c-43.944,2.565-79.82-33.705-79.82-80.857V862.585
					c0-47.155,35.876-84.065,79.82-82.284l1479.644,59.963c38.357,1.555,69.463,38.484,69.463,82.327V2896.064z"/>
				
					<linearGradient id="SVGID_00000005242799697883855850000015121839391908370306_" gradientUnits="userSpaceOnUse" x1="989.7249" y1="1924.4169" x2="2792.4753" y2="1874.1855">
					<stop  offset="0" style="stop-color:#444B8C"/>
					<stop  offset="0.9964" style="stop-color:#26264F"/>
				</linearGradient>
				<path style="fill:url(#SVGID_00000005242799697883855850000015121839391908370306_);" d="M2586.958,2896.064
					c0,43.841-31.106,81.326-69.463,83.565l-1479.644,86.362c-43.944,2.565-79.819-33.705-79.819-80.857V862.585
					c0-47.155,35.875-84.065,79.819-82.284l1479.644,59.963c38.357,1.555,69.463,38.484,69.463,82.327V2896.064z"/>
				
					<linearGradient id="SVGID_00000173843739106041055370000007636112260756735630_" gradientUnits="userSpaceOnUse" x1="1385.4006" y1="6021.3623" x2="2278.415" y2="4929.8999" gradientTransform="matrix(0 -1 1 0 -3755.802 3738.6064)">
					<stop  offset="0" style="stop-color:#444B8C"/>
					<stop  offset="0.9964" style="stop-color:#26264F"/>
				</linearGradient>
				<path style="fill:url(#SVGID_00000173843739106041055370000007636112260756735630_);" d="M995.257,863.956v2119.141
					c0,25.203,19.09,44.553,42.595,43.222l1170.239-66.295l309.404-17.528c20.552-1.164,37.183-21.162,37.183-44.668V921.402
					c0-23.506-16.631-43.207-37.183-44.005l-320.575-12.441l-1159.068-44.982C1014.347,819.062,995.257,838.753,995.257,863.956z"/>
				<path style="fill:#E7EBF2;" d="M2534.172,2806.433c0,8.744-7.009,16.216-15.627,16.656l-1481.892,75.774
					c-9.847,0.504-17.867-6.698-17.867-16.055V863.998c0-9.357,8.02-16.669,17.867-16.298l1481.892,55.73
					c8.618,0.324,15.627,7.702,15.627,16.446V2806.433z"/>
				
					<linearGradient id="SVGID_00000121275210691890274090000005055326899326726847_" gradientUnits="userSpaceOnUse" x1="1815.313" y1="2807.9783" x2="1785.5037" y2="3034.9873">
					<stop  offset="0" style="stop-color:#444B8C"/>
					<stop  offset="0.9964" style="stop-color:#26264F"/>
				</linearGradient>
				<path style="fill:url(#SVGID_00000121275210691890274090000005055326899326726847_);" d="M1951.578,2937.814l-300.907,16.549
					c-16.088,0.885-29.147-10.27-29.147-24.917v-1.1c0-14.646,13.059-27.206,29.147-28.052l300.907-15.825
					c15.638-0.823,28.299,10.196,28.299,24.609v1.082C1979.878,2924.573,1967.216,2936.954,1951.578,2937.814z"/>
				<path style="fill:#FFFFFF;" d="M1817.538,850.232c0,7.792-6.892,13.845-15.401,13.52c-8.515-0.325-15.422-6.914-15.422-14.716
					c0-7.803,6.907-13.855,15.422-13.52C1810.646,835.853,1817.538,842.441,1817.538,850.232z"/>
			</g>
			<g style="opacity:0.3;">
				<path style="fill:#FFFFFF;" d="M2195.317,2757.152c-6.032-129.336,137.771-205.191,123.956-387.644
					c-1.247-16.461-14.097-157.654-127.734-253.357c-102.044-85.941-187.815-53.606-376.683-122.155
					c-132.37-48.042-281.179-102.053-341.366-210.418c-119.523-215.199,222.02-430.147,152.114-708.742
					c-20.031-79.83-76.589-177.684-225.967-279.873l-361.787-14.661c-43.944-1.781-79.819,35.128-79.819,82.283v2122.546
					c0,47.155,35.875,83.424,79.819,80.859l1348.162-78.688C2242.417,2904.29,2198.46,2824.539,2195.317,2757.152z"/>
			</g>
		</g>
		<g>
			<g>
				
					<linearGradient id="SVGID_00000068645671204028011840000008465634681039970997_" gradientUnits="userSpaceOnUse" x1="1451.9701" y1="2110.7759" x2="371.6978" y2="3416.5405">
					<stop  offset="0.0036" style="stop-color:#F36F56"/>
					<stop  offset="1" style="stop-color:#FFC444"/>
				</linearGradient>
				<path style="fill:url(#SVGID_00000068645671204028011840000008465634681039970997_);" d="M824.071,2430.342
					c-43.008,1.475-86.367-10.474-121.653-36.746c-78.159-58.181-86.568-163.922-18.668-235.436l992.361-1052.53
					c32.468-34.181,79.398-52.997,128.538-51.656c48.92,1.335,95.231,22.517,127.039,57.99l332.259,370.507l377.544-415.117
					c56.474-62.1,154.293-65.875,218.393-9.065c63.71,56.461,70.516,151.954,15.292,213.906l-489.472,549.09
					c-30.489,34.203-74.875,54.176-121.756,54.675c-47.089,0.501-92.056-18.689-123.162-52.685l-336.136-367.341l-841.808,912.685
					C926.696,2407.489,875.636,2428.573,824.071,2430.342z"/>
				<g>
					
						<linearGradient id="SVGID_00000011729631082539696120000002377104009587957135_" gradientUnits="userSpaceOnUse" x1="1783.0343" y1="2384.6675" x2="702.763" y2="3690.4309">
						<stop  offset="0.0036" style="stop-color:#F36F56"/>
						<stop  offset="1" style="stop-color:#FFC444"/>
					</linearGradient>
					<polygon style="fill:url(#SVGID_00000011729631082539696120000002377104009587957135_);" points="2980.793,1351.943 
						2564.978,987.102 3098.579,807.94 3135.841,807.94 3014.411,1348.66 					"/>
				</g>
			</g>
			<g>
				
					<linearGradient id="SVGID_00000168805884566074211130000006405385888839178171_" gradientUnits="userSpaceOnUse" x1="1112.6248" y1="2419.1494" x2="3042.5269" y2="489.2472">
					<stop  offset="0" style="stop-color:#FFC444"/>
					<stop  offset="0.9964" style="stop-color:#F36F56"/>
				</linearGradient>
				<path style="fill:url(#SVGID_00000168805884566074211130000006405385888839178171_);" d="M861.333,2430.342
					c-43.008,1.475-86.367-10.474-121.653-36.746c-78.159-58.181-86.569-163.922-18.668-235.436l992.361-1052.53
					c32.468-34.181,79.398-52.997,128.538-51.656c48.919,1.335,95.231,22.517,127.039,57.99l332.259,370.507l377.544-415.117
					c56.474-62.1,154.293-65.875,218.393-9.065c63.709,56.461,70.516,151.954,15.292,213.906l-489.472,549.09
					c-30.489,34.203-74.875,54.176-121.756,54.675c-47.089,0.501-92.056-18.689-123.162-52.685l-336.136-367.341l-841.809,912.685
					C963.958,2407.489,912.899,2428.573,861.333,2430.342z"/>
				<g>
					
						<linearGradient id="SVGID_00000135678572343263580550000016305766011248796850_" gradientUnits="userSpaceOnUse" x1="1334.8425" y1="2641.3638" x2="3264.7412" y2="711.465">
						<stop  offset="0" style="stop-color:#FFC444"/>
						<stop  offset="0.9964" style="stop-color:#F36F56"/>
					</linearGradient>
					<polygon style="fill:url(#SVGID_00000135678572343263580550000016305766011248796850_);" points="3014.411,1348.66 
						2602.24,987.102 3135.841,807.94 					"/>
				</g>
			</g>
		</g>
		<g>
			
				<linearGradient id="SVGID_00000016055866679019105660000017596902645982761636_" gradientUnits="userSpaceOnUse" x1="2508.6682" y1="2488.3215" x2="2540.8279" y2="2009.5044">
				<stop  offset="0" style="stop-color:#444B8C"/>
				<stop  offset="0.9964" style="stop-color:#26264F"/>
			</linearGradient>
			<path style="fill:url(#SVGID_00000016055866679019105660000017596902645982761636_);" d="M2493.503,2049.393
				c0,0,74.106,24.998,81.983,154.212c-12.118-1.01-40.371,0-40.371,0s5.232-93.968-47.481-112.224
				C2491.875,2080.428,2493.503,2049.393,2493.503,2049.393z"/>
			
				<linearGradient id="SVGID_00000062897203858354842260000014344746227463036603_" gradientUnits="userSpaceOnUse" x1="2347.6646" y1="2320.1641" x2="2370.0991" y2="1986.1401">
				<stop  offset="0.1" style="stop-color:#311944"/>
				<stop  offset="0.267" style="stop-color:#371B47"/>
				<stop  offset="0.4803" style="stop-color:#462150"/>
				<stop  offset="0.7186" style="stop-color:#612A5F"/>
				<stop  offset="0.9736" style="stop-color:#853774"/>
				<stop  offset="1" style="stop-color:#893976"/>
			</linearGradient>
			<path style="fill:url(#SVGID_00000062897203858354842260000014344746227463036603_);" d="M2221.603,2041.635
				c1.848,23.526,3.695,47.051,5.543,70.576c36.622-10.565,76.672-22.822,119.726-25.075c55.98-2.929,107.288,3.592,152.984,14.929
				c2.032-2.97,6.338-10.113,8.324-21.744c3.199-18.742-2.159-34.298-3.152-37.069c-23.278-8.638-48.52-15.88-75.567-20.811
				C2351.901,2008.302,2281.818,2022.328,2221.603,2041.635z"/>
			
				<linearGradient id="SVGID_00000016039628992174922900000016752862389348554633_" gradientUnits="userSpaceOnUse" x1="2232.2002" y1="2080.8801" x2="2480.3013" y2="2213.8948">
				<stop  offset="0.1" style="stop-color:#311944"/>
				<stop  offset="0.267" style="stop-color:#371B47"/>
				<stop  offset="0.4803" style="stop-color:#462150"/>
				<stop  offset="0.7186" style="stop-color:#612A5F"/>
				<stop  offset="0.9736" style="stop-color:#853774"/>
				<stop  offset="1" style="stop-color:#893976"/>
			</linearGradient>
			<path style="fill:url(#SVGID_00000016039628992174922900000016752862389348554633_);" d="M2218.151,2062.019
				c0.109-8.51,0.721-19.135,3.451-20.384c2.571-1.177,6.028,6.517,7.514,10.792c0.619,1.78,1.983,6.092,2.836,19.822
				c1.1,17.701-0.182,26.378-1.356,31.736c-0.706,3.221-1.809,8.103-3.451,8.226c-1.319,0.098-2.465-2.984-4.173-8.95
				C2220.673,2095.223,2217.898,2081.815,2218.151,2062.019z"/>
			
				<linearGradient id="SVGID_00000182517308635978948210000009066925687825224349_" gradientUnits="userSpaceOnUse" x1="2162.0129" y1="2544.8806" x2="2198.4768" y2="2001.9829">
				<stop  offset="0" style="stop-color:#444B8C"/>
				<stop  offset="0.9964" style="stop-color:#26264F"/>
			</linearGradient>
			<path style="fill:url(#SVGID_00000182517308635978948210000009066925687825224349_);" d="M2150.655,2210.676
				c15.354,3.043,52.687,12.146,52.687,12.146s-24.341-82.645,21.553-120.792c1.189-6.243,2.395-16.155,0.945-28.068
				c-1.122-9.216-3.463-16.578-5.483-21.679C2200.872,2063.931,2158.458,2103.113,2150.655,2210.676z"/>
			
				<linearGradient id="SVGID_00000032622452510646886540000009080927969037022859_" gradientUnits="userSpaceOnUse" x1="1900.8025" y1="2498.9436" x2="1760.1733" y2="1213.4583">
				<stop  offset="0.1" style="stop-color:#311944"/>
				<stop  offset="0.6853" style="stop-color:#6D2F66"/>
				<stop  offset="1" style="stop-color:#893976"/>
			</linearGradient>
			<path style="fill:url(#SVGID_00000032622452510646886540000009080927969037022859_);" d="M1833.098,2232.449
				c0,0,1.879-43.4,65.909-43.4c10.083,7.911,10.588,43.4,10.588,43.4H1833.098z"/>
			
				<linearGradient id="SVGID_00000155836666516960246710000002492254971808322238_" gradientUnits="userSpaceOnUse" x1="2509.8899" y1="3038.4819" x2="1580.6339" y2="2521.0544">
				<stop  offset="0" style="stop-color:#311944"/>
				<stop  offset="1" style="stop-color:#893976"/>
			</linearGradient>
			<path style="fill:url(#SVGID_00000155836666516960246710000002492254971808322238_);" d="M1776.243,3085.646l175.232,114.387
				l106.173-420.083l-174.943-563.183l-49.607,15.683l-75.269,808.831C1756.125,3059.588,1763.483,3077.316,1776.243,3085.646z"/>
			
				<linearGradient id="SVGID_00000087390846150393768490000010251110690433827977_" gradientUnits="userSpaceOnUse" x1="1670.8688" y1="2314.1748" x2="1953.4192" y2="2787.9905">
				<stop  offset="0" style="stop-color:#311944"/>
				<stop  offset="1" style="stop-color:#893976"/>
			</linearGradient>
			<path style="opacity:0.3;fill:url(#SVGID_00000087390846150393768490000010251110690433827977_);" d="M2057.648,2779.948
				l-174.943-563.182l-49.606,15.683c12.214,49.704,18.071,130.647,20.828,175.706c11.728,191.746,50.677,245.105,31.808,378.87
				c-15.689,111.224-49.949,126.32-46.955,201.152c3.262,81.5,47.349,149.747,99.766,203.416l12.93,8.439L2057.648,2779.948z"/>
			
				<linearGradient id="SVGID_00000150785478718990150310000010919391339007543729_" gradientUnits="userSpaceOnUse" x1="2368.9419" y1="1745.9431" x2="2472.5308" y2="3136.2231">
				<stop  offset="0.1" style="stop-color:#311944"/>
				<stop  offset="0.6853" style="stop-color:#6D2F66"/>
				<stop  offset="1" style="stop-color:#893976"/>
			</linearGradient>
			<polygon style="fill:url(#SVGID_00000150785478718990150310000010919391339007543729_);" points="1882.704,2216.766 
				2844.869,2216.767 2996.348,3109.468 1951.474,3200.032 			"/>
			<g style="opacity:0.2;">
				
					<linearGradient id="SVGID_00000137826921843980125450000003248982632321881750_" gradientUnits="userSpaceOnUse" x1="2195.2249" y1="2534.8982" x2="2947.3237" y2="3114.3853">
					<stop  offset="0" style="stop-color:#311944"/>
					<stop  offset="1" style="stop-color:#893976"/>
				</linearGradient>
				<path style="fill:url(#SVGID_00000137826921843980125450000003248982632321881750_);" d="M2844.869,2216.766h-324.134
					c-5.969,18.291-15.094,43.599-28.414,72.233c-144.956,311.605-476.795,350.871-470.8,402.08
					c8.961,76.544,747.912-32.102,766.78,73.075c9.107,50.773-146.936,166.187-309.995,209.888
					c-195.235,52.323-338.706-13.621-434.127,103.943c-32.309,39.806-46.572,86.438-53.52,117.975l1005.688-86.492
					L2844.869,2216.766z"/>
			</g>
			
				<linearGradient id="SVGID_00000003815011110409301660000006365223320399923115_" gradientUnits="userSpaceOnUse" x1="2008.5874" y1="2451.4138" x2="2316.6533" y2="2439.4502">
				<stop  offset="0.1" style="stop-color:#311944"/>
				<stop  offset="0.6853" style="stop-color:#6D2F66"/>
				<stop  offset="1" style="stop-color:#893976"/>
			</linearGradient>
			<path style="fill:url(#SVGID_00000003815011110409301660000006365223320399923115_);" d="M1899.007,2189.049
				c-10.84,0-25.994-1.456-42.477,8.976c-3.519,2.227-6.626,4.678-9.352,7.167l7.588-2.908c12.207-3.859,29.038,1.277,35.324,14.482
				c7.725,16.229,10.506,53.782,12.195,72.385c4.804,52.915,34.333,382.153,34.333,382.153c2.212,27.76,21.76,48.783,44.861,48.247
				l895.007-50.196c6.797-0.157,13.514-2.443,19.122-7.079c11.701-9.673,16.987-26.452,14.274-42.393l-45.342-392.12
				c-3.835-22.538-20.27-38.714-39.333-38.714H1899.007z"/>
			
				<linearGradient id="SVGID_00000046334769096908434260000005245702932428523677_" gradientUnits="userSpaceOnUse" x1="2492.2942" y1="3530.6741" x2="2380.7603" y2="2277.2554">
				<stop  offset="0.1" style="stop-color:#311944"/>
				<stop  offset="0.267" style="stop-color:#371B47"/>
				<stop  offset="0.4803" style="stop-color:#462150"/>
				<stop  offset="0.7186" style="stop-color:#612A5F"/>
				<stop  offset="0.9736" style="stop-color:#853774"/>
				<stop  offset="1" style="stop-color:#893976"/>
			</linearGradient>
			<path style="fill:url(#SVGID_00000046334769096908434260000005245702932428523677_);" d="M1908.586,2189.049
				c-10.839,0-23.696-1.597-38.026,2.55c-3.864,1.118-10.046,3.169-12.772,5.659c0,0,30.379-7.829,41.881,19.509
				c7.021,16.688,10.506,53.782,12.195,72.385c4.804,52.915,34.333,382.153,34.333,382.153c2.212,27.76,21.76,48.783,44.861,48.247
				l905.09-20.987c6.797-0.157,13.514-2.443,19.122-7.079c11.701-9.673,16.987-26.452,14.274-42.393l-55.426-421.329
				c-3.835-22.538-20.27-38.714-39.333-38.714H1908.586z"/>
			
				<linearGradient id="SVGID_00000012465853057524072520000015126297605505697680_" gradientUnits="userSpaceOnUse" x1="2546.4595" y1="3819.4512" x2="2357.5608" y2="2092.7373">
				<stop  offset="0" style="stop-color:#311944"/>
				<stop  offset="1" style="stop-color:#893976"/>
			</linearGradient>
			<path style="opacity:0.1;fill:url(#SVGID_00000012465853057524072520000015126297605505697680_);" d="M2929.544,2649.091
				l-55.425-421.329c-3.835-22.538-20.271-38.714-39.333-38.714h-926.199c-10.84,0-23.696-1.597-38.026,2.55
				c-3.864,1.118-10.046,3.169-12.773,5.659c0,0,30.38-7.829,41.881,19.509c1.107,2.63,2.116,5.809,3.053,9.3
				c87.96,3.753,175.919,1.052,263.877,7.177c173.878,11.79,349.71,11.79,513.819,87.247
				c52.494,24.136,88.481,110.852,74.24,150.913c-10.269,28.885-45.311,26.597-57.539,64.504
				c-12.86,39.865,17.976,66.953,5.042,94.929c-13.557,29.322-54.729,15.353-121.38,36.283
				c-36.723,11.532-64.89,28.543-82.482,40.67l397.851-9.225c6.797-0.158,13.514-2.443,19.122-7.079
				C2926.972,2681.812,2932.258,2665.032,2929.544,2649.091z"/>
			<g>
				
					<linearGradient id="SVGID_00000158712744172761031320000008627808402988195472_" gradientUnits="userSpaceOnUse" x1="2795.3984" y1="2906.6538" x2="2235.9407" y2="2614.2097">
					<stop  offset="0" style="stop-color:#FFC444"/>
					<stop  offset="0.9964" style="stop-color:#F36F56"/>
				</linearGradient>
				<path style="fill:url(#SVGID_00000158712744172761031320000008627808402988195472_);" d="M2496.399,2777.003l-113.337,29.296
					l-11.97,1.052c-12.06,1.06-22.439-10.133-22.966-24.883l-4.974-139.436c-0.526-14.75,9.018-26.978,21.109-27.173l12.031-0.194
					l113.93,15.564c10.884-0.176,20.051-6.399,20.545,7.434l4.665,130.769C2515.926,2783.266,2507.255,2776.049,2496.399,2777.003z"
					/>
				
					<linearGradient id="SVGID_00000119104847516931220960000014607001369499943854_" gradientUnits="userSpaceOnUse" x1="2294.439" y1="2659.2043" x2="2863.196" y2="2862.7302">
					<stop  offset="0" style="stop-color:#FFC444"/>
					<stop  offset="0.9964" style="stop-color:#F36F56"/>
				</linearGradient>
				<path style="fill:url(#SVGID_00000119104847516931220960000014607001369499943854_);" d="M2505.016,2796.313l-125.567,11.038
					c-12.06,1.06-22.44-10.133-22.966-24.883l-4.974-139.436c-0.526-14.75,9.018-26.978,21.109-27.173l125.889-2.028
					c10.884-0.175,20.124,11,20.617,24.832l4.665,130.769C2524.282,2783.266,2515.872,2795.358,2505.016,2796.313z"/>
			</g>
		</g>
		<g>
			<g>
				
					<linearGradient id="SVGID_00000101086512239010485890000003858875510989814715_" gradientUnits="userSpaceOnUse" x1="479.2879" y1="3247.0242" x2="1460.8461" y2="3247.0242">
					<stop  offset="0" style="stop-color:#F57E53"/>
					<stop  offset="0.0045" style="stop-color:#F58152"/>
					<stop  offset="0.042" style="stop-color:#F99A4D"/>
					<stop  offset="0.084" style="stop-color:#FCAD49"/>
					<stop  offset="0.1333" style="stop-color:#FEBA46"/>
					<stop  offset="0.1962" style="stop-color:#FFC244"/>
					<stop  offset="0.3183" style="stop-color:#FFC444"/>
					<stop  offset="0.455" style="stop-color:#FDB946"/>
					<stop  offset="0.6941" style="stop-color:#F99C4C"/>
					<stop  offset="0.9964" style="stop-color:#F36F56"/>
				</linearGradient>
				<path style="fill:url(#SVGID_00000101086512239010485890000003858875510989814715_);" d="M552.227,3172.032v94.622
					c0,30.576,190.996,55.361,426.601,55.361c235.605,0,426.601-24.785,426.601-55.361v-94.622H552.227z"/>
				
					<linearGradient id="SVGID_00000097496094371434468330000009950558609463034534_" gradientUnits="userSpaceOnUse" x1="974.5779" y1="3136.4558" x2="1026.3248" y2="3569.6526">
					<stop  offset="0" style="stop-color:#FFDB44"/>
					<stop  offset="1" style="stop-color:#FEEF06"/>
				</linearGradient>
				<path style="fill:url(#SVGID_00000097496094371434468330000009950558609463034534_);" d="M1405.429,3172.032
					c0,30.576-190.996,55.362-426.601,55.362c-235.606,0-426.601-24.786-426.601-55.362c0-30.575,190.996-55.361,426.601-55.361
					C1214.433,3116.672,1405.429,3141.457,1405.429,3172.032z"/>
				
					<linearGradient id="SVGID_00000078019000459270847800000011083612559973326015_" gradientUnits="userSpaceOnUse" x1="972.3277" y1="3117.1377" x2="988.2198" y2="3250.1782">
					<stop  offset="0" style="stop-color:#FFDB44"/>
					<stop  offset="1" style="stop-color:#FEEF06"/>
				</linearGradient>
				<path style="fill:url(#SVGID_00000078019000459270847800000011083612559973326015_);" d="M978.826,3231.212
					c-208.658,0-426.849-19.93-426.849-58.37c0-2.112,0.754-5.822,2.864-5.822c2.112,0,1.203,2.901,1.203,5.012
					c0,24.378,173.631,51.54,422.781,51.54s422.781-27.162,422.781-51.54c0-2.111,0.36-4.089,2.471-4.089
					c2.112,0,1.602,2.817,1.602,4.928C1405.681,3211.312,1187.485,3231.212,978.826,3231.212z"/>
				<g>
					<path style="fill:#FCB048;" d="M938.515,3175.119c4.186-2.898,8.641-5.754,13.407-8.576c4.722-2.818,10.876-5.365,18.327-7.64
						c7.495-2.275,16.87-4.126,28.121-5.561c11.253-1.435,25.324-2.192,42.124-2.275c16.487-0.081,31.948,0.443,46.431,1.572
						c14.438,1.123,27.18,2.811,38.183,5.055c10.957,2.243,19.907,5.018,26.804,8.316c6.852,3.307,10.937,7.092,12.253,11.357
						l48.035,0.486c3.485,0.022,6.569,0.305,9.209,0.852c2.683,0.548,3.982,1.239,3.987,2.078l0.019,3.955l-61.753-0.594
						c-2.165,4.844-7.683,9.275-16.555,13.292c-8.827,4.023-20.115,7.503-33.862,10.447l-22.49-3.128
						c-2.012-0.307-3.667-0.698-4.965-1.176c-1.299-0.471-1.927-0.985-1.929-1.545c-0.004-0.761,1.734-1.628,5.215-2.601
						c3.48-0.978,7.406-2.188,11.778-3.627c4.371-1.436,8.653-3.135,12.888-5.096c4.19-1.957,6.993-4.297,8.454-7.021
						l-145.757-1.446c-3.828,2.819-8.149,5.585-12.872,8.306c-4.767,2.72-11.056,5.17-18.908,7.344
						c-7.854,2.175-17.63,3.939-29.33,5.299c-11.744,1.354-26.441,2.076-44.224,2.163c-13.359,0.065-26.364-0.442-39.103-1.515
						c-12.74-1.079-24.052-2.691-33.937-4.838c-9.885-2.151-17.985-4.808-24.346-7.971c-6.316-3.168-9.863-6.803-10.598-10.917
						l-39.545-0.406c-3.486-0.022-6.57-0.294-9.342-0.823c-2.729-0.528-4.118-1.228-4.121-2.105l-0.02-3.956l54.067,0.516
						c2.393-4.167,7.29-7.8,14.781-10.89c7.491-3.095,16.637-5.847,27.438-8.255l18.108,2.486c5.5,0.773,8.229,1.677,8.235,2.716
						c0.003,0.561-1.11,1.254-3.386,2.084c-2.318,0.831-4.995,1.824-8.117,2.976c-3.078,1.156-6.11,2.508-9.007,4.063
						c-2.941,1.55-5.121,3.306-6.587,5.274L938.515,3175.119z M805.124,3180.508c1.084,2.594,3.508,4.826,7.182,6.705
						c3.673,1.884,8.238,3.427,13.74,4.638c5.502,1.213,11.672,2.099,18.512,2.665c6.883,0.566,14.078,0.833,21.585,0.796
						c8.758-0.043,16.396-0.421,22.916-1.131c6.475-0.715,12.19-1.679,17.143-2.904c4.909-1.223,9.236-2.639,12.892-4.257
						c3.656-1.618,6.909-3.369,9.849-5.262L805.124,3180.508z M1122.432,3176.972c-1.085-2.628-3.733-4.932-7.853-6.912
						c-4.121-1.975-9.401-3.641-15.796-4.984c-6.396-1.349-13.863-2.351-22.401-3.006c-8.493-0.656-17.877-0.961-28.153-0.911
						c-9.115,0.045-17.021,0.453-23.586,1.223c-6.564,0.773-12.278,1.805-17.142,3.112c-4.819,1.302-8.967,2.819-12.309,4.553
						c-3.388,1.733-6.551,3.587-9.446,5.562L1122.432,3176.972z"/>
				</g>
				
					<linearGradient id="SVGID_00000181047629629562424310000003856409681541467569_" gradientUnits="userSpaceOnUse" x1="681.9814" y1="891.6081" x2="697.8174" y2="1024.1785" gradientTransform="matrix(-1 0 0 -1 1669.249 4127.8389)">
					<stop  offset="0.0036" style="stop-color:#F36F56"/>
					<stop  offset="0.3059" style="stop-color:#F99C4C"/>
					<stop  offset="0.545" style="stop-color:#FDB946"/>
					<stop  offset="0.6817" style="stop-color:#FFC444"/>
					<stop  offset="0.8038" style="stop-color:#FFC244"/>
					<stop  offset="0.8667" style="stop-color:#FEBA46"/>
					<stop  offset="0.916" style="stop-color:#FCAD49"/>
					<stop  offset="0.958" style="stop-color:#F99A4D"/>
					<stop  offset="0.9955" style="stop-color:#F58152"/>
					<stop  offset="1" style="stop-color:#F57E53"/>
				</linearGradient>
				<path style="fill:url(#SVGID_00000181047629629562424310000003856409681541467569_);" d="M978.886,3122.663
					c-190.214,0-388.269,16.738-419.949,49.14c1.24,1.144,2.392,2.363,3.462,3.646c26.703-22.497,190.241-45.147,416.487-45.147
					c232.054,0,398.214,23.831,418.341,46.882c0.989-1.265,2.046-2.475,3.191-3.615
					C1374.252,3140.021,1172.478,3122.663,978.886,3122.663z"/>
			</g>
			<g>
				
					<linearGradient id="SVGID_00000108268290763653992620000003532695522820072598_" gradientUnits="userSpaceOnUse" x1="581.6179" y1="3147.9268" x2="1563.176" y2="3147.9268">
					<stop  offset="0" style="stop-color:#F57E53"/>
					<stop  offset="0.0045" style="stop-color:#F58152"/>
					<stop  offset="0.042" style="stop-color:#F99A4D"/>
					<stop  offset="0.084" style="stop-color:#FCAD49"/>
					<stop  offset="0.1333" style="stop-color:#FEBA46"/>
					<stop  offset="0.1962" style="stop-color:#FFC244"/>
					<stop  offset="0.3183" style="stop-color:#FFC444"/>
					<stop  offset="0.455" style="stop-color:#FDB946"/>
					<stop  offset="0.6941" style="stop-color:#F99C4C"/>
					<stop  offset="0.9964" style="stop-color:#F36F56"/>
				</linearGradient>
				<path style="fill:url(#SVGID_00000108268290763653992620000003532695522820072598_);" d="M654.556,3072.935v94.622
					c0,30.576,190.995,55.361,426.601,55.361c235.605,0,426.602-24.785,426.602-55.361v-94.622H654.556z"/>
				
					<linearGradient id="SVGID_00000095320159580212218620000010680030077630761117_" gradientUnits="userSpaceOnUse" x1="1076.9071" y1="3037.3582" x2="1128.6539" y2="3470.5549">
					<stop  offset="0" style="stop-color:#FFDB44"/>
					<stop  offset="1" style="stop-color:#FEEF06"/>
				</linearGradient>
				
					<ellipse style="fill:url(#SVGID_00000095320159580212218620000010680030077630761117_);" cx="1081.157" cy="3072.935" rx="426.601" ry="55.362"/>
				
					<linearGradient id="SVGID_00000140724858559620511500000011054157963614360759_" gradientUnits="userSpaceOnUse" x1="1074.6572" y1="3018.0391" x2="1090.5494" y2="3151.0803">
					<stop  offset="0" style="stop-color:#FFDB44"/>
					<stop  offset="1" style="stop-color:#FEEF06"/>
				</linearGradient>
				<path style="fill:url(#SVGID_00000140724858559620511500000011054157963614360759_);" d="M1081.156,3132.114
					c-208.658,0-426.848-19.93-426.848-58.371c0-2.111,0.753-5.821,2.864-5.821c2.111,0,1.203,2.902,1.203,5.014
					c0,24.379,173.631,51.54,422.781,51.54s422.781-27.161,422.781-51.54c0-2.112,0.36-4.09,2.47-4.09
					c2.112,0,1.602,2.817,1.602,4.928C1508.01,3112.214,1289.815,3132.114,1081.156,3132.114z"/>
				<g>
					<path style="fill:#FCB048;" d="M1040.845,3076.021c4.186-2.898,8.64-5.754,13.407-8.576c4.722-2.818,10.876-5.365,18.326-7.64
						c7.495-2.276,16.87-4.126,28.122-5.561c11.252-1.435,25.324-2.192,42.123-2.275c16.486-0.081,31.949,0.443,46.431,1.572
						c14.438,1.124,27.18,2.813,38.182,5.055c10.958,2.244,19.908,5.019,26.805,8.315c6.852,3.307,10.937,7.092,12.253,11.357
						l48.035,0.486c3.486,0.022,6.57,0.304,9.209,0.853c2.683,0.548,3.983,1.239,3.987,2.078l0.019,3.955l-61.752-0.595
						c-2.166,4.844-7.685,9.275-16.556,13.293c-8.828,4.024-20.115,7.503-33.861,10.447l-22.491-3.128
						c-2.012-0.307-3.667-0.699-4.965-1.176c-1.298-0.471-1.926-0.986-1.929-1.545c-0.004-0.761,1.735-1.628,5.215-2.601
						c3.48-0.977,7.406-2.187,11.778-3.627c4.371-1.437,8.653-3.135,12.888-5.097c4.19-1.956,6.994-4.296,8.454-7.02l-145.757-1.446
						c-3.829,2.818-8.149,5.585-12.872,8.305c-4.767,2.721-11.056,5.171-18.908,7.346c-7.854,2.174-17.63,3.939-29.329,5.299
						c-11.745,1.354-26.441,2.075-44.224,2.163c-13.359,0.065-26.364-0.442-39.103-1.515c-12.74-1.079-24.052-2.691-33.937-4.838
						c-9.885-2.151-17.985-4.808-24.346-7.971c-6.316-3.168-9.863-6.804-10.598-10.916l-39.545-0.406
						c-3.486-0.022-6.57-0.294-9.342-0.823c-2.729-0.528-4.117-1.229-4.121-2.106l-0.019-3.956l54.066,0.516
						c2.393-4.167,7.29-7.799,14.781-10.89c7.491-3.094,16.637-5.846,27.438-8.254l18.108,2.486c5.5,0.773,8.23,1.677,8.235,2.716
						c0.003,0.56-1.11,1.253-3.385,2.084c-2.318,0.831-4.995,1.824-8.117,2.976c-3.077,1.156-6.109,2.508-9.006,4.062
						c-2.941,1.551-5.122,3.307-6.587,5.275L1040.845,3076.021z M907.453,3081.411c1.085,2.594,3.508,4.826,7.183,6.704
						c3.673,1.884,8.238,3.427,13.739,4.639c5.502,1.212,11.672,2.098,18.512,2.664c6.883,0.566,14.078,0.833,21.584,0.796
						c8.758-0.043,16.396-0.422,22.916-1.132c6.476-0.714,12.19-1.679,17.143-2.903c4.909-1.223,9.236-2.64,12.892-4.257
						c3.656-1.617,6.909-3.37,9.849-5.262L907.453,3081.411z M1224.761,3077.874c-1.085-2.628-3.733-4.932-7.853-6.912
						c-4.121-1.974-9.401-3.641-15.797-4.984c-6.396-1.349-13.863-2.351-22.401-3.007c-8.492-0.656-17.877-0.961-28.153-0.91
						c-9.115,0.044-17.021,0.454-23.586,1.223c-6.564,0.773-12.278,1.805-17.141,3.113c-4.819,1.301-8.967,2.819-12.31,4.552
						c-3.387,1.733-6.55,3.587-9.446,5.562L1224.761,3077.874z"/>
				</g>
				
					<linearGradient id="SVGID_00000170998113112144126580000002279665847635328137_" gradientUnits="userSpaceOnUse" x1="579.6522" y1="990.7061" x2="595.4881" y2="1123.276" gradientTransform="matrix(-1 0 0 -1 1669.249 4127.8389)">
					<stop  offset="0.0036" style="stop-color:#F36F56"/>
					<stop  offset="0.3059" style="stop-color:#F99C4C"/>
					<stop  offset="0.545" style="stop-color:#FDB946"/>
					<stop  offset="0.6817" style="stop-color:#FFC444"/>
					<stop  offset="0.8038" style="stop-color:#FFC244"/>
					<stop  offset="0.8667" style="stop-color:#FEBA46"/>
					<stop  offset="0.916" style="stop-color:#FCAD49"/>
					<stop  offset="0.958" style="stop-color:#F99A4D"/>
					<stop  offset="0.9955" style="stop-color:#F58152"/>
					<stop  offset="1" style="stop-color:#F57E53"/>
				</linearGradient>
				<path style="fill:url(#SVGID_00000170998113112144126580000002279665847635328137_);" d="M1081.215,3023.566
					c-190.214,0-388.269,16.737-419.949,49.139c1.24,1.144,2.392,2.363,3.462,3.646c26.702-22.497,190.241-45.146,416.487-45.146
					c232.054,0,398.214,23.83,418.341,46.881c0.989-1.265,2.047-2.475,3.191-3.615
					C1476.581,3040.923,1274.808,3023.566,1081.215,3023.566z"/>
			</g>
			<g>
				
					<linearGradient id="SVGID_00000157987837150381462240000012803696558921009794_" gradientUnits="userSpaceOnUse" x1="643.7142" y1="3048.5374" x2="1625.2721" y2="3048.5374">
					<stop  offset="0" style="stop-color:#F57E53"/>
					<stop  offset="0.0045" style="stop-color:#F58152"/>
					<stop  offset="0.042" style="stop-color:#F99A4D"/>
					<stop  offset="0.084" style="stop-color:#FCAD49"/>
					<stop  offset="0.1333" style="stop-color:#FEBA46"/>
					<stop  offset="0.1962" style="stop-color:#FFC244"/>
					<stop  offset="0.3183" style="stop-color:#FFC444"/>
					<stop  offset="0.455" style="stop-color:#FDB946"/>
					<stop  offset="0.6941" style="stop-color:#F99C4C"/>
					<stop  offset="0.9964" style="stop-color:#F36F56"/>
				</linearGradient>
				<path style="fill:url(#SVGID_00000157987837150381462240000012803696558921009794_);" d="M716.653,2973.546v94.622
					c0,30.576,190.996,55.361,426.601,55.361c235.605,0,426.601-24.785,426.601-55.361v-94.622H716.653z"/>
				
					<linearGradient id="SVGID_00000024709691666044734810000012374781491882931851_" gradientUnits="userSpaceOnUse" x1="1139.004" y1="2937.9685" x2="1190.751" y2="3371.1658">
					<stop  offset="0" style="stop-color:#FFDB44"/>
					<stop  offset="1" style="stop-color:#FEEF06"/>
				</linearGradient>
				
					<ellipse style="fill:url(#SVGID_00000024709691666044734810000012374781491882931851_);" cx="1143.254" cy="2973.546" rx="426.601" ry="55.362"/>
				
					<linearGradient id="SVGID_00000159464369715824353990000017625445472756685986_" gradientUnits="userSpaceOnUse" x1="1136.7538" y1="2918.6504" x2="1152.646" y2="3051.6914">
					<stop  offset="0" style="stop-color:#FFDB44"/>
					<stop  offset="1" style="stop-color:#FEEF06"/>
				</linearGradient>
				<path style="fill:url(#SVGID_00000159464369715824353990000017625445472756685986_);" d="M1143.253,3032.725
					c-208.659,0-426.849-19.93-426.849-58.37c0-2.112,0.753-5.821,2.864-5.821c2.112,0,1.203,2.902,1.203,5.013
					c0,24.379,173.63,51.54,422.781,51.54c249.15,0,422.781-27.161,422.781-51.54c0-2.111,0.359-4.089,2.47-4.089
					c2.111,0,1.602,2.817,1.602,4.928C1570.107,3012.825,1351.911,3032.725,1143.253,3032.725z"/>
				<g>
					<path style="fill:#FCB048;" d="M1102.942,2976.631c4.185-2.898,8.64-5.753,13.407-8.576c4.723-2.818,10.875-5.364,18.327-7.64
						c7.495-2.275,16.869-4.125,28.121-5.561c11.252-1.435,25.323-2.192,42.123-2.275c16.487-0.081,31.949,0.443,46.432,1.572
						c14.438,1.123,27.18,2.813,38.182,5.055c10.958,2.243,19.908,5.018,26.805,8.316c6.853,3.306,10.938,7.091,12.253,11.356
						l48.035,0.487c3.485,0.021,6.57,0.304,9.209,0.852c2.683,0.548,3.983,1.239,3.987,2.078l0.02,3.956l-61.752-0.595
						c-2.166,4.844-7.684,9.275-16.556,13.293c-8.826,4.023-20.114,7.502-33.861,10.447l-22.491-3.128
						c-2.012-0.307-3.666-0.699-4.965-1.175c-1.298-0.472-1.926-0.985-1.929-1.547c-0.004-0.761,1.735-1.627,5.215-2.6
						c3.48-0.978,7.407-2.188,11.779-3.628c4.371-1.436,8.653-3.135,12.888-5.096c4.19-1.957,6.994-4.297,8.455-7.02l-145.757-1.445
						c-3.828,2.818-8.149,5.584-12.872,8.305c-4.768,2.72-11.056,5.17-18.909,7.345c-7.853,2.174-17.63,3.94-29.33,5.299
						c-11.745,1.355-26.441,2.075-44.223,2.163c-13.36,0.066-26.364-0.441-39.103-1.515c-12.741-1.079-24.052-2.692-33.938-4.838
						c-9.885-2.151-17.985-4.808-24.346-7.971c-6.315-3.168-9.863-6.804-10.598-10.917l-39.545-0.406
						c-3.485-0.021-6.569-0.294-9.342-0.822c-2.728-0.528-4.117-1.228-4.121-2.106l-0.019-3.954l54.066,0.515
						c2.393-4.167,7.29-7.8,14.781-10.89c7.492-3.094,16.637-5.846,27.438-8.254l18.109,2.486c5.499,0.773,8.229,1.677,8.235,2.715
						c0.002,0.561-1.111,1.254-3.386,2.084c-2.319,0.831-4.996,1.824-8.117,2.976c-3.077,1.157-6.109,2.508-9.006,4.063
						c-2.941,1.55-5.121,3.308-6.587,5.275L1102.942,2976.631z M969.55,2982.021c1.085,2.594,3.508,4.825,7.182,6.705
						c3.673,1.883,8.238,3.427,13.74,4.639c5.501,1.211,11.672,2.098,18.511,2.665c6.884,0.565,14.079,0.833,21.585,0.796
						c8.758-0.043,16.396-0.422,22.916-1.132c6.476-0.715,12.19-1.679,17.144-2.903c4.908-1.224,9.236-2.64,12.891-4.259
						c3.656-1.617,6.909-3.369,9.849-5.261L969.55,2982.021z M1286.857,2978.485c-1.085-2.629-3.732-4.932-7.852-6.913
						c-4.121-1.973-9.401-3.64-15.797-4.984c-6.396-1.349-13.862-2.351-22.4-3.007c-8.493-0.655-17.877-0.96-28.153-0.91
						c-9.115,0.045-17.022,0.455-23.586,1.223c-6.565,0.774-12.279,1.806-17.142,3.113c-4.819,1.301-8.967,2.819-12.31,4.552
						c-3.387,1.733-6.551,3.587-9.445,5.562L1286.857,2978.485z"/>
				</g>
				
					<linearGradient id="SVGID_00000077296918367078315670000006926138794358740921_" gradientUnits="userSpaceOnUse" x1="517.5561" y1="1090.0951" x2="533.392" y2="1222.665" gradientTransform="matrix(-1 0 0 -1 1669.249 4127.8389)">
					<stop  offset="0.0036" style="stop-color:#F36F56"/>
					<stop  offset="0.3059" style="stop-color:#F99C4C"/>
					<stop  offset="0.545" style="stop-color:#FDB946"/>
					<stop  offset="0.6817" style="stop-color:#FFC444"/>
					<stop  offset="0.8038" style="stop-color:#FFC244"/>
					<stop  offset="0.8667" style="stop-color:#FEBA46"/>
					<stop  offset="0.916" style="stop-color:#FCAD49"/>
					<stop  offset="0.958" style="stop-color:#F99A4D"/>
					<stop  offset="0.9955" style="stop-color:#F58152"/>
					<stop  offset="1" style="stop-color:#F57E53"/>
				</linearGradient>
				<path style="fill:url(#SVGID_00000077296918367078315670000006926138794358740921_);" d="M1143.311,2924.177
					c-190.214,0-388.268,16.738-419.949,49.139c1.24,1.144,2.392,2.364,3.463,3.646c26.703-22.496,190.241-45.146,416.486-45.146
					c232.054,0,398.214,23.831,418.342,46.881c0.989-1.264,2.046-2.475,3.19-3.614
					C1538.677,2941.534,1336.904,2924.177,1143.311,2924.177z"/>
			</g>
			<g>
				
					<linearGradient id="SVGID_00000118356439870447864210000006166713657790729875_" gradientUnits="userSpaceOnUse" x1="597.8812" y1="2941.3076" x2="1579.4385" y2="2941.3076">
					<stop  offset="0" style="stop-color:#F57E53"/>
					<stop  offset="0.0045" style="stop-color:#F58152"/>
					<stop  offset="0.042" style="stop-color:#F99A4D"/>
					<stop  offset="0.084" style="stop-color:#FCAD49"/>
					<stop  offset="0.1333" style="stop-color:#FEBA46"/>
					<stop  offset="0.1962" style="stop-color:#FFC244"/>
					<stop  offset="0.3183" style="stop-color:#FFC444"/>
					<stop  offset="0.455" style="stop-color:#FDB946"/>
					<stop  offset="0.6941" style="stop-color:#F99C4C"/>
					<stop  offset="0.9964" style="stop-color:#F36F56"/>
				</linearGradient>
				<path style="fill:url(#SVGID_00000118356439870447864210000006166713657790729875_);" d="M670.82,2866.316v94.622
					c0,30.576,190.995,55.361,426.6,55.361c235.606,0,426.601-24.785,426.601-55.361v-94.622H670.82z"/>
				
					<linearGradient id="SVGID_00000026142424763632504990000006393941648355707013_" gradientUnits="userSpaceOnUse" x1="1093.1708" y1="2830.739" x2="1144.9176" y2="3263.9358">
					<stop  offset="0" style="stop-color:#FFDB44"/>
					<stop  offset="1" style="stop-color:#FEEF06"/>
				</linearGradient>
				
					<ellipse style="fill:url(#SVGID_00000026142424763632504990000006393941648355707013_);" cx="1097.42" cy="2866.316" rx="426.6" ry="55.362"/>
				
					<linearGradient id="SVGID_00000075884202615326529190000004713828398748605351_" gradientUnits="userSpaceOnUse" x1="1090.9204" y1="2811.4209" x2="1106.8126" y2="2944.4617">
					<stop  offset="0" style="stop-color:#FFDB44"/>
					<stop  offset="1" style="stop-color:#FEEF06"/>
				</linearGradient>
				<path style="fill:url(#SVGID_00000075884202615326529190000004713828398748605351_);" d="M1097.419,2925.495
					c-208.659,0-426.849-19.93-426.849-58.37c0-2.112,0.753-5.821,2.864-5.821c2.111,0,1.203,2.902,1.203,5.013
					c0,24.378,173.63,51.539,422.781,51.539c249.151,0,422.781-27.161,422.781-51.539c0-2.111,0.36-4.089,2.471-4.089
					c2.11,0,1.602,2.816,1.602,4.928C1524.273,2905.596,1306.078,2925.495,1097.419,2925.495z"/>
				<g>
					<path style="fill:#FCB048;" d="M1057.108,2869.402c4.186-2.898,8.64-5.753,13.407-8.576c4.722-2.818,10.876-5.365,18.326-7.64
						c7.495-2.275,16.869-4.125,28.122-5.561c11.252-1.435,25.323-2.192,42.123-2.275c16.487-0.081,31.95,0.443,46.432,1.573
						c14.438,1.123,27.18,2.813,38.182,5.055c10.958,2.244,19.908,5.019,26.805,8.316c6.852,3.306,10.937,7.091,12.253,11.356
						l48.035,0.487c3.486,0.021,6.57,0.304,9.209,0.852c2.683,0.548,3.983,1.239,3.987,2.078l0.02,3.956l-61.753-0.595
						c-2.165,4.843-7.684,9.275-16.556,13.293c-8.827,4.023-20.114,7.502-33.862,10.447l-22.49-3.128
						c-2.012-0.307-3.667-0.699-4.966-1.175c-1.297-0.472-1.926-0.986-1.928-1.547c-0.004-0.761,1.735-1.627,5.215-2.6
						c3.48-0.978,7.406-2.187,11.778-3.628c4.372-1.436,8.652-3.135,12.888-5.096c4.191-1.957,6.995-4.297,8.455-7.021
						l-145.757-1.445c-3.828,2.818-8.149,5.584-12.871,8.305c-4.769,2.72-11.056,5.17-18.91,7.345
						c-7.852,2.174-17.63,3.94-29.329,5.299c-11.745,1.355-26.441,2.075-44.224,2.162c-13.36,0.066-26.365-0.44-39.104-1.514
						c-12.74-1.079-24.051-2.692-33.937-4.838c-9.885-2.151-17.985-4.808-24.346-7.971c-6.315-3.169-9.863-6.804-10.598-10.917
						l-39.545-0.406c-3.485-0.022-6.569-0.294-9.343-0.822c-2.727-0.528-4.116-1.229-4.121-2.107l-0.019-3.954l54.066,0.515
						c2.393-4.167,7.29-7.8,14.781-10.89c7.491-3.094,16.637-5.846,27.438-8.254l18.109,2.486c5.499,0.772,8.229,1.677,8.235,2.715
						c0.003,0.561-1.112,1.254-3.386,2.084c-2.32,0.83-4.996,1.824-8.118,2.976c-3.077,1.156-6.108,2.508-9.005,4.063
						c-2.941,1.551-5.122,3.308-6.587,5.275L1057.108,2869.402z M923.717,2874.792c1.085,2.594,3.508,4.825,7.182,6.705
						c3.672,1.883,8.238,3.427,13.74,4.639c5.501,1.211,11.672,2.098,18.51,2.664c6.884,0.565,14.08,0.833,21.585,0.796
						c8.757-0.043,16.396-0.422,22.916-1.132c6.475-0.714,12.19-1.679,17.144-2.903c4.909-1.224,9.236-2.64,12.891-4.258
						c3.656-1.617,6.909-3.369,9.848-5.261L923.717,2874.792z M1241.025,2871.256c-1.085-2.629-3.732-4.932-7.853-6.912
						c-4.12-1.973-9.401-3.64-15.797-4.985c-6.395-1.349-13.862-2.351-22.399-3.006c-8.493-0.656-17.877-0.961-28.154-0.911
						c-9.114,0.046-17.021,0.455-23.585,1.223c-6.565,0.774-12.279,1.806-17.143,3.113c-4.82,1.301-8.967,2.818-12.31,4.552
						c-3.387,1.733-6.551,3.587-9.444,5.562L1241.025,2871.256z"/>
				</g>
				
					<linearGradient id="SVGID_00000039856823178394178940000003273869529603566242_" gradientUnits="userSpaceOnUse" x1="563.3893" y1="1197.3247" x2="579.2252" y2="1329.8947" gradientTransform="matrix(-1 0 0 -1 1669.249 4127.8389)">
					<stop  offset="0.0036" style="stop-color:#F36F56"/>
					<stop  offset="0.3059" style="stop-color:#F99C4C"/>
					<stop  offset="0.545" style="stop-color:#FDB946"/>
					<stop  offset="0.6817" style="stop-color:#FFC444"/>
					<stop  offset="0.8038" style="stop-color:#FFC244"/>
					<stop  offset="0.8667" style="stop-color:#FEBA46"/>
					<stop  offset="0.916" style="stop-color:#FCAD49"/>
					<stop  offset="0.958" style="stop-color:#F99A4D"/>
					<stop  offset="0.9955" style="stop-color:#F58152"/>
					<stop  offset="1" style="stop-color:#F57E53"/>
				</linearGradient>
				<path style="fill:url(#SVGID_00000039856823178394178940000003273869529603566242_);" d="M1097.478,2816.947
					c-190.214,0-388.269,16.738-419.95,49.139c1.241,1.144,2.393,2.364,3.464,3.646c26.702-22.496,190.24-45.146,416.486-45.146
					c232.054,0,398.215,23.83,418.342,46.881c0.989-1.264,2.045-2.475,3.19-3.614
					C1492.844,2834.304,1291.071,2816.947,1097.478,2816.947z"/>
			</g>
			<g>
				
					<linearGradient id="SVGID_00000139273167023596126020000011024827594380713124_" gradientUnits="userSpaceOnUse" x1="479.2879" y1="2841.9194" x2="1460.8461" y2="2841.9194">
					<stop  offset="0" style="stop-color:#F57E53"/>
					<stop  offset="0.0045" style="stop-color:#F58152"/>
					<stop  offset="0.042" style="stop-color:#F99A4D"/>
					<stop  offset="0.084" style="stop-color:#FCAD49"/>
					<stop  offset="0.1333" style="stop-color:#FEBA46"/>
					<stop  offset="0.1962" style="stop-color:#FFC244"/>
					<stop  offset="0.3183" style="stop-color:#FFC444"/>
					<stop  offset="0.455" style="stop-color:#FDB946"/>
					<stop  offset="0.6941" style="stop-color:#F99C4C"/>
					<stop  offset="0.9964" style="stop-color:#F36F56"/>
				</linearGradient>
				<path style="fill:url(#SVGID_00000139273167023596126020000011024827594380713124_);" d="M552.227,2766.928v94.622
					c0,30.576,190.996,55.362,426.601,55.362c235.605,0,426.601-24.786,426.601-55.362v-94.622H552.227z"/>
				
					<linearGradient id="SVGID_00000157299528117367010340000001594368902330962860_" gradientUnits="userSpaceOnUse" x1="974.5779" y1="2731.3506" x2="1026.3246" y2="3164.5459">
					<stop  offset="0" style="stop-color:#FFDB44"/>
					<stop  offset="1" style="stop-color:#FEEF06"/>
				</linearGradient>
				
					<ellipse style="fill:url(#SVGID_00000157299528117367010340000001594368902330962860_);" cx="978.828" cy="2766.927" rx="426.601" ry="55.362"/>
				
					<linearGradient id="SVGID_00000044152345236508018190000011828616336469029046_" gradientUnits="userSpaceOnUse" x1="972.3276" y1="2712.0315" x2="988.2199" y2="2845.073">
					<stop  offset="0" style="stop-color:#FFDB44"/>
					<stop  offset="1" style="stop-color:#FEEF06"/>
				</linearGradient>
				<path style="fill:url(#SVGID_00000044152345236508018190000011828616336469029046_);" d="M978.826,2826.106
					c-208.658,0-426.849-19.93-426.849-58.371c0-2.111,0.754-5.821,2.864-5.821c2.112,0,1.203,2.902,1.203,5.014
					c0,24.379,173.631,51.54,422.781,51.54s422.781-27.161,422.781-51.54c0-2.112,0.36-4.09,2.471-4.09
					c2.112,0,1.602,2.817,1.602,4.928C1405.681,2806.207,1187.485,2826.106,978.826,2826.106z"/>
				<g>
					<path style="fill:#FCB048;" d="M938.515,2770.013c4.186-2.898,8.641-5.754,13.407-8.577c4.722-2.817,10.876-5.364,18.327-7.639
						c7.495-2.275,16.87-4.126,28.121-5.561c11.253-1.436,25.324-2.192,42.124-2.275c16.487-0.081,31.948,0.444,46.431,1.572
						c14.438,1.125,27.18,2.813,38.183,5.055c10.957,2.244,19.907,5.019,26.804,8.316c6.852,3.307,10.937,7.091,12.253,11.357
						l48.035,0.487c3.485,0.021,6.569,0.303,9.209,0.852c2.683,0.547,3.982,1.239,3.987,2.078l0.019,3.955l-61.753-0.594
						c-2.165,4.843-7.683,9.275-16.555,13.292c-8.827,4.024-20.115,7.502-33.862,10.447l-22.49-3.128
						c-2.012-0.307-3.667-0.699-4.965-1.175c-1.299-0.472-1.927-0.986-1.929-1.547c-0.004-0.76,1.734-1.627,5.215-2.6
						c3.48-0.978,7.406-2.187,11.778-3.627c4.371-1.437,8.653-3.135,12.888-5.097c4.19-1.956,6.993-4.297,8.454-7.02l-145.757-1.446
						c-3.828,2.818-8.149,5.585-12.872,8.305c-4.767,2.72-11.056,5.17-18.908,7.345c-7.854,2.175-17.63,3.939-29.33,5.299
						c-11.744,1.356-26.441,2.075-44.224,2.162c-13.359,0.066-26.364-0.44-39.103-1.515c-12.74-1.078-24.052-2.691-33.937-4.837
						c-9.885-2.15-17.985-4.808-24.346-7.971c-6.316-3.168-9.863-6.804-10.598-10.916l-39.545-0.406
						c-3.486-0.022-6.57-0.295-9.342-0.822c-2.729-0.528-4.118-1.229-4.121-2.106l-0.02-3.955l54.067,0.515
						c2.393-4.167,7.29-7.8,14.781-10.89c7.491-3.094,16.637-5.846,27.438-8.254l18.108,2.486c5.5,0.773,8.229,1.676,8.235,2.715
						c0.003,0.56-1.11,1.254-3.386,2.084c-2.318,0.831-4.995,1.824-8.117,2.975c-3.078,1.156-6.11,2.509-9.007,4.063
						c-2.941,1.551-5.121,3.308-6.587,5.276L938.515,2770.013z M805.124,2775.403c1.084,2.595,3.508,4.826,7.182,6.705
						c3.673,1.884,8.238,3.427,13.74,4.639c5.502,1.212,11.672,2.098,18.512,2.664c6.883,0.566,14.078,0.833,21.585,0.797
						c8.758-0.044,16.396-0.422,22.916-1.133c6.475-0.714,12.19-1.678,17.143-2.903c4.909-1.224,9.236-2.64,12.892-4.258
						c3.656-1.618,6.909-3.37,9.849-5.262L805.124,2775.403z M1122.432,2771.866c-1.085-2.629-3.733-4.931-7.853-6.911
						c-4.121-1.975-9.401-3.642-15.796-4.985c-6.396-1.349-13.863-2.351-22.401-3.007c-8.493-0.656-17.877-0.961-28.153-0.91
						c-9.115,0.044-17.021,0.454-23.586,1.222c-6.564,0.774-12.278,1.807-17.142,3.113c-4.819,1.302-8.967,2.819-12.309,4.552
						c-3.388,1.732-6.551,3.587-9.446,5.563L1122.432,2771.866z"/>
				</g>
				
					<linearGradient id="SVGID_00000176032061911050568520000011794908804110527883_" gradientUnits="userSpaceOnUse" x1="681.9816" y1="1296.7142" x2="697.8174" y2="1429.2832" gradientTransform="matrix(-1 0 0 -1 1669.249 4127.8389)">
					<stop  offset="0.0036" style="stop-color:#F36F56"/>
					<stop  offset="0.3059" style="stop-color:#F99C4C"/>
					<stop  offset="0.545" style="stop-color:#FDB946"/>
					<stop  offset="0.6817" style="stop-color:#FFC444"/>
					<stop  offset="0.8038" style="stop-color:#FFC244"/>
					<stop  offset="0.8667" style="stop-color:#FEBA46"/>
					<stop  offset="0.916" style="stop-color:#FCAD49"/>
					<stop  offset="0.958" style="stop-color:#F99A4D"/>
					<stop  offset="0.9955" style="stop-color:#F58152"/>
					<stop  offset="1" style="stop-color:#F57E53"/>
				</linearGradient>
				<path style="fill:url(#SVGID_00000176032061911050568520000011794908804110527883_);" d="M978.886,2717.559
					c-190.214,0-388.269,16.738-419.949,49.14c1.24,1.143,2.392,2.362,3.462,3.645c26.703-22.497,190.241-45.146,416.487-45.146
					c232.054,0,398.214,23.83,418.341,46.881c0.989-1.264,2.046-2.474,3.191-3.614
					C1374.252,2734.915,1172.478,2717.559,978.886,2717.559z"/>
			</g>
			<g>
				
					<linearGradient id="SVGID_00000012447210748044245270000017453536753593103251_" gradientUnits="userSpaceOnUse" x1="581.6179" y1="2742.8213" x2="1563.176" y2="2742.8213">
					<stop  offset="0" style="stop-color:#F57E53"/>
					<stop  offset="0.0045" style="stop-color:#F58152"/>
					<stop  offset="0.042" style="stop-color:#F99A4D"/>
					<stop  offset="0.084" style="stop-color:#FCAD49"/>
					<stop  offset="0.1333" style="stop-color:#FEBA46"/>
					<stop  offset="0.1962" style="stop-color:#FFC244"/>
					<stop  offset="0.3183" style="stop-color:#FFC444"/>
					<stop  offset="0.455" style="stop-color:#FDB946"/>
					<stop  offset="0.6941" style="stop-color:#F99C4C"/>
					<stop  offset="0.9964" style="stop-color:#F36F56"/>
				</linearGradient>
				<path style="fill:url(#SVGID_00000012447210748044245270000017453536753593103251_);" d="M654.556,2667.829v94.623
					c0,30.575,190.995,55.361,426.601,55.361c235.605,0,426.602-24.786,426.602-55.361v-94.623H654.556z"/>
				
					<linearGradient id="SVGID_00000098201851443315810070000003334033989982805916_" gradientUnits="userSpaceOnUse" x1="1076.9071" y1="2632.2524" x2="1128.6538" y2="3065.4478">
					<stop  offset="0" style="stop-color:#FFDB44"/>
					<stop  offset="1" style="stop-color:#FEEF06"/>
				</linearGradient>
				<path style="fill:url(#SVGID_00000098201851443315810070000003334033989982805916_);" d="M1507.758,2667.829
					c0,30.575-190.996,55.361-426.601,55.361c-235.605,0-426.601-24.786-426.601-55.361c0-30.575,190.997-55.362,426.601-55.362
					C1316.762,2612.468,1507.758,2637.255,1507.758,2667.829z"/>
				
					<linearGradient id="SVGID_00000085219838579095853890000001223566578473030800_" gradientUnits="userSpaceOnUse" x1="1074.6571" y1="2612.9333" x2="1090.5494" y2="2745.9751">
					<stop  offset="0" style="stop-color:#FFDB44"/>
					<stop  offset="1" style="stop-color:#FEEF06"/>
				</linearGradient>
				<path style="fill:url(#SVGID_00000085219838579095853890000001223566578473030800_);" d="M1081.156,2727.008
					c-208.658,0-426.848-19.93-426.848-58.371c0-2.111,0.753-5.822,2.864-5.822c2.111,0,1.203,2.902,1.203,5.013
					c0,24.379,173.631,51.54,422.781,51.54s422.781-27.161,422.781-51.54c0-2.111,0.36-4.089,2.47-4.089
					c2.112,0,1.602,2.817,1.602,4.927C1508.01,2707.109,1289.815,2727.008,1081.156,2727.008z"/>
				<g>
					<path style="fill:#FCB048;" d="M1040.845,2670.915c4.186-2.898,8.64-5.754,13.407-8.577c4.722-2.818,10.876-5.364,18.326-7.64
						c7.495-2.275,16.87-4.125,28.122-5.56c11.252-1.436,25.324-2.193,42.123-2.275c16.486-0.081,31.949,0.443,46.431,1.571
						c14.438,1.125,27.18,2.813,38.182,5.056c10.958,2.244,19.908,5.019,26.805,8.315c6.852,3.307,10.937,7.091,12.253,11.357
						l48.035,0.486c3.486,0.023,6.57,0.304,9.209,0.852c2.683,0.547,3.983,1.239,3.987,2.078l0.019,3.955l-61.752-0.594
						c-2.166,4.844-7.685,9.275-16.556,13.293c-8.828,4.022-20.115,7.501-33.861,10.446l-22.491-3.128
						c-2.012-0.307-3.667-0.698-4.965-1.176c-1.298-0.471-1.926-0.985-1.929-1.546c-0.004-0.761,1.735-1.627,5.215-2.601
						c3.48-0.978,7.406-2.187,11.778-3.628c4.371-1.435,8.653-3.134,12.888-5.096c4.19-1.957,6.994-4.297,8.454-7.02l-145.757-1.446
						c-3.829,2.818-8.149,5.585-12.872,8.305c-4.767,2.72-11.056,5.17-18.908,7.344c-7.854,2.176-17.63,3.94-29.329,5.299
						c-11.745,1.356-26.441,2.076-44.224,2.164c-13.359,0.065-26.364-0.441-39.103-1.516c-12.74-1.078-24.052-2.691-33.937-4.837
						c-9.885-2.151-17.985-4.809-24.346-7.972c-6.316-3.169-9.863-6.804-10.598-10.916l-39.545-0.406
						c-3.486-0.023-6.57-0.294-9.342-0.822c-2.729-0.528-4.117-1.229-4.121-2.106l-0.019-3.956l54.066,0.514
						c2.393-4.167,7.29-7.8,14.781-10.889c7.491-3.095,16.637-5.846,27.438-8.255l18.108,2.486c5.5,0.773,8.23,1.676,8.235,2.714
						c0.003,0.561-1.11,1.254-3.385,2.085c-2.318,0.83-4.995,1.824-8.117,2.976c-3.077,1.156-6.109,2.507-9.006,4.063
						c-2.941,1.551-5.122,3.307-6.587,5.276L1040.845,2670.915z M907.453,2676.304c1.085,2.595,3.508,4.825,7.183,6.705
						c3.673,1.885,8.238,3.427,13.739,4.639c5.502,1.211,11.672,2.098,18.512,2.664c6.883,0.566,14.078,0.833,21.584,0.796
						c8.758-0.042,16.396-0.422,22.916-1.132c6.476-0.715,12.19-1.679,17.143-2.903c4.909-1.224,9.236-2.64,12.892-4.257
						c3.656-1.618,6.909-3.371,9.849-5.263L907.453,2676.304z M1224.761,2672.768c-1.085-2.628-3.733-4.932-7.853-6.911
						c-4.121-1.975-9.401-3.642-15.797-4.985c-6.396-1.35-13.863-2.352-22.401-3.007c-8.492-0.656-17.877-0.961-28.153-0.911
						c-9.115,0.045-17.021,0.454-23.586,1.223c-6.564,0.774-12.278,1.806-17.141,3.113c-4.819,1.301-8.967,2.819-12.31,4.551
						c-3.387,1.733-6.55,3.589-9.446,5.563L1224.761,2672.768z"/>
				</g>
				
					<linearGradient id="SVGID_00000183965770534219228770000005322345029119718532_" gradientUnits="userSpaceOnUse" x1="579.6523" y1="1395.8123" x2="595.4882" y2="1528.3811" gradientTransform="matrix(-1 0 0 -1 1669.249 4127.8389)">
					<stop  offset="0.0036" style="stop-color:#F36F56"/>
					<stop  offset="0.3059" style="stop-color:#F99C4C"/>
					<stop  offset="0.545" style="stop-color:#FDB946"/>
					<stop  offset="0.6817" style="stop-color:#FFC444"/>
					<stop  offset="0.8038" style="stop-color:#FFC244"/>
					<stop  offset="0.8667" style="stop-color:#FEBA46"/>
					<stop  offset="0.916" style="stop-color:#FCAD49"/>
					<stop  offset="0.958" style="stop-color:#F99A4D"/>
					<stop  offset="0.9955" style="stop-color:#F58152"/>
					<stop  offset="1" style="stop-color:#F57E53"/>
				</linearGradient>
				<path style="fill:url(#SVGID_00000183965770534219228770000005322345029119718532_);" d="M1081.215,2618.461
					c-190.214,0-388.269,16.738-419.949,49.14c1.24,1.142,2.392,2.362,3.462,3.646c26.702-22.497,190.241-45.147,416.487-45.147
					c232.054,0,398.214,23.83,418.341,46.881c0.989-1.264,2.047-2.474,3.191-3.613
					C1476.581,2635.817,1274.808,2618.461,1081.215,2618.461z"/>
			</g>
			<g>
				
					<linearGradient id="SVGID_00000156555612999759583610000007980982520502787485_" gradientUnits="userSpaceOnUse" x1="528.3921" y1="2643.4321" x2="1509.9492" y2="2643.4321">
					<stop  offset="0" style="stop-color:#F57E53"/>
					<stop  offset="0.0045" style="stop-color:#F58152"/>
					<stop  offset="0.042" style="stop-color:#F99A4D"/>
					<stop  offset="0.084" style="stop-color:#FCAD49"/>
					<stop  offset="0.1333" style="stop-color:#FEBA46"/>
					<stop  offset="0.1962" style="stop-color:#FFC244"/>
					<stop  offset="0.3183" style="stop-color:#FFC444"/>
					<stop  offset="0.455" style="stop-color:#FDB946"/>
					<stop  offset="0.6941" style="stop-color:#F99C4C"/>
					<stop  offset="0.9964" style="stop-color:#F36F56"/>
				</linearGradient>
				<path style="fill:url(#SVGID_00000156555612999759583610000007980982520502787485_);" d="M601.331,2568.441v94.622
					c0,30.576,190.995,55.361,426.601,55.361c235.606,0,426.601-24.785,426.601-55.361v-94.622H601.331z"/>
				
					<linearGradient id="SVGID_00000134947229820265154960000006213858753659391166_" gradientUnits="userSpaceOnUse" x1="1023.6815" y1="2532.8635" x2="1075.4283" y2="2966.0605">
					<stop  offset="0" style="stop-color:#FFDB44"/>
					<stop  offset="1" style="stop-color:#FEEF06"/>
				</linearGradient>
				<path style="fill:url(#SVGID_00000134947229820265154960000006213858753659391166_);" d="M1454.532,2568.441
					c0,30.575-190.995,55.361-426.601,55.361c-235.605,0-426.6-24.785-426.6-55.361c0-30.576,190.995-55.362,426.6-55.362
					C1263.537,2513.079,1454.532,2537.865,1454.532,2568.441z"/>
				
					<linearGradient id="SVGID_00000160176324815341398750000014750846074613954492_" gradientUnits="userSpaceOnUse" x1="1021.4316" y1="2513.5439" x2="1037.324" y2="2646.5862">
					<stop  offset="0" style="stop-color:#FFDB44"/>
					<stop  offset="1" style="stop-color:#FEEF06"/>
				</linearGradient>
				<path style="fill:url(#SVGID_00000160176324815341398750000014750846074613954492_);" d="M1027.931,2627.619
					c-208.659,0-426.849-19.93-426.849-58.371c0-2.11,0.753-5.822,2.864-5.822c2.111,0,1.203,2.902,1.203,5.014
					c0,24.378,173.63,51.54,422.781,51.54c249.15,0,422.781-27.162,422.781-51.54c0-2.112,0.36-4.089,2.471-4.089
					c2.112,0,1.602,2.817,1.602,4.928C1454.784,2607.72,1236.589,2627.619,1027.931,2627.619z"/>
				<g>
					<path style="fill:#FCB048;" d="M987.62,2571.526c4.185-2.897,8.639-5.753,13.407-8.576c4.723-2.817,10.875-5.365,18.326-7.64
						c7.495-2.275,16.87-4.126,28.122-5.561c11.253-1.435,25.323-2.191,42.123-2.274c16.487-0.081,31.949,0.443,46.432,1.571
						c14.438,1.125,27.18,2.813,38.182,5.056c10.958,2.243,19.909,5.019,26.806,8.315c6.852,3.308,10.936,7.092,12.253,11.358
						l48.035,0.486c3.485,0.022,6.569,0.304,9.209,0.853c2.683,0.548,3.982,1.238,3.986,2.077l0.019,3.956l-61.752-0.595
						c-2.166,4.844-7.684,9.275-16.555,13.293c-8.828,4.023-20.115,7.502-33.862,10.447l-22.49-3.128
						c-2.012-0.306-3.667-0.698-4.965-1.176c-1.298-0.471-1.926-0.985-1.929-1.545c-0.004-0.761,1.734-1.628,5.215-2.602
						c3.48-0.977,7.407-2.187,11.778-3.627c4.372-1.436,8.653-3.135,12.887-5.097c4.191-1.957,6.995-4.296,8.456-7.021
						l-145.756-1.445c-3.829,2.817-8.149,5.584-12.872,8.305c-4.767,2.72-11.056,5.17-18.91,7.345
						c-7.852,2.174-17.63,3.938-29.329,5.298c-11.745,1.355-26.441,2.075-44.224,2.163c-13.36,0.064-26.364-0.442-39.104-1.516
						c-12.739-1.078-24.052-2.691-33.937-4.837c-9.885-2.151-17.984-4.809-24.345-7.972c-6.316-3.168-9.864-6.804-10.599-10.916
						l-39.545-0.406c-3.485-0.021-6.569-0.294-9.342-0.822c-2.728-0.528-4.117-1.229-4.121-2.106l-0.02-3.956l54.067,0.515
						c2.393-4.167,7.289-7.8,14.78-10.889c7.492-3.095,16.637-5.847,27.439-8.256l18.108,2.487c5.499,0.773,8.23,1.677,8.235,2.715
						c0.003,0.562-1.111,1.254-3.386,2.084c-2.319,0.831-4.995,1.824-8.117,2.976c-3.078,1.156-6.109,2.507-9.006,4.062
						c-2.941,1.55-5.122,3.307-6.587,5.275L987.62,2571.526z M854.228,2576.916c1.085,2.594,3.509,4.825,7.182,6.704
						c3.673,1.885,8.238,3.428,13.74,4.639c5.501,1.212,11.672,2.098,18.511,2.665c6.883,0.566,14.079,0.833,21.585,0.796
						c8.758-0.043,16.396-0.422,22.917-1.132c6.475-0.715,12.189-1.679,17.143-2.904c4.909-1.223,9.236-2.639,12.892-4.257
						c3.656-1.618,6.909-3.37,9.849-5.262L854.228,2576.916z M1171.536,2573.379c-1.086-2.627-3.733-4.931-7.853-6.911
						c-4.12-1.975-9.401-3.641-15.796-4.985c-6.396-1.348-13.863-2.35-22.4-3.007c-8.493-0.656-17.877-0.96-28.154-0.91
						c-9.114,0.044-17.021,0.453-23.585,1.222c-6.564,0.773-12.279,1.806-17.143,3.113c-4.819,1.302-8.967,2.819-12.309,4.552
						c-3.387,1.733-6.55,3.588-9.445,5.563L1171.536,2573.379z"/>
				</g>
				
					<linearGradient id="SVGID_00000114786060525444930410000011526705999198766478_" gradientUnits="userSpaceOnUse" x1="632.8777" y1="1495.2007" x2="648.7136" y2="1627.7705" gradientTransform="matrix(-1 0 0 -1 1669.249 4127.8389)">
					<stop  offset="0.0036" style="stop-color:#F36F56"/>
					<stop  offset="0.3059" style="stop-color:#F99C4C"/>
					<stop  offset="0.545" style="stop-color:#FDB946"/>
					<stop  offset="0.6817" style="stop-color:#FFC444"/>
					<stop  offset="0.8038" style="stop-color:#FFC244"/>
					<stop  offset="0.8667" style="stop-color:#FEBA46"/>
					<stop  offset="0.916" style="stop-color:#FCAD49"/>
					<stop  offset="0.958" style="stop-color:#F99A4D"/>
					<stop  offset="0.9955" style="stop-color:#F58152"/>
					<stop  offset="1" style="stop-color:#F57E53"/>
				</linearGradient>
				<path style="fill:url(#SVGID_00000114786060525444930410000011526705999198766478_);" d="M1027.989,2519.071
					c-190.213,0-388.269,16.738-419.949,49.14c1.24,1.143,2.392,2.363,3.463,3.646c26.702-22.497,190.24-45.147,416.486-45.147
					c232.054,0,398.214,23.83,418.342,46.881c0.989-1.264,2.045-2.474,3.19-3.614
					C1423.354,2536.429,1221.582,2519.071,1027.989,2519.071z"/>
			</g>
			<g>
				
					<linearGradient id="SVGID_00000166653777651817100740000009749206598298198175_" gradientUnits="userSpaceOnUse" x1="1812.703" y1="2248.8967" x2="2794.2661" y2="2248.8967" gradientTransform="matrix(0.5796 0.8149 -0.8149 0.5796 2214.3765 -230.3409)">
					<stop  offset="0" style="stop-color:#F57E53"/>
					<stop  offset="0.0045" style="stop-color:#F58152"/>
					<stop  offset="0.042" style="stop-color:#F99A4D"/>
					<stop  offset="0.084" style="stop-color:#FCAD49"/>
					<stop  offset="0.1333" style="stop-color:#FEBA46"/>
					<stop  offset="0.1962" style="stop-color:#FFC244"/>
					<stop  offset="0.3183" style="stop-color:#FFC444"/>
					<stop  offset="0.455" style="stop-color:#FDB946"/>
					<stop  offset="0.6941" style="stop-color:#F99C4C"/>
					<stop  offset="0.9964" style="stop-color:#F36F56"/>
				</linearGradient>
				<path style="fill:url(#SVGID_00000166653777651817100740000009749206598298198175_);" d="M1535.763,2566.276l-77.105,54.846
					c-24.916,17.723,65.593,187.728,202.156,379.719c136.563,191.991,267.467,333.263,292.383,315.54l77.105-54.845
					L1535.763,2566.276z"/>
				
					<linearGradient id="SVGID_00000039838323870995243300000007705021456794868637_" gradientUnits="userSpaceOnUse" x1="2307.9941" y1="2138.3389" x2="2359.7346" y2="2571.4814" gradientTransform="matrix(0.5796 0.8149 -0.8149 0.5796 2214.3765 -230.3409)">
					<stop  offset="0" style="stop-color:#FFDB44"/>
					<stop  offset="1" style="stop-color:#FEEF06"/>
				</linearGradient>
				<path style="fill:url(#SVGID_00000039838323870995243300000007705021456794868637_);" d="M2030.302,3261.535
					c-24.914,17.722-155.819-123.551-292.382-315.541c-136.564-191.99-227.072-361.996-202.157-379.718
					c24.915-17.722,155.82,123.551,292.382,315.54C1964.709,3073.807,2055.218,3243.813,2030.302,3261.535z"/>
				
					<linearGradient id="SVGID_00000127006752881620933560000006589119719675555502_" gradientUnits="userSpaceOnUse" x1="2305.7456" y1="2119.0293" x2="2321.6353" y2="2252.0479" gradientTransform="matrix(0.5796 0.8149 -0.8149 0.5796 2214.3765 -230.3409)">
					<stop  offset="0" style="stop-color:#FFDB44"/>
					<stop  offset="1" style="stop-color:#FEEF06"/>
				</linearGradient>
				<path style="fill:url(#SVGID_00000127006752881620933560000006589119719675555502_);" d="M1734.808,2948.207
					c-120.944-170.033-231.172-359.384-199.848-381.665c1.72-1.223,5.18-2.761,6.403-1.04c1.223,1.721-1.668,2.663-3.388,3.887
					c-19.866,14.131,58.643,171.362,203.057,374.389c144.415,203.029,267.189,328.775,287.055,314.644
					c1.72-1.224,3.54-2.077,4.764-0.357c1.224,1.721-1.367,2.939-3.088,4.162
					C1998.439,3284.507,1855.752,3118.238,1734.808,2948.207z"/>
				<g>
					<path style="fill:#FCB048;" d="M1757.152,2882.844c4.788,1.731,9.696,3.706,14.76,5.954
						c5.033,2.216,10.675,5.753,16.848,10.505c6.199,4.79,13.14,11.355,20.832,19.693c7.693,8.338,16.465,19.365,26.269,33.007
						c9.622,13.389,18.158,26.293,25.633,38.748c7.452,12.416,13.463,23.779,18.011,34.045c4.524,10.229,7.45,19.131,8.761,26.663
						c1.277,7.5,0.56,13.022-2.152,16.567l27.445,39.424c2.002,2.854,3.561,5.53,4.644,7.999c1.109,2.504,1.299,3.963,0.617,4.452
						l-3.211,2.309l-35.309-50.666c-5.202,1.043-12.012-0.885-20.429-5.786c-8.395-4.861-17.772-12.042-28.14-21.538l-10.487-20.14
						c-0.917-1.817-1.556-3.393-1.92-4.728c-0.368-1.331-0.313-2.14,0.142-2.468c0.617-0.444,2.331,0.471,5.142,2.742
						c2.814,2.269,6.075,4.767,9.783,7.495c3.704,2.73,7.569,5.234,11.623,7.548c4.024,2.281,7.555,3.208,10.621,2.82
						l-83.307-119.612c-4.515-1.487-9.275-3.403-14.228-5.675c-4.981-2.309-10.622-6.013-16.945-11.152
						c-6.324-5.139-13.429-12.083-21.318-20.828c-7.912-8.786-17.017-20.344-27.396-34.784
						c-7.797-10.849-14.921-21.739-21.431-32.743c-6.504-11.007-11.747-21.159-15.728-30.459
						c-3.977-9.302-6.507-17.443-7.616-24.459c-1.078-6.983-0.172-11.981,2.753-14.964l-22.59-32.46
						c-2.002-2.853-3.567-5.524-4.744-8.089c-1.151-2.529-1.386-4.067-0.673-4.579l3.211-2.308l30.919,44.357
						c4.782-0.466,10.58,1.419,17.441,5.732c6.863,4.312,14.407,10.169,22.63,17.574l8.47,16.197
						c2.558,4.93,3.404,7.678,2.561,8.285c-0.457,0.328-1.666-0.178-3.661-1.551c-2.021-1.409-4.382-3.013-7.13-4.89
						c-2.725-1.838-5.584-3.524-8.531-4.984c-2.968-1.498-5.664-2.257-8.116-2.31L1757.152,2882.844z M1675.442,2777.27
						c-1.484,2.388-1.897,5.656-1.3,9.74c0.594,4.085,1.982,8.698,4.184,13.885c2.202,5.185,5.056,10.728,8.559,16.629
						c3.529,5.936,7.481,11.954,11.863,18.05c5.11,7.111,9.847,13.116,14.205,18.018c4.336,4.862,8.434,8.959,12.302,12.287
						c3.843,3.291,7.505,5.997,10.941,8.038c3.438,2.041,6.751,3.676,9.997,4.975L1675.442,2777.27z M1862.245,3033.789
						c1.512-2.408,1.855-5.9,1.08-10.406c-0.78-4.502-2.483-9.771-5.095-15.762c-2.608-5.994-6.119-12.659-10.533-19.996
						c-4.388-7.301-9.58-15.125-15.577-23.469c-5.319-7.402-10.236-13.607-14.667-18.512c-4.435-4.9-8.589-8.958-12.473-12.165
						c-3.854-3.173-7.495-5.673-10.845-7.392c-3.375-1.755-6.72-3.259-10.007-4.473L1862.245,3033.789z"/>
				</g>
				
					<linearGradient id="SVGID_00000030453298127650063270000000610008512613695371_" gradientUnits="userSpaceOnUse" x1="-650.866" y1="1889.2882" x2="-635.033" y2="2021.8333" gradientTransform="matrix(-0.5796 -0.8149 0.8149 -0.5796 -181.2018 3522.6223)">
					<stop  offset="0.0036" style="stop-color:#F36F56"/>
					<stop  offset="0.3059" style="stop-color:#F99C4C"/>
					<stop  offset="0.545" style="stop-color:#FDB946"/>
					<stop  offset="0.6817" style="stop-color:#FFC444"/>
					<stop  offset="0.8038" style="stop-color:#FFC244"/>
					<stop  offset="0.8667" style="stop-color:#FEBA46"/>
					<stop  offset="0.916" style="stop-color:#FCAD49"/>
					<stop  offset="0.958" style="stop-color:#F99A4D"/>
					<stop  offset="0.9955" style="stop-color:#F58152"/>
					<stop  offset="1" style="stop-color:#F57E53"/>
				</linearGradient>
				<path style="fill:url(#SVGID_00000030453298127650063270000000610008512613695371_);" d="M1823.296,2885.337
					c-110.254-155.002-238.691-306.691-283.457-313.726c-0.213,1.674-0.539,3.319-0.964,4.935
					c33.809,8.72,147.058,128.855,278.196,313.219c134.505,189.097,211.397,338.31,204.28,368.073
					c1.603,0.072,3.202,0.232,4.794,0.505C2038.317,3217.573,1935.508,3043.092,1823.296,2885.337z"/>
			</g>
		</g>
		<g>
			
				<linearGradient id="SVGID_00000149343268038431661860000004283234266153597886_" gradientUnits="userSpaceOnUse" x1="-1014.4744" y1="1739.9231" x2="-199.2392" y2="2293.6672" gradientTransform="matrix(-1 0 0 1 230.2854 0)">
				<stop  offset="0" style="stop-color:#311944"/>
				<stop  offset="1" style="stop-color:#6B3976"/>
			</linearGradient>
			<path style="fill:url(#SVGID_00000149343268038431661860000004283234266153597886_);" d="M1199.97,2034.47
				c15.336-9.944,1.362-38.869,0.537-100.999c-1.012-76.136,19.209-90.324,2.967-120.194
				c-19.86-36.526-69.853-51.642-102.976-52.354c-7.305-0.157-9.012-4.146-70.214,11.703
				c-110.261,28.556-137.864-2.055-187.241,28.522c-47.705,29.544-26.815,61.899-73.14,96.547
				c-75.089,56.161-154.052-4.556-207.719,42.421c-50.762,44.434-51.93,157.642,1.462,219.423
				c60.529,70.037,169.672,48.995,242.826,35.107c15.392-2.921,93.132-19.247,174.076-78.99
				c44.777-33.052,75.522-68.346,95.083-94.352c4.591-5.166,11.754-11.426,21.211-12.433c11.352-1.212,20.472,5.732,24.867,8.776
				C1144.788,2033.627,1184.905,2044.236,1199.97,2034.47z"/>
			
				<linearGradient id="SVGID_00000091009905178194361180000012793955843539735967_" gradientUnits="userSpaceOnUse" x1="1261.2874" y1="2062.3271" x2="1282.3212" y2="2400.3691">
				<stop  offset="0" style="stop-color:#FF9085"/>
				<stop  offset="1" style="stop-color:#FB6FBB"/>
			</linearGradient>
			<path style="fill:url(#SVGID_00000091009905178194361180000012793955843539735967_);" d="M1384.908,2248.759
				c-2.027-6.113-2.416-11.078-1.195-14.918c-3.723-4.718-7.14-9.285-10.249-13.647c-47.814-67.072-43.602-110.847-98.391-164.837
				c-46.636-45.955-117.006-80.58-136.725-62.615c-24.649,22.458,33.891,123.385,77.946,199.337
				c43.896,75.68,66.749,114.111,111.168,143.116c26.274,17.156,53.319,27.461,78.493,33.515
				C1402.347,2328.211,1391.829,2288.791,1384.908,2248.759z"/>
			
				<linearGradient id="SVGID_00000153673240376265873550000002341583008950110611_" gradientUnits="userSpaceOnUse" x1="-1375.0151" y1="3019.6589" x2="-1265.2225" y2="3019.6589" gradientTransform="matrix(-1 0 0 1 230.2854 0)">
				<stop  offset="0" style="stop-color:#311944"/>
				<stop  offset="1" style="stop-color:#6B3976"/>
			</linearGradient>
			<path style="fill:url(#SVGID_00000153673240376265873550000002341583008950110611_);" d="M1582.795,3019.626l-54.932-33.007
				h-24.792c0,0-8.445,31.437-7.487,33.007c11.045,18.1,62.474,31.87,94.567,33.008c5.328,0.189,12.764,0.217,14.685-3.645
				C1608.09,3042.449,1593.554,3028.73,1582.795,3019.626z"/>
			
				<linearGradient id="SVGID_00000110428820444245360100000001082306287896089760_" gradientUnits="userSpaceOnUse" x1="-1323.2363" y1="3062.9275" x2="-1159.4351" y2="2571.5222" gradientTransform="matrix(-1 0 0 1 230.2854 0)">
				<stop  offset="0" style="stop-color:#FFC444"/>
				<stop  offset="0.9964" style="stop-color:#F36F56"/>
			</linearGradient>
			<path style="fill:url(#SVGID_00000110428820444245360100000001082306287896089760_);" d="M1526.89,2950.6
				c-3.531,20.434,0.936,31.088,5.75,37.056c3.389,4.2,6.398,5.395,26.512,22.781c6.651,5.751,10.035,8.83,9.266,10.442
				c-0.879,1.844-6.749,0.843-19.424-2.204c-27.621-6.643-41.502-10.099-44.891-16.747c-3.068-6.019-0.356-8.733-0.534-25.134
				c-0.117-10.797-2.312-19.488-4.039-24.925C1508.651,2951.445,1517.77,2951.023,1526.89,2950.6z"/>
			
				<linearGradient id="SVGID_00000080919901007164132620000010233394707251734939_" gradientUnits="userSpaceOnUse" x1="-1357.5391" y1="2818.0642" x2="-1290.3932" y2="2818.0642" gradientTransform="matrix(-1 0 0 1 230.2854 0)">
				<stop  offset="0" style="stop-color:#311944"/>
				<stop  offset="1" style="stop-color:#6B3976"/>
			</linearGradient>
			<path style="fill:url(#SVGID_00000080919901007164132620000010233394707251734939_);" d="M1566.6,2788.653
				c0,0,24.819,29.614,20.78,62.079c-4.039,32.463-47.503-15-53.562-31.04c-6.061-16.04-13.14-38.894-13.14-38.894
				S1551.158,2761.836,1566.6,2788.653z"/>
			
				<linearGradient id="SVGID_00000137133067625725315520000014985585638718609041_" gradientUnits="userSpaceOnUse" x1="-1396.455" y1="3002.4346" x2="-1286.8127" y2="2673.5071" gradientTransform="matrix(-1 0 0 1 230.2854 0)">
				<stop  offset="0" style="stop-color:#FFC444"/>
				<stop  offset="0.9964" style="stop-color:#F36F56"/>
			</linearGradient>
			<path style="fill:url(#SVGID_00000137133067625725315520000014985585638718609041_);" d="M1557.133,2742.317
				c0,0-6.733,34.501,6.109,52.71c6.396,9.069,15.023,16.762,12.486,24.144c-1.7,4.948-8.156,8.502-13.624,7.941
				c-10.469-1.075-16.273-17.126-20.367-28.446c-6.045-16.721-9.416-52.501-9.416-52.501L1557.133,2742.317z"/>
			
				<linearGradient id="SVGID_00000121989850702386900810000007486856726085882756_" gradientUnits="userSpaceOnUse" x1="-1261.3553" y1="2448.2712" x2="-1179.5765" y2="2921.0562" gradientTransform="matrix(-1 0 0 1 230.2854 0)">
				<stop  offset="0" style="stop-color:#AB316D"/>
				<stop  offset="1" style="stop-color:#792D3D"/>
			</linearGradient>
			<path style="fill:url(#SVGID_00000121989850702386900810000007486856726085882756_);" d="M1537.353,2771.401
				c7.633-2.779,15.266-5.561,22.898-8.341c11.907-27.197,26.439-71.867,21.585-126.162
				c-12.483-139.63-141.626-213.622-155.972-221.541c-35.186,17.654-70.825,42.559-72.116,73.955
				c-1.62,39.412,52.071,60.246,102.543,117.877C1486.586,2641.781,1518.958,2693.327,1537.353,2771.401z"/>
			
				<linearGradient id="SVGID_00000152970887821548988490000004944816331337774773_" gradientUnits="userSpaceOnUse" x1="-1145.8643" y1="3008.5903" x2="-1029.5842" y2="2640.5833" gradientTransform="matrix(-1 0 0 1 230.2854 0)">
				<stop  offset="0" style="stop-color:#AB316D"/>
				<stop  offset="1" style="stop-color:#792D3D"/>
			</linearGradient>
			<path style="fill:url(#SVGID_00000152970887821548988490000004944816331337774773_);" d="M1529.125,2966.571
				c25.219-98.513,18.776-178.902,11.501-225.213c-10.996-69.995-33.361-212.373-128.42-265.464
				c-20.758-11.594-50.433-21.976-86.601-54.208c-30.203-26.917-49.401-55.226-60.984-75.17
				c-127.129-37.293-244.388-22.18-296.131,46.001c-5.978,7.879-20.947,24.967-23.842,50.164
				c-6.534,56.852,49.328,125.297,112.01,139.59c79.664,18.166,125.881-63.634,196.462-36.418
				c19.744,7.612,36.482,26.478,69.96,64.209c42.589,47.998,66.529,92.289,75.587,110.011
				c26.969,52.773,47.422,91.73,50.405,142.218c0.694,11.761,1.109,35.524,14.886,61.152c10.575,19.673,24.909,32.79,35.573,40.894
				C1509.396,2965.083,1519.261,2965.829,1529.125,2966.571z"/>
			
				<linearGradient id="SVGID_00000021829850535577865610000001792049022280181934_" gradientUnits="userSpaceOnUse" x1="-1145.854" y1="3008.5945" x2="-1029.5739" y2="2640.5872" gradientTransform="matrix(-1 0 0 1 230.2854 0)">
				<stop  offset="0" style="stop-color:#AB316D"/>
				<stop  offset="1" style="stop-color:#792D3D"/>
			</linearGradient>
			<path style="opacity:0.3;fill:url(#SVGID_00000021829850535577865610000001792049022280181934_);" d="M944.648,2442.683
				c2.895-25.198,17.864-42.286,23.842-50.164c51.743-68.181,169.002-83.294,296.131-46.001
				c11.583,19.944,30.781,48.253,60.984,75.17c36.169,32.232,65.844,42.614,86.602,54.208
				c58.047,32.42,88.96,98.124,106.759,160.319c-26.408-40.945-49.013-51.83-66.507-52.025
				c-25.04-0.278-36.228,21.131-66.127,18.208c-31.957-3.123-39.263-29.547-65.167-32.583c-7.754-0.908-17.294,0.288-28.752,6.388
				c-15.291-16.011-26.688-25.489-39.292-30.347c-70.581-27.216-116.798,54.583-196.462,36.418
				C993.975,2567.98,938.114,2499.535,944.648,2442.683z"/>
			
				<linearGradient id="SVGID_00000060000225906640846920000008651275394871269019_" gradientUnits="userSpaceOnUse" x1="-982.2319" y1="2400.5535" x2="-900.6415" y2="2872.249" gradientTransform="matrix(-1 0 0 1 230.2854 0)">
				<stop  offset="0" style="stop-color:#AB316D"/>
				<stop  offset="1" style="stop-color:#792D3D"/>
			</linearGradient>
			<path style="fill:url(#SVGID_00000060000225906640846920000008651275394871269019_);" d="M1463.257,2519.956
				c-14.389-0.764-36.547-1.207-63.276,1.434c-126.848,12.535-161.817,75.28-266.654,90.591
				c-24.8,3.623-135.22,19.75-183.046-44.084c-34.335-45.828-29.14-124.795,8.415-155.854c15.894-13.145,31.63-12.78,133.421-11.859
				c38.334,0.347,76.67,0.471,115.003,0.959c162.266,2.068,193.298-9.17,222.822,17.669
				C1443.715,2431.333,1463.855,2458.226,1463.257,2519.956z"/>
			<g>
				<g>
					
						<linearGradient id="SVGID_00000004511863088815769300000005913942740579681949_" gradientUnits="userSpaceOnUse" x1="795.503" y1="2111.1453" x2="1671.2853" y2="2431.8545">
						<stop  offset="0" style="stop-color:#FF9085"/>
						<stop  offset="1" style="stop-color:#FB6FBB"/>
					</linearGradient>
					<path style="fill:url(#SVGID_00000004511863088815769300000005913942740579681949_);" d="M1305.892,2355.283
						c0,0-67.243,13.135-143.643,26.926c-101.72,18.352-219.713,37.835-216.795,28.933c23.204-71.219,7.151-121.824-10.361-173.341
						c-15.544-45.898-32.254-92.49-23.388-155.062c19.63-138.644,208.988-83.406,208.988-83.406
						c61.367,2.445,68.08,8.939,73.736,15.142c39.257,43.381,50.167,93.876,50.167,93.876c9.741,45.242-1.277,62.645,0,100.918
						C1245.765,2244.186,1257.075,2294.426,1305.892,2355.283z"/>
				</g>
			</g>
			<g>
				
					<linearGradient id="SVGID_00000049905464059609876980000009892232560878377897_" gradientUnits="userSpaceOnUse" x1="2975.8308" y1="1835.229" x2="2984.1631" y2="1613.2875" gradientTransform="matrix(0.984 0.1784 -0.1784 0.984 -1518.1509 -244.2395)">
					<stop  offset="0" style="stop-color:#FFC444"/>
					<stop  offset="0.9964" style="stop-color:#F36F56"/>
				</linearGradient>
				<path style="fill:url(#SVGID_00000049905464059609876980000009892232560878377897_);" d="M1079.572,1916.251
					c1.735,8.104,10.564,51.59-7.228,62.779c-3.857,2.427-11.267,3.814-26.089,6.593c-9.704,1.819-17.846,2.934-23.588,3.621
					c0.829,7.292,3.286,19.161,11.701,29.957c23.59,30.265,70.89,22.434,77.636,21.204c23.792-4.332,47.204-11.683,52.859-16.176
					c8.609-6.841,15.378-11.974,19.382-17.188c-9.208-4.449-27.796-16.183-40.271-20.023c-9.323-2.868-18.074-4.915-26.035-6.384
					c-1.308-8.4-2.618-16.8-3.927-25.201C1102.532,1942.371,1091.052,1929.312,1079.572,1916.251z"/>
				
					<linearGradient id="SVGID_00000118379869169075088450000008915425689608030102_" gradientUnits="userSpaceOnUse" x1="2973.2307" y1="1639.2983" x2="2969.6641" y2="1926.6545" gradientTransform="matrix(0.984 0.1784 -0.1784 0.984 -1518.1509 -244.2395)">
					<stop  offset="0" style="stop-color:#FFC444"/>
					<stop  offset="0.9964" style="stop-color:#F36F56"/>
				</linearGradient>
				<path style="fill:url(#SVGID_00000118379869169075088450000008915425689608030102_);" d="M1078.739,1937.923
					c0,0,3.215,31.868,34.193,37.484c27.737,5.028,48.616-61.998,34.422-79.335c-4.735-5.783-16.424-11.285-26.558-10.994
					c-7.127,0.206-31.2,9.374-34.559,33.461c-4.794-5.051-10.768-6.503-13.714-4.388c-3.736,2.683-1.735,10.484-1.28,12.251
					C1072.815,1932.527,1076.813,1936.322,1078.739,1937.923z"/>
			</g>
			<g>
				
					<linearGradient id="SVGID_00000031184169562951228460000012809578923649052549_" gradientUnits="userSpaceOnUse" x1="5158.8618" y1="-2549.3828" x2="5376.1602" y2="-2333.823" gradientTransform="matrix(-3.000000e-04 1.0058 -0.9942 -0.1144 -1106.2683 -3309.4854)">
					<stop  offset="0" style="stop-color:#40447E"/>
					<stop  offset="0.9964" style="stop-color:#3C3B6B"/>
				</linearGradient>
				<path style="fill:url(#SVGID_00000031184169562951228460000012809578923649052549_);" d="M1427.824,2090.852l-7.474,300.3
					c-0.221,8.885-6.367,16.338-16.171,19.613l-199.446,66.627c-15.742,5.259-31.841-6.972-30.996-23.547l14.369-281.717
					c0.443-8.678,6.427-15.957,15.914-19.353l204.283-73.116C1416.997,2076.547,1428.023,2082.868,1427.824,2090.852z"/>
				
					<linearGradient id="SVGID_00000120538556233246656220000007387121721706735275_" gradientUnits="userSpaceOnUse" x1="5182.8877" y1="-2525.5493" x2="5382.9536" y2="-2327.0842" gradientTransform="matrix(-3.000000e-04 1.0058 -0.9942 -0.1144 -1106.2683 -3309.4854)">
					<stop  offset="0" style="stop-color:#40447E"/>
					<stop  offset="0.9964" style="stop-color:#3C3B6B"/>
				</linearGradient>
				<path style="opacity:0.3;fill:url(#SVGID_00000120538556233246656220000007387121721706735275_);" d="M1404.178,2410.766
					c9.806-3.276,15.951-10.729,16.172-19.614l0.163-6.581c-12.3-2.399-23.552-6.677-32.635-13.671
					c-28.358-21.833-10.853-50.671-40.862-77.12c-32.965-29.053-72.222-10.235-102.903-36.35
					c-32.292-27.488-5.983-62.901-26.64-109.467l-13.453,4.815c-9.488,3.395-15.472,10.673-15.915,19.351l-14.52,284.688
					c-0.773,15.147,13.94,26.324,28.325,21.519L1404.178,2410.766z"/>
			</g>
			
				<linearGradient id="SVGID_00000046326942303538010520000014334167768002289068_" gradientUnits="userSpaceOnUse" x1="2836.498" y1="2423.9341" x2="2771.1062" y2="2485.5574" gradientTransform="matrix(-0.9813 -0.1926 -0.1926 0.9813 4658.3887 434.301)">
				<stop  offset="0" style="stop-color:#FFC444"/>
				<stop  offset="0.9964" style="stop-color:#F36F56"/>
			</linearGradient>
			<path style="fill:url(#SVGID_00000046326942303538010520000014334167768002289068_);" d="M1425.865,2257.643
				c-9.258-2.223-25.199,12.279-24.95,28.247c0.21,13.419,11.845,27.081,21.41,25.921c6.007-0.729,9.725-7.125,11.072-9.444
				C1442.659,2286.428,1436.622,2260.227,1425.865,2257.643z"/>
			
				<linearGradient id="SVGID_00000150092555678735921750000000069289491283803300_" gradientUnits="userSpaceOnUse" x1="935.0937" y1="2272.3152" x2="1222.524" y2="2272.3152">
				<stop  offset="0" style="stop-color:#FF9085"/>
				<stop  offset="1" style="stop-color:#FB6FBB"/>
			</linearGradient>
			<path style="opacity:0.3;fill:url(#SVGID_00000150092555678735921750000000069289491283803300_);" d="M1112.229,2374.839
				c18.973,3.174,35.757,5.509,50.021,7.37c-101.72,18.352-219.713,37.835-216.795,28.933
				c23.204-71.219,7.151-121.824-10.361-173.341c21.344-57.282,45.352-104.457,67.168-106.537c0,0,4.671,88.513,42.981,96.722
				c38.309,8.209,167.832-41.046,176.953,0C1231.317,2269.032,1046.956,2363.894,1112.229,2374.839z"/>
			<g>
				
					<linearGradient id="SVGID_00000171720670053849773850000009081232892009301390_" gradientUnits="userSpaceOnUse" x1="-213.5181" y1="1568.5913" x2="-193.3739" y2="1892.3361" gradientTransform="matrix(0.9524 -0.3051 0.3051 0.9524 612.3726 564.0681)">
					<stop  offset="0" style="stop-color:#FF9085"/>
					<stop  offset="1" style="stop-color:#FB6FBB"/>
				</linearGradient>
				<path style="fill:url(#SVGID_00000171720670053849773850000009081232892009301390_);" d="M1127.166,2360.713
					c1.781-10.501,3.565-21.001,5.346-31.504c-43.111-3.186-102.941-8.649-165.044-17.993c-9.727-1.464-21.314-3.367-26.73-12.236
					c-15.237-24.952,38.215-65.947,55.462-128.458c18.542-67.203-7.158-151.872-35.228-156.506
					c-56.661-9.354-215.218,292.17-123.829,381.91C887.487,2445.362,1008.881,2425.816,1127.166,2360.713z"/>
			</g>
			
				<linearGradient id="SVGID_00000072991213469273412960000009504337040210306993_" gradientUnits="userSpaceOnUse" x1="17.7432" y1="1922.5326" x2="-87.5564" y2="2021.7639" gradientTransform="matrix(0.9813 -0.1926 0.1926 0.9813 808.0061 434.301)">
				<stop  offset="0" style="stop-color:#FFC444"/>
				<stop  offset="0.9964" style="stop-color:#F36F56"/>
			</linearGradient>
			<path style="fill:url(#SVGID_00000072991213469273412960000009504337040210306993_);" d="M1132.512,2329.209
				c23.004-18.685,56.491-10.736,58.656-10.188c6.165,1.556,15.31,4.688,25.272,11.536c1.189,1.096,15.36,14.346,12.273,20.089
				c-2.475,4.602-15.718,3.79-32.708-2.655c-6.521,0.356-16.13,1.394-27.245,4.658c-20.409,5.998-28.642,14.435-37.301,10.248
				c-6.34-3.064-9.946-11.468-9.238-18.381C1122.983,2337.089,1128.619,2332.372,1132.512,2329.209z"/>
		</g>
	</g>
</g>
</svg>
