<?xml version="1.0" encoding="utf-8"?>
<!-- Generator: Adobe Illustrator 27.5.0, SVG Export Plug-In . SVG Version: 6.00 Build 0)  -->
<svg version="1.1" xmlns="http://www.w3.org/2000/svg" xmlns:xlink="http://www.w3.org/1999/xlink" x="0px" y="0px"
	 viewBox="0 0 3710 3710" style="enable-background:new 0 0 3710 3710;" xml:space="preserve">
<g id="Background">
	<g>
		<g>
			<rect style="fill:#FFFFFF;" width="3710" height="3710"/>
		</g>
	</g>
</g>
<g id="Illustration">
	<g>
		<path style="fill:#F4F7FA;" d="M3166.501,1509.153c-73.06-478.209-372.604-1065.723-964.385-1127.207
			c0,0-449.309-54.652-892.229,28.178c-262.873,49.159-493.374,195.497-639.226,405.82
			c-145.853,210.323-194.573,466.783-135.445,711.287c38.403,158.807,64.353,323.166,57.231,486.35
			c-12.395,284.006-5.264,549.105,270.358,718.478c246.098,151.232,555.816,284.612,851.291,307.974
			c200.803,15.876,425.991-9.815,619.527-62.094C3319.926,2711.507,3239.561,1987.362,3166.501,1509.153z"/>
		<g>
			<g>
				<defs>
					<path id="SVGID_1_" d="M1173.453,2826.669c159.965-140.113,340.03-343.324,441.574-610.987
						c25.915-68.308,186.002-490.283,3.222-609.227c-64.385-41.898-116.938-10.812-203.854-65.488
						c-102.988-64.787-95.123-149.901-163.005-284.432c-40.505-80.273-159.044-315.196-358.087-326.602
						c-118.943-6.815-261.253,66.494-327.008,166.135c-96.449,146.152-9.297,320.314,143.166,613.155
						c135.153,259.592,199.841,295.285,293.971,483.46C1073.292,2332.34,1151.623,2540.501,1173.453,2826.669z"/>
				</defs>
				
					<linearGradient id="SVGID_00000053524550466224649730000014959836852632714139_" gradientUnits="userSpaceOnUse" x1="1815.9063" y1="1533.7957" x2="1203.119" y2="1789.9139">
					<stop  offset="0" style="stop-color:#FF9085"/>
					<stop  offset="1" style="stop-color:#FB6FBB"/>
				</linearGradient>
				
					<use xlink:href="#SVGID_1_"  style="overflow:visible;fill:url(#SVGID_00000053524550466224649730000014959836852632714139_);"/>
				<clipPath id="SVGID_00000031188068418112577600000010082984970825867656_">
					<use xlink:href="#SVGID_1_"  style="overflow:visible;"/>
				</clipPath>
				<g style="opacity:0.5;clip-path:url(#SVGID_00000031188068418112577600000010082984970825867656_);">
					<path style="fill:#FFFFFF;" d="M542.621,3483.208l-3.046-6.491c222.722-104.478,396.113-250.768,515.355-434.805
						c158.865-245.195,209.226-547.956,149.679-899.873c-62.019-366.551-227.718-694.578-355.8-905.212
						c-88.78-146.006-224.021-274.778-401.97-382.74l3.718-6.13c178.943,108.564,314.996,238.148,404.379,385.145
						c128.407,211.169,294.534,540.072,356.745,907.74c59.852,353.745,9.137,658.221-150.736,904.97
						C940.964,3230.99,766.575,3378.152,542.621,3483.208z"/>
					<path style="fill:#FFFFFF;" d="M1075.848,1678.483l-3.504-0.686c-1.022-0.199-103.883-20.76-228.996-80.616
						c-115.541-55.273-274.326-156.345-374.624-323.941l6.155-3.683c99.378,166.067,256.909,266.309,371.565,321.158
						c111.386,53.288,204.84,75.19,223.783,79.31c106.418-538.171-161.474-807.599-246.277-877.46
						c-2.535-2.087-3.438-2.839-3.963-3.389l5.188-4.95l-2.594,2.475l2.587-2.482c0.312,0.315,1.782,1.526,3.34,2.811
						c85.769,70.656,357.13,343.505,248.041,887.952L1075.848,1678.483z"/>
					<path style="fill:#FFFFFF;" d="M1207.399,2139.357l-1.74-0.756c-2.955-1.281-298.525-131.768-557.377-436.546l-261.306-307.669
						l5.461-4.642l261.306,307.669c247.449,291.351,528.441,422.706,553.05,433.843c131.362-83.34,298.707-226.444,353.857-436.42
						c33.059-125.859,9.67-217.103,9.428-218.01l6.932-1.834c0.245,0.924,24.108,94-9.425,221.665
						c-30.892,117.617-118.181,289.723-358.583,441.688L1207.399,2139.357z"/>
				</g>
			</g>
		</g>
		<g>
			<g>
				<defs>
					<path id="SVGID_00000005232564418517481340000017185596302476353166_" d="M485.851,2734.371
						c135.876-89.2,320.99-240.274,434.603-479.727c149.001-314.039,44.108-504.17,156.684-1060.218
						c71.18-351.584,124.398-596.229,325.484-696.97c157.58-78.944,387.1-60.063,507.52,59.6
						c100.125,99.497,136.546,280.319,135.588,404.687c-0.781,101.36-26.432,170.579,21.295,232.371
						c48.776,63.15,116.654,44.058,164.059,92.798c96.138,98.845-13.603,351.562-31.339,392.406
						c-197.295,454.34-690.152,697.993-906.419,801.686C1114.509,2566.743,842.133,2675.043,485.851,2734.371z"/>
				</defs>
				
					<linearGradient id="SVGID_00000067956707513143652930000015811860195019265461_" gradientUnits="userSpaceOnUse" x1="714.3582" y1="1016.4003" x2="1703.571" y2="2299.1169">
					<stop  offset="0.0036" style="stop-color:#E38DDD"/>
					<stop  offset="1" style="stop-color:#9571F6"/>
				</linearGradient>
				
					<use xlink:href="#SVGID_00000005232564418517481340000017185596302476353166_"  style="overflow:visible;fill:url(#SVGID_00000067956707513143652930000015811860195019265461_);"/>
				<clipPath id="SVGID_00000153695913012662893300000016967496211567051413_">
					<use xlink:href="#SVGID_00000005232564418517481340000017185596302476353166_"  style="overflow:visible;"/>
				</clipPath>
				<g style="opacity:0.5;clip-path:url(#SVGID_00000153695913012662893300000016967496211567051413_);">
					<path style="fill:#FFFFFF;" d="M336.874,2797.41l-1.358-7.04c216.323-41.693,406.921-103.162,566.49-182.696
						c235.42-117.334,396.061-271.063,477.464-456.914c63.745-145.53,78.011-305.204,97.76-526.208
						c15.761-176.401,11.021-302.831,6.841-414.381c-5.458-145.607-9.771-260.617,34.747-418.544
						c45.183-160.287,127.297-313.145,244.068-454.323l5.524,4.572c-116.129,140.401-197.782,292.377-242.688,451.698
						c-44.213,156.842-39.921,271.354-34.488,416.331c4.191,111.76,8.938,238.431-6.862,415.284
						c-19.063,213.34-34.12,381.847-98.334,528.448c-82.097,187.429-243.872,342.349-480.832,460.453
						C745.052,2693.915,553.838,2755.591,336.874,2797.41z"/>
					<path style="fill:#FFFFFF;" d="M1490.824,1498.798l-3.382-2.234c-1.064-0.704-107.566-71.972-202.245-210.872
						c-55.609-81.575-96.367-170.205-121.146-263.431c-30.969-116.518-36.917-240.556-17.676-368.673l7.093,1.064
						c-19.094,127.14-13.202,250.201,17.515,365.767c24.57,92.439,64.988,180.33,120.138,261.236
						c84.492,123.947,178.24,193.437,196.938,206.622c149.728-298.532,353.122-466.475,497.672-554.895
						c157.363-96.255,281.037-121.671,282.27-121.917l1.4,7.03c-1.218,0.245-123.891,25.497-280.222,121.181
						c-144.249,88.29-347.489,256.331-496.548,555.497L1490.824,1498.798z"/>
					<path style="fill:#FFFFFF;" d="M1436.182,1974.491l-1.078-2.37c-0.847-1.866-86.179-188.483-208.351-358.828
						c-121.696-169.687-456.557-279.655-459.925-280.747l2.206-6.82c3.392,1.096,340.473,111.785,463.545,283.387
						c115.093,160.472,197.582,335.306,207.955,357.659c197.834-24.104,436.101-247.796,601.464-431.655
						c180.235-200.393,315.063-397.969,316.404-399.943l5.931,4.033c-1.344,1.975-136.445,199.952-317.006,400.706
						c-106.096,117.968-206.919,213.82-299.666,284.896c-116.234,89.081-220.163,139.341-308.891,149.388L1436.182,1974.491z"/>
					<path style="fill:#FFFFFF;" d="M1029.772,2582.543c-31.862,0-49.815-0.917-50.371-0.949l-7.135-0.385l4.579-5.489
						c66.171-79.363,100.904-168.339,103.229-264.45c1.863-77.003-16.938-158.792-55.871-243.098
						c-66.416-143.811-169.697-246.224-170.734-247.243l5.027-5.111c1.043,1.026,105.256,104.363,172.215,249.347
						c39.399,85.311,58.42,168.171,56.53,246.277c-2.311,95.523-36.046,184.062-100.298,263.284
						c35.268,1.215,197.124,4.275,408.296-30.42c219.75-36.105,539.364-121.657,814.079-324.19l533.031-392.976l4.257,5.77
						l-533.031,392.976c-275.923,203.422-596.78,289.303-817.36,325.524C1232.781,2578.251,1098.73,2582.543,1029.772,2582.543z"/>
				</g>
			</g>
		</g>
		<g>
			<g>
				<defs>
					<path id="SVGID_00000062157578815313467190000000439363982065885340_" d="M1332.912,2595.722
						c208.317,42.712,479.047,63.288,753.645-17.647c70.078-20.655,502.987-148.251,487.229-365.754
						c-5.551-76.616-62.085-99.684-71.079-201.972c-10.657-121.203,61.896-166.396,128.016-301.801
						c39.454-80.795,154.917-317.244,43.666-482.689c-66.481-98.864-210.912-167.901-330.034-160.039
						c-174.728,11.532-260.767,186.247-401.855,484.734c-125.069,264.598-114.392,337.704-207.374,526.449
						C1666.116,2217.083,1547.661,2405.326,1332.912,2595.722z"/>
				</defs>
				
					<linearGradient id="SVGID_00000060730504071809720870000010129938144019566236_" gradientUnits="userSpaceOnUse" x1="3143.8887" y1="1432.4725" x2="1969.7212" y2="1923.2234">
					<stop  offset="0" style="stop-color:#FF9085"/>
					<stop  offset="1" style="stop-color:#FB6FBB"/>
				</linearGradient>
				
					<use xlink:href="#SVGID_00000062157578815313467190000000439363982065885340_"  style="overflow:visible;fill:url(#SVGID_00000060730504071809720870000010129938144019566236_);"/>
				<clipPath id="SVGID_00000178206045546057692330000017281888515296010671_">
					<use xlink:href="#SVGID_00000062157578815313467190000000439363982065885340_"  style="overflow:visible;"/>
				</clipPath>
				<g style="opacity:0.5;clip-path:url(#SVGID_00000178206045546057692330000017281888515296010671_);">
					<path style="fill:#FFFFFF;" d="M1008.584,2641.629c-193.315,0.003-388.033-50.799-580.024-151.471l3.333-6.351
						c190.934,100.12,384.571,150.645,576.705,150.652c27.111,0,54.163-1.005,81.204-3.018
						c291.358-21.692,562.968-164.617,807.291-424.807c254.483-271.011,415.596-601.313,505.941-830.681
						c62.625-158.988,83.438-344.569,61.854-551.586l7.128-0.742c21.706,208.173,0.742,394.888-62.31,554.954
						c-90.576,229.952-252.127,561.123-507.387,832.96c-245.59,261.544-518.782,405.223-811.986,427.051
						C1063.125,2640.617,1035.86,2641.629,1008.584,2641.629z"/>
					<path style="fill:#FFFFFF;" d="M2188.49,1823.814l-1.569-3.203c-0.462-0.938-46.272-95.302-74.234-231.146
						c-25.823-125.456-41.311-313.04,31.55-494.255l6.652,2.675c-72.196,179.559-56.803,365.645-31.179,490.134
						c24.895,120.943,63.948,208.624,72.119,226.202c493.022-240.595,545.673-616.872,550.049-726.657
						c0.133-3.28,0.182-4.453,0.304-5.206l7.079,1.134c-0.063,0.434-0.136,2.339-0.217,4.355
						c-4.429,111.036-57.702,492.147-557.342,734.408L2188.49,1823.814z"/>
					<path style="fill:#FFFFFF;" d="M2229.434,2272.154c-91.704,0-200.639-17.099-326.746-64.256l-1.775-0.665l-0.452-1.842
						c-0.763-3.13-75.515-317.451,10.762-707.903l87.093-394.153l7.002,1.547l-87.093,394.153
						c-82.479,373.245-17.232,676.482-11.224,702.819c145.674,54.198,360.67,100.974,561.161,18.18
						c120.376-49.706,179.174-123.712,179.755-124.455l5.65,4.411c-0.588,0.756-60.3,76.033-182.266,126.506
						C2412.13,2250.984,2331.447,2272.154,2229.434,2272.154z"/>
				</g>
			</g>
		</g>
		<g>
			<g>
				<path style="fill:#BFC8D6;" d="M3310.206,2708.808l-2770.998-23.952v70.87c0,19.236,12.086,35.592,28.455,38.507
					l783.555,139.556c9.299,1.656,18.729,2.095,28.112,1.31l1900.763-159.116c16.969-1.42,30.112-17.827,30.112-37.591V2708.808z"/>
				<g>
					<path style="fill:#BFC8D6;" d="M2335.529,1352.625V2538.21c0,14.956-4.402,28.912-13.113,39.265
						c-8.46,10.137-19.585,16.812-32.434,17.776l-1273.016,95.261l-474.473,36.472h-0.072l-3.214-1.277l-10.315-0.049
						c-31.519,2.32-57.541-23.109-57.541-55.842V1358.3c0-32.732,26.414-61.713,57.933-61.713h1761.173
						C2316.444,1296.587,2335.529,1323.033,2335.529,1352.625z"/>
					<path style="fill:#FFFFFF;" d="M2364.209,1352.625V2538.21c0,22.848-11.893,43.249-29.559,52.231
						c-0.26,0.132-0.19,0.263-0.452,0.39c-1.684,0.817-3.229,1.569-4.996,2.17c-0.392,0.143-0.704,0.286-1.096,0.429
						c-0.321,0.072-0.602,0.179-0.886,0.249c-1.286,0.394-2.55,0.68-3.871,0.929c-1.57,0.321-3.165,0.535-4.807,0.643l-8.919-0.184
						L1042.37,2687.55h-0.07l-484.958,36.521c-4.675,0.357-9.245,2.045-13.598,1.224c-0.429-0.072-0.823,1.689-1.25,1.689h-0.072
						c-1.072,0-2.241-1.99-3.313-2.311c-22.63-6.177-39.078-28.691-39.078-54.856V1358.3c0-32.732,25.827-61.713,57.346-61.713
						h1761.173C2344.537,1296.587,2364.209,1323.033,2364.209,1352.625z"/>
					<path style="fill:#D8DEE8;" d="M2263.691,2511.65L623.324,2624.267c-25.646,1.76-46.488-18.473-46.488-45.197V1430.841
						c0-26.724,20.842-48.479,46.488-48.589l1640.367-7.072c21.418-0.092,38.743,19.565,38.743,43.906v1045.831
						C2302.434,2489.257,2285.109,2510.18,2263.691,2511.65z"/>
					<path style="fill:#FFFFFF;" d="M1500.161,1334.906c0,12.186-9.065,22.094-20.259,22.129
						c-11.208,0.036-20.303-9.837-20.303-22.05c0-12.214,9.095-22.121,20.303-22.13
						C1491.096,1312.847,1500.161,1322.719,1500.161,1334.906z"/>
					<path style="opacity:0.48;fill:#FFFFFF;" d="M557.358,2724.884l1752.282-128.992l8.917-0.656
						c11.913-0.877,22.745-6.766,31.019-15.699c-126.096-6.901-204.417-51.649-254.939-97.886
						c-101.46-92.855-83.862-184.425-193.274-245.475c-136.467-76.148-243.771,20.341-347.327-74.86
						c-62.781-57.718-31.958-100.758-109.211-187.009c-85.563-95.531-141.268-63.419-227.258-149.397
						c-108.726-108.714-54.348-193.296-148.003-271.349c-113.617-94.69-236.147-7.049-344.301-97.859
						c-46.648-39.167-72.245-96.109-85.61-156.667h-82.288c-31.516,0-57.14,26.538-57.14,59.273v1311.51
						C500.224,2702.55,525.844,2727.199,557.358,2724.884z"/>
				</g>
				
					<linearGradient id="SVGID_00000150074861515271148360000016870966690072097208_" gradientUnits="userSpaceOnUse" x1="1186.4825" y1="2729.2434" x2="3957.4805" y2="2729.2434">
					<stop  offset="0.494" style="stop-color:#EBEFF2"/>
					<stop  offset="1" style="stop-color:#FFFFFF"/>
				</linearGradient>
				<path style="fill:url(#SVGID_00000150074861515271148360000016870966690072097208_);" d="M2401.537,2588.044L539.208,2724.511
					l812.01,144.624c9.299,1.656,18.729,2.096,28.112,1.31l1930.876-161.637l-879.045-119.836
					C2421.331,2587.631,2411.415,2587.32,2401.537,2588.044z"/>
				<polygon style="fill:#D8DEE8;" points="810.951,2725.685 2361.395,2610.379 2841.244,2675.268 1304.156,2798.525 				"/>
			</g>
		</g>
		<g>
			<g>
				
					<linearGradient id="SVGID_00000179637688775211031200000003536668423202287002_" gradientUnits="userSpaceOnUse" x1="1806.7755" y1="2401.9546" x2="638.769" y2="3813.7666" gradientTransform="matrix(0.9992 -0.04 0.04 0.9992 -520.3029 312.7343)">
					<stop  offset="0.0036" style="stop-color:#F36F56"/>
					<stop  offset="1" style="stop-color:#FFC444"/>
				</linearGradient>
				<path style="fill:url(#SVGID_00000179637688775211031200000003536668423202287002_);" d="M716.6,3012.911
					c-46.4,3.455-93.759-7.578-133.017-34.435c-86.956-59.474-100.616-173.345-30.355-253.543L1579.772,1544.9
					c33.597-38.332,83.484-60.691,136.63-61.368c52.908-0.674,103.856,20.206,139.755,57.151l374.985,385.897l389.914-464.805
					c58.324-69.533,163.839-77.844,235.547-19.244c71.271,58.24,82.756,161.111,25.777,230.43l-505.038,614.385
					c-31.458,38.271-78.546,61.768-129.172,64.336c-50.85,2.579-100.26-16.207-135.337-51.588l-379.037-382.309L863.847,2940.223
					C826.481,2983.781,772.231,3008.768,716.6,3012.911z"/>
				<g>
					
						<linearGradient id="SVGID_00000160869792462214866780000015271857985315393971_" gradientUnits="userSpaceOnUse" x1="2164.7283" y1="2698.0454" x2="996.7418" y2="4109.833" gradientTransform="matrix(0.9992 -0.04 0.04 0.9992 -520.3029 312.7343)">
						<stop  offset="0.0036" style="stop-color:#F36F56"/>
						<stop  offset="1" style="stop-color:#FFC444"/>
					</linearGradient>
					<polygon style="fill:url(#SVGID_00000160869792462214866780000015271857985315393971_);" points="2999.932,1754.548 
						2534.923,1378.388 3103.642,1161.743 3143.897,1160.13 3036.108,1749.546 					"/>
				</g>
			</g>
			<g>
				
					<linearGradient id="SVGID_00000153667337976445398770000018275581757060644768_" gradientUnits="userSpaceOnUse" x1="2386.9192" y1="1785.071" x2="-129.6004" y2="4204.8013" gradientTransform="matrix(0.9992 -0.04 0.04 0.9992 -520.3029 312.7343)">
					<stop  offset="0" style="stop-color:#FFC444"/>
					<stop  offset="0.9964" style="stop-color:#F36F56"/>
				</linearGradient>
				<path style="fill:url(#SVGID_00000153667337976445398770000018275581757060644768_);" d="M756.856,3011.299
					c-46.399,3.455-93.759-7.578-133.017-34.435c-86.956-59.474-100.617-173.345-30.355-253.543l1026.544-1180.033
					c33.597-38.332,83.484-60.691,136.63-61.368c52.907-0.674,103.856,20.206,139.755,57.151l374.985,385.897l389.914-464.805
					c58.324-69.533,163.839-77.844,235.547-19.244c71.271,58.24,82.756,161.111,25.776,230.43l-505.037,614.385
					c-31.458,38.27-78.546,61.768-129.173,64.336c-50.85,2.579-100.26-16.207-135.337-51.588l-379.036-382.309L904.103,2938.61
					C866.736,2982.169,812.487,3007.156,756.856,3011.299z"/>
				<g>
					
						<linearGradient id="SVGID_00000088852150730165999400000014847646500573520808_" gradientUnits="userSpaceOnUse" x1="2611.5652" y1="2018.7144" x2="95.0274" y2="4438.4624" gradientTransform="matrix(0.9992 -0.04 0.04 0.9992 -520.3029 312.7343)">
						<stop  offset="0" style="stop-color:#FFC444"/>
						<stop  offset="0.9964" style="stop-color:#F36F56"/>
					</linearGradient>
					<polygon style="fill:url(#SVGID_00000088852150730165999400000014847646500573520808_);" points="3036.108,1749.546 
						2575.178,1376.776 3143.897,1160.13 					"/>
				</g>
			</g>
		</g>
		<g>
			
				<linearGradient id="SVGID_00000004534700418451584010000003516648464361077161_" gradientUnits="userSpaceOnUse" x1="1046.3353" y1="2505.261" x2="1257.9216" y2="2825.0447">
				<stop  offset="0" style="stop-color:#AA80F9"/>
				<stop  offset="0.9964" style="stop-color:#6165D7"/>
			</linearGradient>
			<path style="fill:url(#SVGID_00000004534700418451584010000003516648464361077161_);" d="M1155.897,3098.426l256.926,41.865
				c5.375,0.876,10.837,1.103,16.266,0.675l20.989-1.654l-3.48-456.686l-290.701-10.319V3098.426z"/>
			
				<linearGradient id="SVGID_00000029761806391871665390000008768251954614785185_" gradientUnits="userSpaceOnUse" x1="1704.9054" y1="2695.5364" x2="1395.0974" y2="3218.7676">
				<stop  offset="0" style="stop-color:#AA80F9"/>
				<stop  offset="0.9964" style="stop-color:#6165D7"/>
			</linearGradient>
			<path style="fill:url(#SVGID_00000029761806391871665390000008768251954614785185_);" d="M1744.175,2699.427v397.746
				c0,14.231-10.932,25.858-25.073,26.699l-277.392,16.5c-11.221,0.667-20.795-8.651-20.795-20.216v-414.382
				c0-11.575,9.076-21.172,20.339-21.486l279.391-7.786C1733.604,2676.142,1744.175,2686.428,1744.175,2699.427z"/>
			
				<linearGradient id="SVGID_00000051350168678103839250000008071200423408923528_" gradientUnits="userSpaceOnUse" x1="1479.0485" y1="2530.7153" x2="1429.9679" y2="2703.6653">
				<stop  offset="0.0036" style="stop-color:#E38DDD"/>
				<stop  offset="1" style="stop-color:#9571F6"/>
			</linearGradient>
			<polygon style="fill:url(#SVGID_00000051350168678103839250000008071200423408923528_);" points="1155.897,2672.307 
				1420.916,2684.855 1720.646,2676.502 1413.351,2666.491 			"/>
			
				<linearGradient id="SVGID_00000127020178591856049010000000223923440363409297_" gradientUnits="userSpaceOnUse" x1="1726.6169" y1="2708.8584" x2="1414.0367" y2="3236.7717">
				<stop  offset="0.0036" style="stop-color:#E38DDD"/>
				<stop  offset="1" style="stop-color:#9571F6"/>
			</linearGradient>
			<path style="opacity:0.3;fill:url(#SVGID_00000127020178591856049010000000223923440363409297_);" d="M1720.251,2676.514
				l-218.811,6.097c-12.447,0.347-22.611,10.846-22.597,23.563c0.023,21.224,3.564,43.16,12.906,64.322
				c31.148,70.554,100.776,73.159,115.263,137.919c12.071,53.958-30.673,77.173-35.19,146.123
				c-1.186,18.113,0.381,37.598,5.773,58.488c2.839,10.996,13.062,18.487,24.207,17.824l120.462-7.166
				c12.359-0.735,21.911-10.893,21.911-23.327v-400.533C1744.175,2686.607,1733.426,2676.147,1720.251,2676.514z"/>
			
				<linearGradient id="SVGID_00000167377417707026861570000003711345825129423262_" gradientUnits="userSpaceOnUse" x1="1530.7417" y1="2711.9529" x2="1656.5344" y2="3345.6619">
				<stop  offset="0" style="stop-color:#FFC444"/>
				<stop  offset="0.3138" style="stop-color:#FBA94A"/>
				<stop  offset="0.9964" style="stop-color:#F36F56"/>
			</linearGradient>
			<polygon style="fill:url(#SVGID_00000167377417707026861570000003711345825129423262_);" points="1518.145,3135.826 
				1620.993,3129.708 1620.993,2679.28 1518.145,2682.146 			"/>
			
				<linearGradient id="SVGID_00000128467335580263773650000014771708393531137719_" gradientUnits="userSpaceOnUse" x1="1549.813" y1="2909.1265" x2="1772.6257" y2="2876.1753">
				<stop  offset="0" style="stop-color:#FFC444"/>
				<stop  offset="0.3138" style="stop-color:#FBA94A"/>
				<stop  offset="0.9964" style="stop-color:#F36F56"/>
			</linearGradient>
			<polygon style="fill:url(#SVGID_00000128467335580263773650000014771708393531137719_);" points="1522.777,3135.551 
				1620.993,3129.708 1620.993,2679.28 1522.777,2682.017 			"/>
			
				<linearGradient id="SVGID_00000001627863574148300960000007241742070848541061_" gradientUnits="userSpaceOnUse" x1="1400.0524" y1="2683.9885" x2="1872.7936" y2="2614.0759">
				<stop  offset="0" style="stop-color:#FFC444"/>
				<stop  offset="0.3138" style="stop-color:#FBA94A"/>
				<stop  offset="0.9964" style="stop-color:#F36F56"/>
			</linearGradient>
			<polygon style="fill:url(#SVGID_00000001627863574148300960000007241742070848541061_);" points="1336.571,2668.226 
				1623.273,2684.527 1520.198,2684.527 1269.538,2669.74 			"/>
			<g>
				
					<linearGradient id="SVGID_00000150096578896807966900000001784231186933808282_" gradientUnits="userSpaceOnUse" x1="1639.6731" y1="2545.2327" x2="1522.5421" y2="2667.0488">
					<stop  offset="0" style="stop-color:#FFC444"/>
					<stop  offset="0.3138" style="stop-color:#FBA94A"/>
					<stop  offset="0.9964" style="stop-color:#F36F56"/>
				</linearGradient>
				<path style="fill:url(#SVGID_00000150096578896807966900000001784231186933808282_);" d="M1476.079,2654.463
					c6.676-40.898,11.555-70.788,38.263-98.39c11.262-11.64,23.561-24.35,43.729-27.721c23.193-3.877,52.798,5.265,60.908,24.207
					c7.701,17.986-10.442,29.706-2.733,50.366c7.747,20.763,30.324,20.321,32.797,37.092c2.095,14.204-11.771,30.32-25.769,37.872
					c-24.174,13.042-37.899-5.306-85.115-2.343c-32.536,2.042-51.316,12.343-60.127,1.952
					C1473.836,2672.552,1474.247,2665.683,1476.079,2654.463z"/>
				<g style="opacity:0.3;">
					
						<linearGradient id="SVGID_00000096770924090439831340000016606613154599597985_" gradientUnits="userSpaceOnUse" x1="1658.5355" y1="2563.3696" x2="1541.4042" y2="2685.1863">
						<stop  offset="0" style="stop-color:#FFC444"/>
						<stop  offset="0.3138" style="stop-color:#FBA94A"/>
						<stop  offset="0.9964" style="stop-color:#F36F56"/>
					</linearGradient>
					<path style="fill:url(#SVGID_00000096770924090439831340000016606613154599597985_);" d="M1605.313,2638.455
						c-29.151-11.149-44.092-35.413-57.004-29.673c-11.475,5.101-4.473,26.396-17.96,43.729
						c-12.316,15.828-34.904,19.593-54.975,19.608c0.506,2.026,1.33,3.815,2.657,5.38c8.812,10.391,27.591,0.09,60.127-1.952
						c47.216-2.964,60.941,15.385,85.115,2.343c12.842-6.929,25.537-21.064,25.933-34.32
						C1635.584,2645.033,1620.431,2644.237,1605.313,2638.455z"/>
				</g>
			</g>
			<g>
				
					<linearGradient id="SVGID_00000114787974731990356340000010945781784729876906_" gradientUnits="userSpaceOnUse" x1="1362.9103" y1="2593.7932" x2="1673.988" y2="2547.7888">
					<stop  offset="0" style="stop-color:#FFC444"/>
					<stop  offset="0.3138" style="stop-color:#FBA94A"/>
					<stop  offset="0.9964" style="stop-color:#F36F56"/>
				</linearGradient>
				<path style="fill:url(#SVGID_00000114787974731990356340000010945781784729876906_);" d="M1299.992,2553.34
					c19.609-15.476,40.281,1.783,64.422-15.227c24.452-17.229,17.347-44.871,36.311-52.709
					c22.031-9.106,54.663,18.678,70.279,36.311c39.663,44.787,58.29,124.299,26.94,152.27
					c-11.766,10.498-45.085,6.172-111.242-2.909c-75.617-10.38-86.5-17.814-93.737-27.545
					C1273.462,2617.309,1277.792,2570.861,1299.992,2553.34z"/>
				<g style="opacity:0.3;">
					
						<linearGradient id="SVGID_00000027564135573346133020000016362490085137059000_" gradientUnits="userSpaceOnUse" x1="1366.5292" y1="2618.2639" x2="1677.6064" y2="2572.2595">
						<stop  offset="0" style="stop-color:#FFC444"/>
						<stop  offset="0.3138" style="stop-color:#FBA94A"/>
						<stop  offset="0.9964" style="stop-color:#F36F56"/>
					</linearGradient>
					<path style="fill:url(#SVGID_00000027564135573346133020000016362490085137059000_);" d="M1424.151,2586.918
						c-10.898-3.438-15.862,9.034-38.263,14.056c-4.111,0.922-43.613,9.175-64.813-15.617c-8.411-9.836-12.359-23.065-11.9-37.092
						c-3.092,1.075-6.151,2.683-9.184,5.076c-22.2,17.521-26.53,63.968-7.028,90.191c7.237,9.731,18.12,17.165,93.737,27.545
						c66.157,9.081,99.476,13.407,111.242,2.909c1.581-1.411,3.002-2.986,4.332-4.648c-15.872-0.524-32.524-4.366-44.547-16.045
						C1434.53,2630.757,1442.677,2592.761,1424.151,2586.918z"/>
				</g>
			</g>
		</g>
		<g>
			<g>
				
					<linearGradient id="SVGID_00000134952379020017449840000011072983120985057469_" gradientUnits="userSpaceOnUse" x1="574.8829" y1="2396.2903" x2="943.5431" y2="2396.2903">
					<stop  offset="0" style="stop-color:#311944"/>
					<stop  offset="1" style="stop-color:#A03976"/>
				</linearGradient>
				<path style="fill:url(#SVGID_00000134952379020017449840000011072983120985057469_);" d="M934.97,2554.307
					c-4.363,0-8.091-3.317-8.513-7.749c-7.497-78.664-33.145-153.405-72.219-210.458c-34.614-50.544-75.824-80.705-110.255-80.705
					c-0.04,0-0.075,0-0.115,0c-125.409,0.245-151.643,288.173-151.893,291.083c-0.406,4.711-4.534,8.2-9.264,7.797
					c-4.71-0.406-8.201-4.552-7.797-9.262c1.074-12.515,27.925-306.465,168.92-306.741c0.05,0,0.101,0,0.151,0
					c40.682,0,86.006,32.12,124.381,88.152c40.685,59.406,67.369,137.007,75.137,218.507c0.448,4.707-3.004,8.888-7.711,9.337
					C935.517,2554.295,935.242,2554.307,934.97,2554.307z"/>
				
					<linearGradient id="SVGID_00000003080507170427244070000007550170827370001539_" gradientUnits="userSpaceOnUse" x1="324.9039" y1="2603.2971" x2="533.5892" y2="2953.2463">
					<stop  offset="0" style="stop-color:#FF9085"/>
					<stop  offset="1" style="stop-color:#FB6FBB"/>
				</linearGradient>
				<path style="fill:url(#SVGID_00000003080507170427244070000007550170827370001539_);" d="M412.511,3146.889l165.088,83.581
					l100.026-306.948L512.81,2512.013l-46.735,11.459l-70.911,591C393.559,3127.85,400.491,3140.803,412.511,3146.889z"/>
				
					<linearGradient id="SVGID_00000056417873936386297080000005849162655652484758_" gradientUnits="userSpaceOnUse" x1="357.1694" y1="2584.0562" x2="565.8546" y2="2934.0054">
					<stop  offset="0" style="stop-color:#FF9085"/>
					<stop  offset="1" style="stop-color:#FB6FBB"/>
				</linearGradient>
				<path style="opacity:0.52;fill:url(#SVGID_00000056417873936386297080000005849162655652484758_);" d="M677.625,2923.521
					L512.81,2512.013l-27.566,6.759c-3.822,54.942-2.143,100.162,0.454,133.085c11.049,140.105,47.742,179.094,29.966,276.834
					c-14.78,81.27-47.058,92.3-44.236,146.979c3.073,59.551,44.608,109.418,93.99,148.633l12.181,6.167L677.625,2923.521z"/>
				
					<linearGradient id="SVGID_00000098178511661927484960000002048341995105756822_" gradientUnits="userSpaceOnUse" x1="688.1879" y1="2744.2722" x2="1275.7166" y2="3196.959">
					<stop  offset="0" style="stop-color:#FF9085"/>
					<stop  offset="1" style="stop-color:#FB6FBB"/>
				</linearGradient>
				<polygon style="fill:url(#SVGID_00000098178511661927484960000002048341995105756822_);" points="512.81,2512.013 
					1128.356,2512.013 1332.074,3169.677 577.599,3230.47 				"/>
				
					<linearGradient id="SVGID_00000022552149269345371860000018240595172316580738_" gradientUnits="userSpaceOnUse" x1="679.6286" y1="2406.7463" x2="1020.1512" y2="2406.7463">
					<stop  offset="0" style="stop-color:#311944"/>
					<stop  offset="1" style="stop-color:#A03976"/>
				</linearGradient>
				<path style="fill:url(#SVGID_00000022552149269345371860000018240595172316580738_);" d="M703.497,2568.381
					c-3.886,0-7.403-2.663-8.329-6.61c-1.75-7.458-42.192-183.681,14.833-270.165c16.344-24.787,39.179-39.92,67.868-44.981
					c147.411-25.974,238.17,290.635,241.962,304.126c1.278,4.552-1.374,9.279-5.926,10.558c-4.557,1.283-9.28-1.375-10.559-5.926
					c-0.888-3.152-90.228-315.249-222.502-291.894c-24.207,4.269-42.704,16.549-56.546,37.542
					c-53.007,80.393-12.868,255.075-12.456,256.831c1.08,4.603-1.778,9.21-6.38,10.29
					C704.802,2568.308,704.143,2568.381,703.497,2568.381z"/>
				<g style="opacity:0.3;">
					
						<linearGradient id="SVGID_00000107587629309422614830000001808496089758131860_" gradientUnits="userSpaceOnUse" x1="695.7823" y1="2734.4141" x2="1283.3113" y2="3187.1011">
						<stop  offset="0" style="stop-color:#FF9085"/>
						<stop  offset="1" style="stop-color:#FB6FBB"/>
					</linearGradient>
					<path style="fill:url(#SVGID_00000107587629309422614830000001808496089758131860_);" d="M1128.356,2512.013H822.988
						c-15.06,15.319-25.749,32.974-26.77,52.779c-4.799,93.049,209.113,123.618,229.743,251.148
						c14.882,91.997-76.69,198.147-158.395,245.44c-86.083,49.826-144.411,24.593-202.631,79.911
						c-25.581,24.305-41.158,54.698-50.421,86.203l717.559-57.818L1128.356,2512.013z"/>
				</g>
				
					<linearGradient id="SVGID_00000154427985834112422580000005183828223145717180_" gradientUnits="userSpaceOnUse" x1="679.6288" y1="2569.6726" x2="727.485" y2="2569.6726">
					<stop  offset="0" style="stop-color:#311944"/>
					<stop  offset="1" style="stop-color:#A03976"/>
				</linearGradient>
				
					<circle style="fill:url(#SVGID_00000154427985834112422580000005183828223145717180_);" cx="703.557" cy="2569.673" r="23.928"/>
				
					<linearGradient id="SVGID_00000018211549492986476900000005755323350835769506_" gradientUnits="userSpaceOnUse" x1="991.6781" y1="2567.4534" x2="1039.5343" y2="2567.4534">
					<stop  offset="0" style="stop-color:#311944"/>
					<stop  offset="1" style="stop-color:#A03976"/>
				</linearGradient>
				
					<circle style="fill:url(#SVGID_00000018211549492986476900000005755323350835769506_);" cx="1015.606" cy="2567.453" r="23.928"/>
			</g>
		</g>
		<g>
			
				<linearGradient id="SVGID_00000121988766134558628120000016045832151559083451_" gradientUnits="userSpaceOnUse" x1="2504.7651" y1="2219.9424" x2="2564.0566" y2="2144.8657">
				<stop  offset="0" style="stop-color:#AA80F9"/>
				<stop  offset="0.9964" style="stop-color:#6165D7"/>
			</linearGradient>
			<path style="fill:url(#SVGID_00000121988766134558628120000016045832151559083451_);" d="M2654.763,2339.74
				c32.22-17.857,22.788-119.203-20.925-190.417c-62.068-101.116-198.101-149.387-225.989-119.271
				c-28.541,30.82,53.615,146.514,66.961,165.307C2523.221,2263.534,2616.651,2360.863,2654.763,2339.74z"/>
			
				<linearGradient id="SVGID_00000137107966670859835000000017899624345473779901_" gradientUnits="userSpaceOnUse" x1="451.5585" y1="3209.5725" x2="549.0936" y2="3209.5725" gradientTransform="matrix(-0.9294 0.369 0.369 0.9294 2317.0188 -232.6526)">
				<stop  offset="0" style="stop-color:#444B8C"/>
				<stop  offset="0.9964" style="stop-color:#26264F"/>
			</linearGradient>
			<path style="fill:url(#SVGID_00000137107966670859835000000017899624345473779901_);" d="M2991.701,2927.956
				c-5.254,7.263-5.278,19.574,0.583,24.993c5.76,5.327,12.961,0.063,34.833-1.686c23.428-1.872,30.132,2.97,45.519-3.154
				c6.216-2.479,17.065-8.023,16.346-12.578c-0.505-3.203-6.453-4.23-26.416-8.561c-28.337-6.146-28.271-6.659-34.18-6.981
				C3013.542,2919.179,2998.64,2918.366,2991.701,2927.956z"/>
			
				<linearGradient id="SVGID_00000084497270286851350120000009577005900670302115_" gradientUnits="userSpaceOnUse" x1="283.7265" y1="3153.2388" x2="324.8541" y2="3068.1143" gradientTransform="matrix(-0.9527 0.304 0.304 0.9527 2337.1311 -152.086)">
				<stop  offset="0" style="stop-color:#FFC444"/>
				<stop  offset="0.9964" style="stop-color:#F36F56"/>
			</linearGradient>
			<path style="fill:url(#SVGID_00000084497270286851350120000009577005900670302115_);" d="M3002.469,2888.222l16.002,37.67
				c-0.656,2.187-11.794,10.469-22.499,7.178l-21.557-35.898L3002.469,2888.222z"/>
			
				<linearGradient id="SVGID_00000058577449578424680650000010055265299787960967_" gradientUnits="userSpaceOnUse" x1="604.3576" y1="3203.29" x2="701.8927" y2="3203.29" gradientTransform="matrix(-0.9294 0.369 0.369 0.9294 2317.0188 -232.6526)">
				<stop  offset="0" style="stop-color:#444B8C"/>
				<stop  offset="0.9964" style="stop-color:#26264F"/>
			</linearGradient>
			<path style="fill:url(#SVGID_00000058577449578424680650000010055265299787960967_);" d="M2847.372,2978.499
				c-5.255,7.264-5.278,19.575,0.582,24.995c5.76,5.328,12.961,0.064,34.832-1.687c23.428-1.873,30.133,2.97,45.519-3.154
				c6.216-2.478,17.066-8.023,16.346-12.578c-0.505-3.202-6.453-4.229-26.416-8.56c-28.337-6.146-28.271-6.659-34.18-6.982
				C2869.213,2969.724,2854.311,2968.91,2847.372,2978.499z"/>
			
				<linearGradient id="SVGID_00000110444391331273393080000003623262515056126863_" gradientUnits="userSpaceOnUse" x1="436.5869" y1="3157.5161" x2="477.7141" y2="3072.3923" gradientTransform="matrix(-0.9527 0.304 0.304 0.9527 2337.1311 -152.086)">
				<stop  offset="0" style="stop-color:#FFC444"/>
				<stop  offset="0.9964" style="stop-color:#F36F56"/>
			</linearGradient>
			<path style="fill:url(#SVGID_00000110444391331273393080000003623262515056126863_);" d="M2858.139,2938.766l16.002,37.67
				c-0.655,2.187-11.794,10.469-22.499,7.178l-21.557-35.898L2858.139,2938.766z"/>
			
				<linearGradient id="SVGID_00000115480747123823114210000016277005477992615325_" gradientUnits="userSpaceOnUse" x1="2173.1177" y1="2578.4504" x2="2416.4426" y2="2270.3442">
				<stop  offset="0" style="stop-color:#AA80F9"/>
				<stop  offset="0.9964" style="stop-color:#6165D7"/>
			</linearGradient>
			<path style="fill:url(#SVGID_00000115480747123823114210000016277005477992615325_);" d="M2149.425,2036.605
				c37.382-12.74,94.512-27.544,164.878-27.536c79.223,0.009,142.849,0.016,186.781,37.46
				c106.622,90.876-12.716,308.543,48.418,469.736c6.696,17.655,26.18,73.629,9.233,133.997
				c-3.124,11.126-9.556,20.769-20.556,37.092c-64.582,95.814-249.565,127.341-332.666,44.269
				c-43.92-43.905-79.832-59.539-80.889-109.636C2120.456,2424.241,2151.137,2226.995,2149.425,2036.605z"/>
			
				<linearGradient id="SVGID_00000031185856043730324790000004546970073869274551_" gradientUnits="userSpaceOnUse" x1="2173.144" y1="2568.8369" x2="2408.5068" y2="2270.8127">
				<stop  offset="0" style="stop-color:#AA80F9"/>
				<stop  offset="0.9964" style="stop-color:#6165D7"/>
			</linearGradient>
			<path style="opacity:0.3;fill:url(#SVGID_00000031185856043730324790000004546970073869274551_);" d="M2191.582,2278.178
				c-15.102-41.349,0.547-88.681-33.126-109.343c-12.339-7.571-27.675-10.78-44.38-10.412
				c1.999,145.341,4.859,290.544,8.395,442.226c1.167,50.098,7.432,52.578,55.994,96.482
				c56.269,50.871,153.235,67.478,236.404,50.834c-108.923-66.987-186.64-136.375-175.509-195.853
				c12.962-69.267,139.809-89.72,134.705-138.967C2368.655,2360.951,2224.595,2368.571,2191.582,2278.178z"/>
			
				<linearGradient id="SVGID_00000088123762664671997270000004998323258800569766_" gradientUnits="userSpaceOnUse" x1="2038.4056" y1="2446.6196" x2="2280.0881" y2="2140.5933">
				<stop  offset="0" style="stop-color:#AA80F9"/>
				<stop  offset="0.9964" style="stop-color:#6165D7"/>
			</linearGradient>
			<path style="fill:url(#SVGID_00000088123762664671997270000004998323258800569766_);" d="M2184.067,2041.077
				c-36.619-24.723-124.846,37.624-173.755,92.504c-22.732,25.505-101.877,114.308-82.213,233.601
				c3.203,19.44,17.958,110.329,95.762,154.85c69.664,39.863,163.73,29.61,239.098-26.848c10.298-9.14,20.599-18.276,30.9-27.417
				c10.133-10.952,20.267-21.905,30.399-32.859c-15.929-13.25-42.994-32.364-81.003-44.628
				c-57.918-18.689-95.996,9.039-109.848-9.215c-17.055-22.473,34.865-64.344,48.488-159.599
				C2185.572,2195.761,2224.97,2068.692,2184.067,2041.077z"/>
			
				<linearGradient id="SVGID_00000116930910756021307210000016499723929123957687_" gradientUnits="userSpaceOnUse" x1="2085.592" y1="2843.5957" x2="2413.2778" y2="2428.6687" gradientTransform="matrix(0.994 -0.1094 0.1094 0.994 171.165 314.9103)">
				<stop  offset="0" style="stop-color:#444B8C"/>
				<stop  offset="0.9964" style="stop-color:#26264F"/>
			</linearGradient>
			<path style="fill:url(#SVGID_00000116930910756021307210000016499723929123957687_);" d="M2258.566,2684.147
				c-15.434,80.927,25.597,44.2,111.378-10.473c90.344-57.581,291.716-148.159,391.44-69.539
				c74.271,58.554,38.346,168.024,154.658,271.359c20.488,18.202,39.352,30.414,51.07,37.416
				c17.833-9.789,35.666-19.576,53.5-29.366c2.616-43.617,7.536-211.191-112.607-347.559
				c-29.047-32.969-84.37-96.318-169.313-116.341C2509.047,2365.513,2272.799,2609.51,2258.566,2684.147z"/>
			
				<linearGradient id="SVGID_00000152223213721415089920000015460515744700583300_" gradientUnits="userSpaceOnUse" x1="2280.7151" y1="2460.3669" x2="1900.5377" y2="2881.4868" gradientTransform="matrix(0.994 -0.1094 0.1094 0.994 171.165 314.9103)">
				<stop  offset="0" style="stop-color:#444B8C"/>
				<stop  offset="0.9964" style="stop-color:#26264F"/>
			</linearGradient>
			<path style="fill:url(#SVGID_00000152223213721415089920000015460515744700583300_);" d="M2162.335,2620.824
				c-10.622,46.676,9.083,96.805,38.063,126.107c64.329,65.046,190.306,43.588,266.61,8.549
				c92.843-42.631,107.947-103.317,147.423-93.156c61.341,15.789,35.407,165.413,154.658,271.359
				c20.488,18.202,39.352,30.412,51.07,37.417c17.832-9.791,35.666-19.578,53.499-29.369
				c3.136-101.241-15.97-179.979-32.334-229.814c-18.765-57.148-35.576-108.346-82.364-154.354
				c-58.131-57.163-127.486-71.85-167.221-79.731C2423.631,2444.49,2189.933,2499.548,2162.335,2620.824z"/>
			<g>
				
					<linearGradient id="SVGID_00000121274573654291135920000012468916743987478458_" gradientUnits="userSpaceOnUse" x1="2530.3052" y1="2649.7405" x2="2476.9282" y2="2498.5056">
					<stop  offset="0" style="stop-color:#311944"/>
					<stop  offset="1" style="stop-color:#893976"/>
				</linearGradient>
				<polygon style="fill:url(#SVGID_00000121274573654291135920000012468916743987478458_);" points="2685.381,2467.319 
					2244.137,2460.731 2361.471,2517.359 2686.51,2496.086 				"/>
				
					<linearGradient id="SVGID_00000126288424410905138220000003752428692669633947_" gradientUnits="userSpaceOnUse" x1="2297.1257" y1="2430.6243" x2="2316.6973" y2="2565.8459">
					<stop  offset="0" style="stop-color:#311944"/>
					<stop  offset="1" style="stop-color:#893976"/>
				</linearGradient>
				<path style="fill:url(#SVGID_00000126288424410905138220000003752428692669633947_);" d="M2228.565,2472.456v0.003
					c0,8.257,5.168,15.633,12.928,18.456l140.992,55.273l0.642-38.321l-138.99-47.136
					C2236.337,2458.49,2228.565,2464.344,2228.565,2472.456z"/>
			</g>
			<path style="fill:#FFFFFF;" d="M2291.56,2454.747c-2.708-0.604,13.194-32.287,25.677-28.631
				c12.48,3.657,73.532,39.039,79.081,53.608c5.551,14.569,5.551,14.569,5.551,14.569s-26.631,2.081-43.148-3.468
				C2342.204,2485.275,2313.582,2459.657,2291.56,2454.747z"/>
			<g>
				<g>
					
						<linearGradient id="SVGID_00000072976772203878893910000007606626278295882384_" gradientUnits="userSpaceOnUse" x1="2684.9255" y1="2442.4675" x2="2580.8604" y2="2294.6948">
						<stop  offset="0" style="stop-color:#444B8C"/>
						<stop  offset="0.9964" style="stop-color:#26264F"/>
					</linearGradient>
					<path style="fill:url(#SVGID_00000072976772203878893910000007606626278295882384_);" d="M2394.832,2239.001l-31.101,283.188
						c-1.074,9.771,12.606,24.329,22.425,23.865l456.269-28.01c7.498-0.357,13.74-5.874,15.009-13.271l57.268-273.51
						c1.709-9.953-16.182-20.232-26.278-19.951l-478.14,13.445C2402.297,2224.981,2395.704,2231.06,2394.832,2239.001z"/>
					
						<linearGradient id="SVGID_00000017491774042634162460000006903319716586696858_" gradientUnits="userSpaceOnUse" x1="2485.3098" y1="2687.0288" x2="2713.0515" y2="2224.4285">
						<stop  offset="0" style="stop-color:#311944"/>
						<stop  offset="1" style="stop-color:#893976"/>
					</linearGradient>
					<path style="fill:url(#SVGID_00000017491774042634162460000006903319716586696858_);" d="M2405.26,2247.257l-31.104,283.191
						c-1.071,9.772,6.84,18.19,16.66,17.727l462.039-21.873c7.497-0.355,13.739-5.875,15.009-13.27l47.204-274.762
						c1.71-9.955-6.119-18.984-16.215-18.699l-478.142,13.444C2412.727,2233.236,2406.13,2239.318,2405.26,2247.257z"/>
				</g>
				
					<linearGradient id="SVGID_00000131341025977270658550000017231537603395348890_" gradientUnits="userSpaceOnUse" x1="2374.0583" y1="2390.1167" x2="2874.377" y2="2390.1167">
					<stop  offset="0" style="stop-color:#311944"/>
					<stop  offset="1" style="stop-color:#893976"/>
				</linearGradient>
				<path style="opacity:0.3;fill:url(#SVGID_00000131341025977270658550000017231537603395348890_);" d="M2676.569,2459.943
					c-40.344-17.099-26.104-49.707-73.744-90.338c-62.849-53.602-126.91-30.356-149.336-71.903
					c-6.982-12.94-10.319-33.074,1.846-65.662l-34.624,0.973c-7.983,0.223-14.58,6.304-15.45,14.243l-31.104,283.191
					c-1.07,9.771,6.841,18.19,16.66,17.727l462.039-21.873c7.497-0.355,13.739-5.873,15.009-13.27l6.514-37.915
					c-14.019-7.802-30.771-14.896-50.318-18.861C2756.274,2442.506,2723.017,2479.629,2676.569,2459.943z"/>
			</g>
			<g>
				<path style="fill:#FFFFFF;" d="M2321.7,1900.832c0.245,29.371-3.031,52.664-6.131,68.615
					c-3.551,18.277-6.109,22.998-9.375,26.829c-4.915,5.768-12.364,10.606-54.45,21.042c-22.903,5.677-25.849,5.523-26.356,7.796
					c-2.467,11.087,59.985,48.875,124.504,39.768c39.488-5.574,75.415-28.102,73.211-39.933
					c-2.219-11.906-41.664-5.517-53.42-27.057c-8.178-14.985,0.99-36.256,11.826-53.873
					C2371.014,1924.354,2332.194,1920.497,2321.7,1900.832z"/>
				<g>
					
						<linearGradient id="SVGID_00000041975165832653061840000008687899003911193994_" gradientUnits="userSpaceOnUse" x1="-215.0642" y1="1613.4885" x2="-289.7643" y2="1423.7638" gradientTransform="matrix(-0.9687 -0.2485 -0.2485 0.9687 2456.1904 427.3052)">
						<stop  offset="0" style="stop-color:#311944"/>
						<stop  offset="1" style="stop-color:#6B3976"/>
					</linearGradient>
					<path style="fill:url(#SVGID_00000041975165832653061840000008687899003911193994_);" d="M2404.564,1938.178
						c12.139-9.63,18.141-30.399,11.192-46.326c-5.979-13.705-19.628-18.991-27.8-22.16c-23.678-9.176-57.134-7.008-73.701,12.671
						c-9.816,11.663-3.289,42.905-2.433,48.438c0.97,6.259,4.882,9.338,7.858,14.654c4.125,7.373,10.545,19.058,20.925,38.507
						c2.329-4.335,5.53-9.618,9.862-15.121c1.668-2.118,8.296-10.359,16.663-16.446
						C2383.895,1940.193,2393.057,1947.306,2404.564,1938.178z"/>
					<path style="fill:#FFFFFF;" d="M2323.408,1965.4c0,0,9.192,30.51,41.687,36.753c29.094,5.589,49.992-57.478,35.266-75.852
						c-4.914-6.129-16.633-11.194-27.284-10.998c-6.292,0.117-8.912,2.035-19.195,2.024c-9.488-0.009-11.739-1.647-15.01-0.089
						c-4.09,1.951-8.35,8.233-7.633,28.447c-4.02-6.948-10.019-10.775-15.232-9.792c-0.832,0.158-3.144,0.982-4.777,2.719
						C2305.322,1944.897,2309.578,1955.998,2323.408,1965.4z"/>
					
						<linearGradient id="SVGID_00000147181857573385097240000013921196626385425571_" gradientUnits="userSpaceOnUse" x1="-237.8878" y1="1622.5702" x2="-312.6606" y2="1432.6608" gradientTransform="matrix(-0.9687 -0.2485 -0.2485 0.9687 2456.1904 427.3052)">
						<stop  offset="0" style="stop-color:#311944"/>
						<stop  offset="1" style="stop-color:#6B3976"/>
					</linearGradient>
					<path style="fill:url(#SVGID_00000147181857573385097240000013921196626385425571_);" d="M2338.577,1913.064
						c1.113,1.387-4.446,5.437-6.658,12.64c-4.295,13.982,5.598,34.686,19.826,39.929c8.411,3.099,12.141-1.486,26.805,0.723
						c9.079,1.367,16.142,4.407,20.507,6.623c0.445,16.679-7.802,31.045-20.037,35.519c-13.173,4.817-26.211-3.583-31.661-7.095
						c-3.646-2.349-15.337-9.849-18.964-23.307c-3.777-14.025,4.967-19.607-0.865-29.945c-2.941-5.214-7.759-8.396-10.807-17.802
						c-0.829-2.555-1.257-4.737-1.488-6.189C2324.653,1918.261,2336.968,1911.053,2338.577,1913.064z"/>
					<path style="fill:#FFFFFF;" d="M2387.174,1976.024c0,0-7.02,1.618-17.54-1.762c-0.511-0.167-1.125-0.163-1.26,0.09
						c-0.509,0.949,5.157,7.273,11.93,7.144c4.81-0.094,9.402-3.428,9.081-4.664
						C2389.246,1976.311,2388.217,1976.106,2387.174,1976.024z"/>
				</g>
			</g>
		</g>
	</g>
</g>
</svg>
