<?xml version="1.0" encoding="utf-8"?>
<!-- Generator: Adobe Illustrator 27.5.0, SVG Export Plug-In . SVG Version: 6.00 Build 0)  -->
<svg version="1.1" xmlns="http://www.w3.org/2000/svg" xmlns:xlink="http://www.w3.org/1999/xlink" x="0px" y="0px"
	 viewBox="0 0 3710 3710" style="enable-background:new 0 0 3710 3710;" xml:space="preserve">
<g id="Background">
	<g>
		<g>
			<rect style="fill:#FFFFFF;" width="3710" height="3710"/>
		</g>
	</g>
</g>
<g id="Illustration">
	<g>
		<g>
			<path style="fill:#F4F7FA;" d="M1125.069,623.292c-94.431,135.184,16.292,354.351-123.829,456.021
				c-136.396,98.968-303.956-63.254-432.501,21.938c-190.69,126.375-155.866,704.648,122.932,1063.94
				c83.844,108.052,153.901,150.093,184.928,272.294c66.626,262.397-167.53,418.487-122.97,548.264
				c100.332,292.211,1643.366,537.41,2262.5-340.78c289.161-410.151,332.426-1002.413,74.07-1452.238
				C2623.354,379.902,1336.958,319.963,1125.069,623.292z"/>
			<g>
				<g>
					<g>
						<defs>
							<path id="SVGID_1_" d="M1596.516,2362.959c15.095-6.578,42.136-34.197,46.216-44.303
								c27.154-67.253,86.175-189.867,60.514-262.117c-4.383-12.34-63.87-7.712-75.076-16.953
								c-38.643-6.256-52.436-6.029-86.252-30.024c-99.832-70.837,16.76-292.083-194.89-296.539
								c-155.031-3.263-260.858,80.529-309.593-144.531c-48.736-225.059-340.351-576.318-528.654-354.817
								c-108.068,127.121,82.1,275.347,53.465,433.695c-27.21,150.472,59.952,242.554,222.552,280.934
								c162.6,38.378,105.579,120.705,101.245,257.454c-5.208,164.265,233.429,123.852,342.01,95.797
								C1315.488,2258.962,1553.376,2260.425,1596.516,2362.959z"/>
						</defs>
						
							<linearGradient id="SVGID_00000071533724639233272660000005636507869266785945_" gradientUnits="userSpaceOnUse" x1="1263.7174" y1="1626.1136" x2="973.8111" y2="1844.8149">
							<stop  offset="0.0036" style="stop-color:#E38DDD"/>
							<stop  offset="1" style="stop-color:#9571F6"/>
						</linearGradient>
						
							<use xlink:href="#SVGID_1_"  style="overflow:visible;fill:url(#SVGID_00000071533724639233272660000005636507869266785945_);"/>
						<clipPath id="SVGID_00000065063170311203938020000010357398512791790497_">
							<use xlink:href="#SVGID_1_"  style="overflow:visible;"/>
						</clipPath>
						<g style="clip-path:url(#SVGID_00000065063170311203938020000010357398512791790497_);">
							<g>
								<path style="fill:#FCFDFE;" d="M1672.866,2194.5l0.595-3.449c-531.469-91.792-950.887-488.958-1121.94-1062.418
									l-3.357,0.999c81.068,271.78,223.63,512.996,412.276,697.57C1158.762,2021.248,1405.116,2148.256,1672.866,2194.5z"/>
								<path style="fill:#FCFDFE;" d="M876.044,2253.785c121.797-83.23,346.601-149.772,501.126-148.332l0.032-3.501
									c-155.133-1.445-380.836,65.37-503.132,148.941L876.044,2253.785z"/>
								<path style="fill:#FCFDFE;" d="M1568.742,2175.286l1.528-3.151c-72.264-35.072-124.022-105.33-153.835-208.82
									c-21.861-75.884-31.632-167.538-29.043-272.42l-3.501-0.085c-2.597,105.237,7.219,197.248,29.178,273.473
									C1443.168,2068.77,1495.544,2139.762,1568.742,2175.286z"/>
								<path style="fill:#FCFDFE;" d="M934.681,1799.963l1.689-3.068c-132.814-73.114-291.422-56.955-401.091-30.525l0.822,3.406
									C645.167,1743.49,802.852,1727.389,934.681,1799.963z"/>
								<path style="fill:#FCFDFE;" d="M721.997,1525.714l3.284-1.217c-59.336-160.158-7.037-331.64,29.417-419.603l-3.236-1.342
									C714.812,1191.99,662.246,1364.434,721.997,1525.714z"/>
							</g>
						</g>
					</g>
				</g>
			</g>
			<g>
				<g>
					<g>
						<defs>
							<path id="SVGID_00000037686749843190402570000016302248612047491765_" d="M1583.719,2122.443
								c17.196-1.282,53.476-19.232,61.003-27.811c50.098-57.087,150.839-157.876,150.459-238.167
								c-0.065-13.713-60.466-29.71-68.347-42.72c-36.034-19.546-49.747-24.092-74.875-59.504
								c-74.185-104.543,117.573-282.918-90.096-360.513c-152.114-56.837-285.696-10.608-256.042-249.924
								c29.654-239.316-137.127-687.368-399.856-533.539c-150.781,88.283-14.066,300.563-97.129,447.182
								c-78.931,139.326-24.618,260.488,122.835,354.654c147.452,94.165,62.62,155.823,11.046,289.495
								c-61.952,160.569,187.907,203.147,304.937,212.963C1341.896,1922.463,1576.535,2006.173,1583.719,2122.443z"/>
						</defs>
						
							<linearGradient id="SVGID_00000100353419897188715560000011343174322078648704_" gradientUnits="userSpaceOnUse" x1="1657.9375" y1="874.395" x2="873.9357" y2="1844.757">
							<stop  offset="0" style="stop-color:#FFC444"/>
							<stop  offset="0.9964" style="stop-color:#F36F56"/>
						</linearGradient>
						
							<use xlink:href="#SVGID_00000037686749843190402570000016302248612047491765_"  style="overflow:visible;fill:url(#SVGID_00000100353419897188715560000011343174322078648704_);"/>
						<clipPath id="SVGID_00000183969414777799618880000004126466477007729592_">
							<use xlink:href="#SVGID_00000037686749843190402570000016302248612047491765_"  style="overflow:visible;"/>
						</clipPath>
						<g style="clip-path:url(#SVGID_00000183969414777799618880000004126466477007729592_);">
							<g>
								<path style="fill:#FCFDFE;" d="M1717.443,1982.329l1.781-3.204c-493.596-274.521-770.83-812.145-741.601-1438.143
									l-3.665-0.173c-13.851,296.679,43.652,584.412,166.293,832.092C1269.184,1633.293,1468.774,1844.029,1717.443,1982.329z"/>
								<path style="fill:#FCFDFE;" d="M909.312,1765.38c149.173-40.151,394.395-28.186,546.639,26.675l1.242-3.45
									c-152.844-55.075-399.048-67.081-548.834-26.766L909.312,1765.38z"/>
								<path style="fill:#FCFDFE;" d="M1621.166,1927.33l2.599-2.587c-59.302-59.657-86.167-147.003-79.847-259.609
									c4.633-82.569,26.669-176.544,65.498-279.321l-3.431-1.294c-38.959,103.125-61.074,197.468-65.728,280.408
									C1533.875,1778.618,1561.097,1866.903,1621.166,1927.33z"/>
								<path style="fill:#FCFDFE;" d="M1124.209,1337.071l2.73-2.448c-105.998-118.2-268.364-157.075-385.908-168.875l-0.366,3.651
									C857.565,1181.132,1018.997,1219.746,1124.209,1337.071z"/>
								<path style="fill:#FCFDFE;" d="M1008.817,992.437l3.667-0.068c-3.267-178.829,107.729-330.247,174.181-404.59l-2.734-2.445
									C1117.12,660.079,1005.528,812.355,1008.817,992.437z"/>
							</g>
						</g>
					</g>
				</g>
			</g>
			<g>
				
					<linearGradient id="SVGID_00000008867672277428173970000012890132250618889608_" gradientUnits="userSpaceOnUse" x1="-686.342" y1="615.0501" x2="729.6308" y2="1776.6376" gradientTransform="matrix(-1 0 0 1 1977.4915 0)">
					<stop  offset="0" style="stop-color:#311944"/>
					<stop  offset="1" style="stop-color:#A03976"/>
				</linearGradient>
				<path style="fill:url(#SVGID_00000008867672277428173970000012890132250618889608_);" d="M1438.664,861.607L968.707,1673.34
					c-8.59,14.837,2.81,33.263,19.921,32.201l1292.791-18.272l340.796-727.08l-971.845-147.832L1438.664,861.607z"/>
				
					<linearGradient id="SVGID_00000079454848400419638360000012248150768551592325_" gradientUnits="userSpaceOnUse" x1="750.7817" y1="993.067" x2="221.7484" y2="1298.1832" gradientTransform="matrix(-1 0 0 1 1977.4915 0)">
					<stop  offset="0" style="stop-color:#311944"/>
					<stop  offset="1" style="stop-color:#A03976"/>
				</linearGradient>
				<path style="fill:url(#SVGID_00000079454848400419638360000012248150768551592325_);" d="M1452.733,861.607L982.775,1673.34
					c-8.59,14.837,2.81,33.263,19.921,32.201l1292.79-18.272l340.797-727.08l-971.846-147.832L1452.733,861.607z"/>
				
					<linearGradient id="SVGID_00000044150054690742958650000010751673233480150200_" gradientUnits="userSpaceOnUse" x1="614.809" y1="1298.9233" x2="-904.546" y2="1365.746" gradientTransform="matrix(-1 0 0 1 1977.4915 0)">
					<stop  offset="0" style="stop-color:#D8DEE8"/>
					<stop  offset="0.9964" style="stop-color:#AABBCC"/>
				</linearGradient>
				<polygon style="fill:url(#SVGID_00000044150054690742958650000010751673233480150200_);" points="1460.046,875.415 
					1014.167,1687.968 2254.483,1765.937 2518.671,1014 				"/>
				
					<linearGradient id="SVGID_00000033328021214171031190000017528613522601215645_" gradientUnits="userSpaceOnUse" x1="608.1614" y1="1247.4321" x2="-942.6308" y2="1315.6375" gradientTransform="matrix(-1 0 0 1 1977.4915 0)">
					<stop  offset="0.494" style="stop-color:#EAEDF3"/>
					<stop  offset="1" style="stop-color:#FFFFFF"/>
				</linearGradient>
				<polygon style="fill:url(#SVGID_00000033328021214171031190000017528613522601215645_);" points="2490.535,960.188 
					1625.347,855.733 1460.046,875.415 1136.48,1626.917 2616.326,1705.235 				"/>
				
					<linearGradient id="SVGID_00000060022175774235152740000017990960710306597551_" gradientUnits="userSpaceOnUse" x1="321.4244" y1="1226.7805" x2="525.7166" y2="1142.8746" gradientTransform="matrix(-1 0 0 1 1977.4915 0)">
					<stop  offset="0.494" style="stop-color:#EAEDF3"/>
					<stop  offset="1" style="stop-color:#FFFFFF"/>
				</linearGradient>
				<polygon style="fill:url(#SVGID_00000060022175774235152740000017990960710306597551_);" points="2490.535,960.188 
					1625.347,855.733 1505.98,869.946 1258.841,1672.955 2616.326,1705.235 				"/>
				
					<linearGradient id="SVGID_00000132767493589854993340000009133524189935040384_" gradientUnits="userSpaceOnUse" x1="158.4116" y1="1264.0238" x2="489.0515" y2="1158.5006" gradientTransform="matrix(-1 0 0 1 1977.4915 0)">
					<stop  offset="0.494" style="stop-color:#EAEDF3"/>
					<stop  offset="1" style="stop-color:#FFFFFF"/>
				</linearGradient>
				<polygon style="fill:url(#SVGID_00000132767493589854993340000009133524189935040384_);" points="2490.535,960.188 
					1625.347,855.733 1554.338,864.188 1417.842,1654.099 2616.326,1705.235 				"/>
				
					<linearGradient id="SVGID_00000099651275001448691120000016944072219867874749_" gradientUnits="userSpaceOnUse" x1="235.5922" y1="1257.1796" x2="-727.258" y2="1299.5266" gradientTransform="matrix(-1 0 0 1 1977.4915 0)">
					<stop  offset="0" style="stop-color:#D8DEE8"/>
					<stop  offset="0.9964" style="stop-color:#AABBCC"/>
				</linearGradient>
				<polygon style="fill:url(#SVGID_00000099651275001448691120000016944072219867874749_);" points="1625.347,855.733 
					1724.996,1644.883 2509.715,1687.269 1912.57,922.557 				"/>
				
					<linearGradient id="SVGID_00000096044118439938192070000011833290095449417604_" gradientUnits="userSpaceOnUse" x1="-427.7892" y1="700.4288" x2="-493.635" y2="2129.063" gradientTransform="matrix(-1 0 0 1 1977.4915 0)">
					<stop  offset="0" style="stop-color:#311944"/>
					<stop  offset="1" style="stop-color:#A03976"/>
				</linearGradient>
				<path style="fill:url(#SVGID_00000096044118439938192070000011833290095449417604_);" d="M2333.548,1645.233l-680.555-818.797
					l971.845,133.752l576.443,728.351c21.167,25.754,1.061,64.307-32.173,61.69l-744.059-58.604
					C2389.625,1688.834,2356.736,1672.16,2333.548,1645.233z"/>
				
					<linearGradient id="SVGID_00000016072615202608082320000013825757151912404121_" gradientUnits="userSpaceOnUse" x1="-818.2659" y1="994.7701" x2="-277.2929" y2="1438.5551" gradientTransform="matrix(-1 0 0 1 1977.4915 0)">
					<stop  offset="0" style="stop-color:#311944"/>
					<stop  offset="1" style="stop-color:#A03976"/>
				</linearGradient>
				<path style="fill:url(#SVGID_00000016072615202608082320000013825757151912404121_);" d="M2352.026,1645.233l-680.554-818.797
					l971.845,133.752l576.443,728.351c21.167,25.754,1.061,64.307-32.173,61.69l-744.059-58.604
					C2408.103,1688.834,2375.214,1672.16,2352.026,1645.233z"/>
				
					<linearGradient id="SVGID_00000059998473448979850460000010065426584685557674_" gradientUnits="userSpaceOnUse" x1="-499.448" y1="539.0988" x2="213.7821" y2="1124.1942" gradientTransform="matrix(-1 0 0 1 1977.4915 0)">
					<stop  offset="0" style="stop-color:#311944"/>
					<stop  offset="1" style="stop-color:#A03976"/>
				</linearGradient>
				<path style="fill:url(#SVGID_00000059998473448979850460000010065426584685557674_);" d="M2643.317,960.188l-990.323-133.752
					l-211.705,35.17l-0.001-30.492c55.957-41.853,129.964-46.483,211.705-35.17l990.323,145.371V960.188z"/>
				<polygon style="fill:#FFFFFF;" points="1966.498,971.795 2342.82,1411.424 2603.08,1436.043 2256.623,1024.551 				"/>
			</g>
			<g>
				
					<linearGradient id="SVGID_00000086670900104349618670000015493496742917970830_" gradientUnits="userSpaceOnUse" x1="262.7404" y1="-505.1945" x2="463.0385" y2="-960.7754" gradientTransform="matrix(-1 0 0 1 3119.8882 3501.6277)">
					<stop  offset="0" style="stop-color:#AA80F9"/>
					<stop  offset="0.9964" style="stop-color:#6165D7"/>
				</linearGradient>
				<path style="fill:url(#SVGID_00000086670900104349618670000015493496742917970830_);" d="M2277.544,2520.222l747.184-21.144
					c82.795-3.783,148.716,60.247,148.716,142.654v0.906c0,82.407-56.538,145.093-139.334,152.521l-725.992,57.86L2277.544,2520.222
					z"/>
				<g>
					<path style="fill:#EAEDF3;" d="M1014.065,2760.31L2287.69,2837.2c75.571,4.562,137.351-49.03,137.351-119.74v-47.969
						c0-70.71-61.78-130.617-137.351-133.78l-1273.624-53.293V2760.31z"/>
					
						<linearGradient id="SVGID_00000035520738485113908960000003602191346977975439_" gradientUnits="userSpaceOnUse" x1="662.7151" y1="-841.1006" x2="2132.1101" y2="-841.1006" gradientTransform="matrix(-1 0 0 1 3119.8882 3501.6277)">
						<stop  offset="0" style="stop-color:#AA80F9"/>
						<stop  offset="0.9964" style="stop-color:#6165D7"/>
					</linearGradient>
					<path style="fill:url(#SVGID_00000035520738485113908960000003602191346977975439_);" d="M1002.396,2774.415l1275.148,78.242
						c98.559,6.048,179.629-64.138,179.629-156.524v-1.015c0-92.385-81.07-170.863-179.629-174.896l-1275.148-52.176
						c-8.077-0.331-14.618,6.026-14.618,14.197c0,8.171,6.541,15.076,14.618,15.422l1275.148,54.696
						c79.351,3.404,144.482,66.652,144.482,140.961v1.013c0,74.309-65.131,130.896-144.482,126.183l-1275.148-75.722
						c-8.077-0.48-14.618,5.756-14.618,13.927C987.778,2766.893,994.319,2773.919,1002.396,2774.415z"/>
				</g>
				
					<linearGradient id="SVGID_00000109018115995675009770000013030571180094770063_" gradientUnits="userSpaceOnUse" x1="530.6099" y1="-1627.6315" x2="205.7363" y2="-533.3176" gradientTransform="matrix(-1 0 0 1 3119.8882 3501.6277)">
					<stop  offset="0.0036" style="stop-color:#E38DDD"/>
					<stop  offset="1" style="stop-color:#9571F6"/>
				</linearGradient>
				<path style="fill:url(#SVGID_00000109018115995675009770000013030571180094770063_);" d="M2247.985,2012.813l776.743,26.275
					c82.795,1.689,148.716,103.699,148.716,227.434v1.36c0,123.735-65.92,227.413-148.716,231.196l-725.944,20.232
					L2247.985,2012.813z"/>
				<g>
					<path style="fill:#EAEDF3;" d="M1014.065,2446.27l1205.604,47.542c112.783,4.447,205.372-77.971,205.372-184.144v-72.026
						c0-106.172-92.588-193.317-205.372-194.627l-1205.604-14.002V2446.27z"/>
					
						<linearGradient id="SVGID_00000088812663197805242670000001508094366138847160_" gradientUnits="userSpaceOnUse" x1="662.7151" y1="-1237.4475" x2="2132.1101" y2="-1237.4475" gradientTransform="matrix(-1 0 0 1 3119.8882 3501.6277)">
						<stop  offset="0.0036" style="stop-color:#E38DDD"/>
						<stop  offset="1" style="stop-color:#9571F6"/>
					</linearGradient>
					<path style="fill:url(#SVGID_00000088812663197805242670000001508094366138847160_);" d="M1002.396,2468.046l1275.148,52.176
						c98.559,4.033,179.629-105.505,179.629-244.222v-1.524c0-138.718-81.07-252.401-179.629-253.408l-1275.148-13.036
						c-8.077-0.083-14.618,9.797-14.618,22.066c0,12.269,6.541,22.301,14.618,22.407l1275.148,16.82
						c79.351,1.047,144.482,92.68,144.482,204.255v1.521c0,111.576-65.131,199.877-144.482,196.866l-1275.148-48.392
						c-8.077-0.306-14.618,9.391-14.618,21.66S994.319,2467.716,1002.396,2468.046z"/>
				</g>
				<g>
					<path style="fill:#D8DEE8;" d="M2342.341,2008.909l691.049,15.566c63.514,1.43,114.156-48.855,114.156-112.291v-43.035
						c0-63.437-50.642-118.024-114.156-121.989l-691.049-43.135V2008.909z"/>
					
						<linearGradient id="SVGID_00000126323627592681919390000014808375733250831754_" gradientUnits="userSpaceOnUse" x1="-82.3444" y1="-1643.726" x2="272.0443" y2="-1639.8528" gradientTransform="matrix(-1 0 0 1 3119.8882 3501.6277)">
						<stop  offset="0" style="stop-color:#AA80F9"/>
						<stop  offset="0.9964" style="stop-color:#6165D7"/>
					</linearGradient>
					<path style="fill:url(#SVGID_00000126323627592681919390000014808375733250831754_);" d="M2439.581,2022.724l585.148,16.364
						c82.796,1.689,148.716-64.009,148.716-146.416v-0.906c0-82.407-65.92-153.696-148.716-159.03l-585.148-45.76
						c-10.263-0.648-129.3,7.05-129.3,16.068c0,9.018,111.184,15.85,121.375,16.457l593.072,42.853
						c66.893,4.024,120.373,61.508,120.373,128.208v0.91c0,66.701-53.48,119.648-120.373,117.999l-585.148-19.206
						c-10.191-0.267-129.3,8.904-129.3,17.922C2310.281,2017.205,2429.327,2022.493,2439.581,2022.724z"/>
				</g>
				<g>
					<polygon style="fill:#EAEDF3;" points="1014.065,1993.329 2425.041,2006.36 2425.041,1702.327 1014.065,1715.438 					"/>
					
						<linearGradient id="SVGID_00000046340291333072345800000003055246164122973576_" gradientUnits="userSpaceOnUse" x1="662.7151" y1="-1792.499" x2="2132.1101" y2="-1792.499" gradientTransform="matrix(-1 0 0 1 3119.8882 3501.6277)">
						<stop  offset="0" style="stop-color:#AA80F9"/>
						<stop  offset="0.9964" style="stop-color:#6165D7"/>
					</linearGradient>
					<path style="fill:url(#SVGID_00000046340291333072345800000003055246164122973576_);" d="M1002.396,1731.281l1437.185-11.846
						c9.711-0.08,17.592-7.419,17.592-16.392c0-8.973-7.881-16.166-17.592-16.067l-1437.185,14.686
						c-8.077,0.083-14.618,6.773-14.618,14.945C987.778,1724.778,994.319,1731.348,1002.396,1731.281z"/>
					
						<linearGradient id="SVGID_00000057868511114544399170000017388996755427384197_" gradientUnits="userSpaceOnUse" x1="662.7151" y1="-1501.0593" x2="2132.1101" y2="-1501.0593" gradientTransform="matrix(-1 0 0 1 3119.8882 3501.6277)">
						<stop  offset="0" style="stop-color:#AA80F9"/>
						<stop  offset="0.9964" style="stop-color:#6165D7"/>
					</linearGradient>
					<path style="fill:url(#SVGID_00000057868511114544399170000017388996755427384197_);" d="M1002.396,2008.031l1437.185,14.693
						c9.711,0.099,17.592-7.094,17.592-16.067c0-8.973-7.881-16.312-17.592-16.392l-1437.185-11.852
						c-8.077-0.067-14.618,6.503-14.618,14.674C987.778,2001.258,994.319,2007.948,1002.396,2008.031z"/>
				</g>
				<path style="opacity:0.5;fill:#FFFFFF;" d="M2493.348,2450.778l154.301-8.813c37.291-106.301,34.471-208.81,0-333.52
					l-154.301,0.467C2524.281,2236.229,2519.576,2348.833,2493.348,2450.778z"/>
				
					<linearGradient id="SVGID_00000005247070507233201860000016698615263346342333_" gradientUnits="userSpaceOnUse" x1="231.5429" y1="-1403.0018" x2="164.3422" y2="-1502.4938" gradientTransform="matrix(-1 0 0 1 3119.8882 3501.6277)">
					<stop  offset="0" style="stop-color:#FFC444"/>
					<stop  offset="0.9964" style="stop-color:#F36F56"/>
				</linearGradient>
				<path style="opacity:0.3;fill:url(#SVGID_00000005247070507233201860000016698615263346342333_);" d="M2813.198,2036.696
					l4.907-192.466l177.129,194.994c0,0,95.714,51.59,79.275,142.174l-109.498-43.563l-97.262,33.702
					C2867.748,2171.536,2865.31,2076.399,2813.198,2036.696z"/>
				
					<linearGradient id="SVGID_00000020368149660301591240000012146191910558857109_" gradientUnits="userSpaceOnUse" x1="214.9498" y1="-1427.5682" x2="120.0599" y2="-1568.0547" gradientTransform="matrix(-1 0 0 1 3119.8882 3501.6277)">
					<stop  offset="0" style="stop-color:#AA80F9"/>
					<stop  offset="0.9964" style="stop-color:#6165D7"/>
				</linearGradient>
				<path style="fill:url(#SVGID_00000020368149660301591240000012146191910558857109_);" d="M3015.148,1856.273l-197.043-12.044
					c0,0,92.67,70.412,49.644,327.307c0,0,84.239-26.759,120.883-72.571l85.877,82.432
					C3074.509,2181.397,3126.943,1952.992,3015.148,1856.273z"/>
			</g>
		</g>
		<g>
			<g>
				
					<linearGradient id="SVGID_00000059310143086437582840000017936201794209528710_" gradientUnits="userSpaceOnUse" x1="1754.1807" y1="1888.6282" x2="2755.8564" y2="4028.4255" gradientTransform="matrix(0.9986 -0.0531 0.0531 0.9986 -793.2835 189.0554)">
					<stop  offset="0" style="stop-color:#FF9085"/>
					<stop  offset="1" style="stop-color:#FB6FBB"/>
				</linearGradient>
				<path style="fill:url(#SVGID_00000059310143086437582840000017936201794209528710_);" d="M1209.317,1886.997
					c0,0-184.04-282.857-385.58,225.518c-156.933,395.86-19.378,819.668,397.47,915.809
					c416.848,96.14,1045.457-176.186,835.248-333.385C1610.552,2361.482,1269.715,2063.025,1209.317,1886.997z"/>
				<g style="opacity:0.35;">
					
						<linearGradient id="SVGID_00000021826856828328321120000010322601013346728365_" gradientUnits="userSpaceOnUse" x1="1869.1758" y1="1834.7985" x2="2870.8486" y2="3974.5891" gradientTransform="matrix(0.9986 -0.0531 0.0531 0.9986 -793.2835 189.0554)">
						<stop  offset="0" style="stop-color:#FF9085"/>
						<stop  offset="1" style="stop-color:#FB6FBB"/>
					</linearGradient>
					<path style="fill:url(#SVGID_00000021826856828328321120000010322601013346728365_);" d="M1027.62,2160.372
						c-9.334,36.193-23.32,136.922-12.103,252.451c10.006,103.057,3.5,157.56,171.836,223.958
						c57.699,22.759,101.001,102.408,189.833,146.438c40.275,19.963,191.818,91.876,380.344,49.542
						c124.739-28.011,215.178-94.731,275.232-155.615c-434.209-326.251-764.124-617.263-823.445-790.149
						c0,0-67.241-103.266-164.928-72.781c25.446,25.505,54.03,64.737,64.729,118.941
						C1124.263,2009.875,1058.248,2041.614,1027.62,2160.372z"/>
				</g>
				<g style="opacity:0.13;">
					
						<linearGradient id="SVGID_00000132065410658593517490000004010870457732041876_" gradientUnits="userSpaceOnUse" x1="1754.1779" y1="1888.6237" x2="2755.8606" y2="4028.436" gradientTransform="matrix(0.9986 -0.0531 0.0531 0.9986 -793.2835 189.0554)">
						<stop  offset="0" style="stop-color:#FF9085"/>
						<stop  offset="1" style="stop-color:#FB6FBB"/>
					</linearGradient>
					<path style="fill:url(#SVGID_00000132065410658593517490000004010870457732041876_);" d="M1872.121,2876.01
						c-188.476,117.542-509.292,200.223-760.44,33.614c-232.541-154.265-267.262-431.47-279.234-515.995
						c-20.922-147.721,1.204-278.495,37.471-384.959c-15.239,30.259-30.658,64.687-46.179,103.844
						c-156.934,395.86-19.378,819.668,397.47,915.809c410.31,94.631,1025.787-167.732,844.522-325.904
						C2019.679,2760.281,1956.743,2823.237,1872.121,2876.01z"/>
				</g>
			</g>
		</g>
		<g>
			
				<linearGradient id="SVGID_00000139988603886633554580000013007454914866068394_" gradientUnits="userSpaceOnUse" x1="3985.969" y1="1638.4889" x2="4800.8062" y2="2191.9629" gradientTransform="matrix(-0.9986 0.0531 0.0531 0.9986 5432.4199 -141.5811)">
				<stop  offset="0" style="stop-color:#311944"/>
				<stop  offset="1" style="stop-color:#6B3976"/>
			</linearGradient>
			<path style="fill:url(#SVGID_00000139988603886633554580000013007454914866068394_);" d="M1509.963,2002.644
				c14.78-10.738-0.703-38.868-4.823-100.836c-5.05-75.939,14.382-91.173-3.415-120.126c-21.761-35.404-72.462-47.839-105.56-46.792
				c-7.3,0.231-9.216-3.66-69.461,15.406c-108.539,34.352-137.713,5.263-185.375,38.402c-46.048,32.019-23.481,63.205-67.88,100.244
				c-71.969,60.039-154.004,3.625-205.077,53.361c-48.308,47.043-43.47,160.1,13.101,218.932
				c64.13,66.695,171.951,39.902,244.23,22.159c15.208-3.732,91.936-24.151,169.558-88.076
				c42.939-35.365,71.754-72.225,89.898-99.219c4.308-5.4,11.126-12.028,20.511-13.535c11.267-1.812,20.739,4.635,25.287,7.44
				C1454.839,2004.73,1495.444,2013.191,1509.963,2002.644z"/>
			
				<linearGradient id="SVGID_00000099644936240033502320000009489066806590553519_" gradientUnits="userSpaceOnUse" x1="3938.1033" y1="2064.1816" x2="4191.7964" y2="2064.1816" gradientTransform="matrix(-0.9986 0.0531 0.0531 0.9986 5525.9136 -146.5505)">
				<stop  offset="0.0036" style="stop-color:#E38DDD"/>
				<stop  offset="1" style="stop-color:#9571F6"/>
			</linearGradient>
			<path style="fill:url(#SVGID_00000099644936240033502320000009489066806590553519_);" d="M1446.243,1964.265
				c18.729-18.977,90.803,11.849,139.789,55.244c57.55,50.981,55.667,94.897,106.95,159.306
				c25.492,32.021,26.223,155.508-39.814,117.227c-45.873-26.594-70.724-63.741-118.552-136.949
				C1486.616,2085.62,1422.831,1987.989,1446.243,1964.265z"/>
			
				<linearGradient id="SVGID_00000012433637381115592580000015495945616476566153_" gradientUnits="userSpaceOnUse" x1="2315.0093" y1="4773.4946" x2="2434.7546" y2="4773.4946" gradientTransform="matrix(-0.8594 -0.5113 -0.5113 0.8594 6381.6318 87.8154)">
				<stop  offset="0" style="stop-color:#311944"/>
				<stop  offset="1" style="stop-color:#6B3976"/>
			</linearGradient>
			<path style="fill:url(#SVGID_00000012433637381115592580000015495945616476566153_);" d="M1932.11,2994.964l-24.909-46.362
				c-3.538-6.586-8.802-12.086-15.227-15.909l-11.476-6.828c0,0-26.528,0.705-29.766,17.575
				c0.237,21.192,43.841,66.256,70.826,83.636c4.48,2.885,10.853,6.709,14.478,4.374
				C1942.173,3027.497,1936.698,3008.283,1932.11,2994.964z"/>
			
				<linearGradient id="SVGID_00000101071893255170645220000011872384599327206047_" gradientUnits="userSpaceOnUse" x1="3675.8574" y1="2985.3262" x2="3871.2705" y2="2399.0852" gradientTransform="matrix(-0.9986 0.0531 0.0531 0.9986 5432.4199 -141.5811)">
				<stop  offset="0" style="stop-color:#FFC444"/>
				<stop  offset="0.9964" style="stop-color:#F36F56"/>
			</linearGradient>
			<path style="fill:url(#SVGID_00000101071893255170645220000011872384599327206047_);" d="M1884.869,2899.705
				c-2.44,20.583,2.583,30.98,7.706,36.681c3.605,4.012,33.458,47.81,22.573,55.717c-4.912,3.568-42.084-37.879-45.819-44.334
				c-3.382-5.845-5.298-4.322-6.347-20.682c-0.689-10.771-3.342-19.329-5.353-24.665
				C1866.71,2901.516,1875.789,2900.612,1884.869,2899.705z"/>
			
				<linearGradient id="SVGID_00000038394048300400675540000012216874056687329713_" gradientUnits="userSpaceOnUse" x1="3643.0889" y1="2716.1213" x2="3710.2004" y2="2716.1213" gradientTransform="matrix(-0.9986 0.0531 0.0531 0.9986 5432.4199 -141.5811)">
				<stop  offset="0" style="stop-color:#311944"/>
				<stop  offset="1" style="stop-color:#6B3976"/>
			</linearGradient>
			<path style="fill:url(#SVGID_00000038394048300400675540000012216874056687329713_);" d="M1915.913,2735.956
				c0,0,26.343,28.241,24.034,60.86c-2.309,32.616-48.21-12.451-55.107-28.141c-6.901-15.688-15.178-38.123-15.178-38.123
				S1899.077,2710.01,1915.913,2735.956z"/>
			
				<linearGradient id="SVGID_00000170964076874018623860000008048671908642903937_" gradientUnits="userSpaceOnUse" x1="3604.1907" y1="2900.4009" x2="3713.7791" y2="2571.6348" gradientTransform="matrix(-0.9986 0.0531 0.0531 0.9986 5432.4199 -141.5811)">
				<stop  offset="0" style="stop-color:#FFC444"/>
				<stop  offset="0.9964" style="stop-color:#F36F56"/>
			</linearGradient>
			<path style="fill:url(#SVGID_00000170964076874018623860000008048671908642903937_);" d="M1904.006,2690.21
				c0,0-4.89,34.793,8.893,52.286c6.865,8.713,15.884,15.933,13.744,23.436c-1.434,5.028-7.689,8.918-13.177,8.648
				c-10.507-0.517-17.15-16.23-21.837-27.312c-6.921-16.369-12.183-51.902-12.183-51.902L1904.006,2690.21z"/>
			
				<linearGradient id="SVGID_00000039845383159208177540000002073907600381944211_" gradientUnits="userSpaceOnUse" x1="3739.2202" y1="2346.5044" x2="3820.9602" y2="2819.0645" gradientTransform="matrix(-0.9986 0.0531 0.0531 0.9986 5432.4199 -141.5811)">
				<stop  offset="0" style="stop-color:#40447E"/>
				<stop  offset="0.9964" style="stop-color:#3C3B6B"/>
			</linearGradient>
			<path style="fill:url(#SVGID_00000039845383159208177540000002073907600381944211_);" d="M1885.805,2720.288
				c7.472-3.179,14.942-6.36,22.412-9.539c10.442-27.778,22.577-73.135,14.852-127.07
				c-19.868-138.706-152.692-205.706-167.432-212.849c-34.183,19.488-68.433,46.236-68.057,77.642
				c0.475,39.424,55.17,57.37,108.604,112.215C1828.258,2593.607,1863.304,2643.337,1885.805,2720.288z"/>
			
				<linearGradient id="SVGID_00000039120124022990036180000008348741509229691017_" gradientUnits="userSpaceOnUse" x1="3854.6536" y1="2906.551" x2="3970.8784" y2="2538.7195" gradientTransform="matrix(-0.9986 0.0531 0.0531 0.9986 5432.4199 -141.5811)">
				<stop  offset="0" style="stop-color:#40447E"/>
				<stop  offset="0.9964" style="stop-color:#3C3B6B"/>
			</linearGradient>
			<path style="fill:url(#SVGID_00000039120124022990036180000008348741509229691017_);" d="M1887.948,2915.527
				c19.944-99.665,9.249-179.561-0.469-225.398c-14.69-69.28-44.566-210.203-142.261-258.151
				c-21.334-10.47-51.504-19.258-89.314-49.512c-31.575-25.263-52.238-52.5-64.857-71.792
				c-128.868-30.479-245.105-9.173-293.133,61.624c-5.549,8.181-19.582,26.031-21.135,51.335
				c-3.506,57.091,55.882,122.444,119.204,133.385c80.478,13.905,45.283-8.652,117.175,14.769
				c20.11,6.551,128.532-7.426,163.949,28.458c45.055,45.648,57.57,58.964,67.552,76.172
				c29.719,51.243,52.199,89.042,57.855,139.277c1.317,11.702,2.992,35.399,18.102,60.247c11.599,19.075,26.602,31.407,37.676,38.93
				C1868.177,2915.089,1878.063,2915.31,1887.948,2915.527z"/>
			
				<linearGradient id="SVGID_00000062907133076482227070000003370194463191965335_" gradientUnits="userSpaceOnUse" x1="3854.1362" y1="2906.3972" x2="3970.3623" y2="2538.5613" gradientTransform="matrix(-0.9986 0.0531 0.0531 0.9986 5432.4199 -141.5811)">
				<stop  offset="0" style="stop-color:#40447E"/>
				<stop  offset="0.9964" style="stop-color:#3C3B6B"/>
			</linearGradient>
			<path style="opacity:0.3;fill:url(#SVGID_00000062907133076482227070000003370194463191965335_);" d="M1276.778,2423.634
				c1.553-25.304,15.586-43.154,21.136-51.335c48.027-70.797,164.263-92.103,293.133-61.625
				c12.619,19.292,33.281,46.53,64.855,71.793c37.811,30.253,67.981,39.041,89.316,49.511
				c59.657,29.279,93.999,93.219,115.064,154.353c-28.532-39.467-51.671-49.133-69.142-48.399
				c-25.008,1.051-35.04,23.013-65.036,21.683c-28.676-1.272-34.853-24.758-66.775-29.064c-27.492-3.709-46.829,12.269-67.33,23.243
				c-85.183,45.599-192.163-3.471-197.047-5.41C1342.329,2527.496,1273.097,2483.595,1276.778,2423.634z"/>
			
				<linearGradient id="SVGID_00000142162620660864540660000016274228686551045822_" gradientUnits="userSpaceOnUse" x1="4018.2068" y1="2298.8083" x2="4099.7554" y2="2770.2625" gradientTransform="matrix(-0.9986 0.0531 0.0531 0.9986 5432.4199 -141.5811)">
				<stop  offset="0" style="stop-color:#40447E"/>
				<stop  offset="0.9964" style="stop-color:#3C3B6B"/>
			</linearGradient>
			<path style="fill:url(#SVGID_00000142162620660864540660000016274228686551045822_);" d="M1798.509,2473.248
				c-14.402,0-36.543,0.734-63.081,4.788c-125.944,19.241-157.518,83.723-261.346,104.567
				c-24.561,4.931-133.917,26.885-185.04-34.29c-36.701-43.921-35.705-123.014,0.131-156.007
				c15.167-13.962,30.893-14.433,132.541-18.915c38.28-1.687,76.55-3.597,114.837-5.143c162.07-6.545,192.447-19.407,223.34,5.814
				C1774.302,2385.829,1795.832,2411.602,1798.509,2473.248z"/>
			<g>
				<g>
					
						<linearGradient id="SVGID_00000003072636058587837410000017317666651773987758_" gradientUnits="userSpaceOnUse" x1="4204.4292" y1="2073.0559" x2="4304.8555" y2="2532.1458" gradientTransform="matrix(-0.9986 0.0531 0.0531 0.9986 5525.9136 -146.5505)">
						<stop  offset="0.0036" style="stop-color:#E38DDD"/>
						<stop  offset="1" style="stop-color:#9571F6"/>
					</linearGradient>
					<path style="fill:url(#SVGID_00000003072636058587837410000017317666651773987758_);" d="M1428.974,1971.774
						c0,0-129.823-30.487-182.738,36.241c-9.715,12.251-17.069,28.073-21.437,58.091c-22.26,152.973,97.198,237.794,56.282,320.046
						c-16.248,32.663-47.327,43.896-66.744,102.076c-3.287,9.849-15.177,45.477-1.981,55.802
						c11.623,9.094,28.803-12.323,61.462-10.099c34.585,2.354,44.017,28.325,66.933,23.253c14.941-3.308,20.755-16.523,41.257-49.79
						c29.681-48.162,44.521-72.242,55.612-80.999c43.758-34.549,81.126,5.487,131.283-29.086
						c18.158-12.518,82.947-105.759,63.793-80.073l0,0c-51.931-58.169-65.913-107.694-68.928-142.484
						c-3.307-38.142,6.784-56.093-5.355-100.744c0,0-13.544-49.82-55.043-91.013
						C1497.413,1977.083,1490.361,1970.969,1428.974,1971.774z"/>
				</g>
			</g>
			<g>
				
					<linearGradient id="SVGID_00000089555239327657619550000002110230552270269101_" gradientUnits="userSpaceOnUse" x1="-1962.3877" y1="2627.5132" x2="-1954.0596" y2="2405.6797" gradientTransform="matrix(0.9921 0.1259 -0.1259 0.9921 3673.6455 -292.8886)">
					<stop  offset="0" style="stop-color:#FFC444"/>
					<stop  offset="0.9964" style="stop-color:#F36F56"/>
				</linearGradient>
				<path style="fill:url(#SVGID_00000089555239327657619550000002110230552270269101_);" d="M1383.52,1891.036
					c2.161,7.996,13.281,50.933-3.884,63.043c-3.721,2.627-11.043,4.405-25.69,7.965c-9.589,2.33-17.656,3.875-23.352,4.865
					c1.215,7.234,4.296,18.95,13.269,29.28c25.151,28.956,71.947,18.63,78.614,17.046c23.517-5.586,46.496-14.166,51.901-18.95
					c8.23-7.285,14.714-12.767,18.434-18.184c-9.427-3.952-28.602-14.678-41.258-17.85c-9.457-2.367-18.301-3.946-26.324-4.99
					c-1.75-8.315-3.504-16.63-5.256-24.945C1407.822,1915.889,1395.67,1903.463,1383.52,1891.036z"/>
				
					<linearGradient id="SVGID_00000083051093974076269240000010541764056443281284_" gradientUnits="userSpaceOnUse" x1="-1964.9851" y1="2431.6785" x2="-1968.5499" y2="2718.894" gradientTransform="matrix(0.9921 0.1259 -0.1259 0.9921 3673.6455 -292.8886)">
					<stop  offset="0" style="stop-color:#FFC444"/>
					<stop  offset="0.9964" style="stop-color:#F36F56"/>
				</linearGradient>
				<path style="fill:url(#SVGID_00000083051093974076269240000010541764056443281284_);" d="M1383.838,1912.711
					c0,0,4.9,31.637,36.117,35.599c27.952,3.548,45.236-64.46,30.149-81.011c-5.033-5.521-16.992-10.393-27.092-9.564
					c-7.102,0.584-30.643,11.012-32.719,35.232c-5.053-4.787-11.093-5.919-13.921-3.652c-3.587,2.876-1.176,10.557-0.628,12.296
					C1377.638,1907.639,1381.83,1911.215,1383.838,1912.711z"/>
			</g>
			
				<linearGradient id="SVGID_00000124880532414451859270000007354142444746238866_" gradientUnits="userSpaceOnUse" x1="4014.7722" y1="2283.6245" x2="4455.5142" y2="2283.6245" gradientTransform="matrix(-0.9986 0.0531 0.0531 0.9986 5525.9136 -146.5505)">
				<stop  offset="0" style="stop-color:#AA80F9"/>
				<stop  offset="0.9964" style="stop-color:#6165D7"/>
			</linearGradient>
			<path style="opacity:0.3;fill:url(#SVGID_00000124880532414451859270000007354142444746238866_);" d="M1632.697,2317.237
				c-6.248-7-11.919-13.866-17.115-20.604c-27.338-7.572-50.754-9.685-69.547-9.599c-42.392,0.197-65.016,11.375-94.719-4.414
				c-33.715-17.924-29.383-45.522-61.72-59.079c-34.034-14.268-56.532,5.096-88.765,0.94c-19.465-2.51-43.632-14.154-69.594-50.487
				c23.162,89.569,79.978,151.579,49.843,212.159c-16.248,32.663-47.327,43.896-66.744,102.076
				c-3.287,9.849-15.177,45.477-1.981,55.802c11.623,9.094,28.803-12.323,61.462-10.099c34.585,2.354,44.018,28.325,66.933,23.253
				c14.941-3.308,20.755-16.523,41.257-49.79c29.681-48.162,44.521-72.242,55.612-80.999c43.758-34.549,81.127,5.487,131.283-29.086
				C1587.062,2384.791,1651.85,2291.551,1632.697,2317.237z"/>
			<g>
				
					<linearGradient id="SVGID_00000054243399028913109160000000559870823713974446_" gradientUnits="userSpaceOnUse" x1="4358.7334" y1="2039.2983" x2="4459.1597" y2="2498.3901" gradientTransform="matrix(-0.9986 0.0531 0.0531 0.9986 5525.9136 -146.5505)">
					<stop  offset="0.0036" style="stop-color:#E38DDD"/>
					<stop  offset="1" style="stop-color:#9571F6"/>
				</linearGradient>
				<path style="fill:url(#SVGID_00000054243399028913109160000000559870823713974446_);" d="M1405.841,2335.18
					c3.236-10.143,6.474-20.284,9.71-30.427c-42.217-9.198-100.663-22.993-160.813-40.949c-9.42-2.813-20.621-6.32-24.736-15.857
					c-11.544-26.752,51.12-58.44,72.898-119.351c20.141-56.333,3.378-132.133-23.876-139.745
					c-56.713-15.839-241.212,240.59-165.138,340.511C1156.888,2385.846,1280.358,2388.64,1405.841,2335.18z"/>
			</g>
			
				<linearGradient id="SVGID_00000017510025811626471260000008874472371487379640_" gradientUnits="userSpaceOnUse" x1="4049.7661" y1="2236.604" x2="3812.7058" y2="1823.0095" gradientTransform="matrix(-0.9986 0.0531 0.0531 0.9986 5525.9136 -146.5505)">
				<stop  offset="0" style="stop-color:#311944"/>
				<stop  offset="1" style="stop-color:#6B3976"/>
			</linearGradient>
			<path style="fill:url(#SVGID_00000017510025811626471260000008874472371487379640_);" d="M1569.656,2327.92
				c5.227-5.08,51.982-221.736,65.427-284.442c1.589-7.411,10.655-10.216,16.182-5.029l64.823,60.846l-48.457,260.635
				l-31.308,17.241C1636.323,2377.172,1563.543,2333.86,1569.656,2327.92z"/>
			
				<linearGradient id="SVGID_00000119094293376186881510000003632501760889982342_" gradientUnits="userSpaceOnUse" x1="3967.0574" y1="2355.7808" x2="4109.1089" y2="2110.9294" gradientTransform="matrix(-0.9986 0.0531 0.0531 0.9986 5525.9136 -146.5505)">
				<stop  offset="0" style="stop-color:#311944"/>
				<stop  offset="1" style="stop-color:#6B3976"/>
			</linearGradient>
			<path style="fill:url(#SVGID_00000119094293376186881510000003632501760889982342_);" d="M1445.396,2345.69l40.797-238.213
				c2.106-12.3,13.331-20.904,25.755-19.741l179.001,16.745l-51.335,272.516l-171.16-3.407
				C1453.852,2373.299,1442.931,2360.084,1445.396,2345.69z"/>
			
				<linearGradient id="SVGID_00000169531014145878670440000011646850292806105747_" gradientUnits="userSpaceOnUse" x1="-3846.6807" y1="2230.4944" x2="-3951.9258" y2="2329.6743" gradientTransform="matrix(0.9986 -0.0531 0.0531 0.9986 5202.5811 -129.6406)">
				<stop  offset="0" style="stop-color:#FFC444"/>
				<stop  offset="0.9964" style="stop-color:#F36F56"/>
			</linearGradient>
			<path style="fill:url(#SVGID_00000169531014145878670440000011646850292806105747_);" d="M1415.551,2304.753
				c25.385-15.265,57.411-2.704,59.476-1.859c5.884,2.405,14.495,6.787,23.393,14.96c1.024,1.251,13.19,16.35,9.33,21.602
				c-3.096,4.207-16.087,1.547-31.997-7.213c-6.504-0.562-16.159-0.882-27.616,0.79c-21.04,3.074-30.37,10.268-38.352,4.911
				c-5.844-3.922-8.234-12.744-6.564-19.486C1405.015,2311.214,1411.254,2307.338,1415.551,2304.753z"/>
			
				<rect x="1514.217" y="2149.729" transform="matrix(-0.9964 -0.0843 0.0843 -0.9964 2966.0115 4463.9092)" style="fill:#FFFFFF;" width="126.007" height="39.252"/>
		</g>
		<g>
			
				<linearGradient id="SVGID_00000067954684507672963110000001816549111428937130_" gradientUnits="userSpaceOnUse" x1="2140.2498" y1="2418.7764" x2="2281.3926" y2="3159.7769">
				<stop  offset="0" style="stop-color:#FFC444"/>
				<stop  offset="0.9964" style="stop-color:#F36F56"/>
			</linearGradient>
			<path style="fill:url(#SVGID_00000067954684507672963110000001816549111428937130_);" d="M2423.422,2643.298
				c-1.794-10.201-31.93-3.3-81.287-19.142c-67.486-21.66-66.117-52.203-117.254-63.222c-57.473-12.384-74.786,22.838-124.62,4.474
				c-2.795-1.03-54.769-21.03-72.634-69.115c-15.142-40.756,6.596-68.373-16.027-98.354c-9.358-12.401-27.831-27.229-45.084-24.276
				c-34.492,5.903-59.277,82.047-47.685,144.788c12.96,70.147,73.958,137.431,123.98,132.651
				c32.306-3.087,44.914-34.787,78.03-29.478c29.217,4.684,31.334,31.273,58.089,33.813c32.212,3.058,40.395-34.416,84.099-39.015
				c24.62-2.591,55.402,5.789,64.829,24.914c7.581,15.382-3.576,27.721,3.664,35.776
				C2347.63,2695.033,2426.375,2660.085,2423.422,2643.298z"/>
			
				<linearGradient id="SVGID_00000157289445945633242150000004446918624401601701_" gradientUnits="userSpaceOnUse" x1="1915.9424" y1="2532.4199" x2="2361.1567" y2="2532.4199">
				<stop  offset="0" style="stop-color:#FFC444"/>
				<stop  offset="0.9964" style="stop-color:#F36F56"/>
			</linearGradient>
			<path style="opacity:0.3;fill:url(#SVGID_00000157289445945633242150000004446918624401601701_);" d="M2259.56,2600.816
				c-25.085,2.803-26.116,18.932-50.886,21.794c-33.779,3.903-42.864-24.818-79.164-28.73
				c-47.686-5.138-72.437,40.075-95.369,27.744c-18.414-9.901-3.149-39.428-19.941-85.832
				c-20.731-57.293-62.1-62.307-70.226-105.774c-2.182-11.665-2.19-27.287,5.493-47.266
				c-24.993,23.023-40.202,83.922-30.636,135.699c12.96,70.147,73.958,137.431,123.98,132.651
				c32.306-3.087,44.914-34.787,78.03-29.478c29.217,4.684,31.334,31.273,58.089,33.813c32.212,3.058,40.395-34.416,84.099-39.015
				c24.62-2.591,55.402,5.789,64.829,24.914c7.581,15.382-3.576,27.721,3.664,35.776c5.111,5.685,16.527,6.045,29.636,3.357
				c-4.203-12.883-11.34-27.684-23.567-41.505C2333.126,2633.918,2299.857,2596.313,2259.56,2600.816z"/>
			
				<linearGradient id="SVGID_00000066489352652227029640000018412225482007826612_" gradientUnits="userSpaceOnUse" x1="2656.9468" y1="2418.2356" x2="2719.5352" y2="2418.2356">
				<stop  offset="0" style="stop-color:#FFC444"/>
				<stop  offset="0.9964" style="stop-color:#F36F56"/>
			</linearGradient>
			<path style="fill:url(#SVGID_00000066489352652227029640000018412225482007826612_);" d="M2718.443,2432.292
				c5.636-17.505-12.159-35.851-16.594-40.423c-12.774-13.17-34.321-24.271-42.362-17.666c-4.117,3.382-2.333,9.462-0.867,26.01
				c3.719,41.998-2.818,58.794,6.069,63.29c4.377,2.215,10.473-0.791,22.666-6.804
				C2704.26,2448.364,2714.968,2443.084,2718.443,2432.292z"/>
			
				<linearGradient id="SVGID_00000046322773641328914030000000817882756880536221_" gradientUnits="userSpaceOnUse" x1="2659.4236" y1="2423.4917" x2="2690.0166" y2="2423.4917">
				<stop  offset="0" style="stop-color:#FF9085"/>
				<stop  offset="1" style="stop-color:#FB6FBB"/>
			</linearGradient>
			<path style="fill:url(#SVGID_00000046322773641328914030000000817882756880536221_);" d="M2672.152,2391.804
				c-3.902-3.858-7.979-6.796-11.857-9.052c-1.781,3.469-0.461,9.495,0.668,22.24c3.441,38.864-2.607,54.406,5.616,58.566
				c3.827,1.937,9.081-0.444,19.166-5.405c1.739-4.268,3.138-9.043,3.876-14.35
				C2689.924,2441.627,2693.432,2412.839,2672.152,2391.804z"/>
			
				<linearGradient id="SVGID_00000126312738829484378370000015779105881099227296_" gradientUnits="userSpaceOnUse" x1="2274.9856" y1="2905.4626" x2="2509.3167" y2="2905.4626">
				<stop  offset="0" style="stop-color:#FFC444"/>
				<stop  offset="0.9964" style="stop-color:#F36F56"/>
			</linearGradient>
			<path style="fill:url(#SVGID_00000126312738829484378370000015779105881099227296_);" d="M2509.255,2808.028
				c2.133,15.851-51.188,31.318-128.653,97.79c-12.532,10.753-31.165,27.535-29.471,47.883c1.035,12.436,9.923,29.32,24.395,37.429
				c10.775,6.037,19.726,4.456,26.221,13.417c3.523,4.86,6.793,13.466,3.468,18.496c-6.106,9.235-32.758,3.835-50.47-4.911
				c-23.712-11.709-35.717-31.546-39.917-38.691c-6.717-11.425-5.386-14.071-13.787-34.023
				c-14.279-33.909-22.598-36.897-25.296-49.535c-6.812-31.9,33.549-72.082,68.203-91.323
				C2414.5,2765.386,2506.551,2787.934,2509.255,2808.028z"/>
			
				<linearGradient id="SVGID_00000003077461855453516170000010200337228086010782_" gradientUnits="userSpaceOnUse" x1="2637.5161" y1="2886.5117" x2="2733.9219" y2="2886.5117">
				<stop  offset="0" style="stop-color:#FFC444"/>
				<stop  offset="0.9964" style="stop-color:#F36F56"/>
			</linearGradient>
			<path style="fill:url(#SVGID_00000003077461855453516170000010200337228086010782_);" d="M2639.882,2798.779
				c-11.403,30.541,22.382,47.15,17.34,101.728c-1.283,13.881-4.673,25.851-6.844,56.649c-2.299,32.601,0.068,39.496,4.091,44.552
				c15.144,19.032,56.638,15.604,62.312,2.898c2.775-6.212-2.671-15.416-5.59-20.348c-5.979-10.104-12.557-13.039-15.995-16.956
				c-14.473-16.492,20.062-57.973,32.542-109.567c6.233-25.764,13.652-81.687-10.404-95.947
				C2696.183,2749.25,2650.97,2769.082,2639.882,2798.779z"/>
			
				<linearGradient id="SVGID_00000073002873293616357900000000388669761411879583_" gradientUnits="userSpaceOnUse" x1="2506.0254" y1="2468.1887" x2="2481.7488" y2="3286.6296">
				<stop  offset="0" style="stop-color:#FFC444"/>
				<stop  offset="0.9964" style="stop-color:#F36F56"/>
			</linearGradient>
			<path style="fill:url(#SVGID_00000073002873293616357900000000388669761411879583_);" d="M2667.248,2454.702
				c-2.203,2.89-0.38,0.807-21.71,50.366c-1.674,3.889-4.161,9.655-1.899,15.116c3.465,8.364,14.703,7.88,23.052,12.764
				c18.403,10.768,24.712,48.749,12.677,70.515c-9.402,17.005-29.56,25.46-77.755,31.055
				c-103.952,12.067-129.306-13.44-198.746-0.43c-30.308,5.678-85.597,16.037-120.951,59.73
				c-44.039,54.427-9.737,101.986-59.333,149.499c-13.824,13.243-35.638,27.894-77.011,68.294
				c-3.47,3.388-13.187,7.517-17.794,17.794c-5.339,11.907-1.676,23.913,9.248,52.02c15.033,38.682,22.723,58.133,31.212,63.579
				c20.987,13.464,53.697,10.65,60.111-2.312c3.844-7.767-2.188-18.298-6.936-26.588c-14.18-24.759-31.449-25.023-34.545-37.656
				c-4.751-19.386,28.611-48.588,61.964-63.446c40.633-18.101,52.487-2.099,97.428-21.433c30.643-13.182,32.94-23.982,61.224-31.522
				c24.949-6.651,42.752-3.47,69.341-0.729c93.443,9.634,90.606-7.266,136.623,5.014c23.639,6.309,76.439,20.399,107.704,65.219
				c22.143,31.744,14.325,51.437,44.733,83.396c8.649,9.09,35.428,37.235,64.846,31.821c11.845-2.18,25.479-10.051,25.321-17.949
				c-0.217-10.803-26.011-10.198-46.793-28.033c-22.238-19.084-25.39-47.827-30.449-93.96c-4.46-40.673-7.128-65.005,6.558-89.904
				c11.119-20.229,21.745-20.295,35.266-44.128c15.089-26.596,16.577-52.462,17.161-64.996
				c1.98-42.478-12.637-90.226-23.611-126.072c-3.952-12.911-10.208-31.976-1.306-41.21c8.346-8.656,22.912-1.3,30.458-8.776
				c6.146-6.088,7.076-21.462-12.447-60.531c5.128-12.884,10.685-31.022,12.475-53.231c1.189-14.753,0.431-27.757-0.944-38.334
				c-13.083,3.777-30.539,10.503-48.589,22.955c-9.486,6.543-17.246,13.365-23.469,19.63c-8.466-3.492-27.865-10.048-50.967-4.741
				C2690.563,2424.116,2674.711,2444.911,2667.248,2454.702z"/>
			
				<linearGradient id="SVGID_00000008851465241068938540000006279840579820361369_" gradientUnits="userSpaceOnUse" x1="2710.9146" y1="2480.0022" x2="2709.1807" y2="2514.2488">
				<stop  offset="0" style="stop-color:#311944"/>
				<stop  offset="1" style="stop-color:#893976"/>
			</linearGradient>
			<path style="fill:url(#SVGID_00000008851465241068938540000006279840579820361369_);" d="M2670.711,2516.13
				c0,0,21.439,18.692,35.548-5.75c0,0,19.685,21.853,41.173,6.292c0,0-17.134,29.92-41.173,1.544
				C2706.26,2518.216,2693.448,2543.72,2670.711,2516.13z"/>
			
				<linearGradient id="SVGID_00000096052269598338080120000009412659983400880063_" gradientUnits="userSpaceOnUse" x1="2776.5085" y1="2375.0667" x2="2764.9485" y2="2454.8306">
				<stop  offset="0" style="stop-color:#311944"/>
				<stop  offset="1" style="stop-color:#893976"/>
			</linearGradient>
			<path style="fill:url(#SVGID_00000096052269598338080120000009412659983400880063_);" d="M2733.999,2494.434
				c0,0,1.63-45.49,55.19-32.126C2789.189,2462.309,2780.18,2500.16,2733.999,2494.434z"/>
			
				<linearGradient id="SVGID_00000002354558946652944280000010987780485148100750_" gradientUnits="userSpaceOnUse" x1="2702.9534" y1="2364.4075" x2="2691.3936" y2="2444.1707">
				<stop  offset="0" style="stop-color:#311944"/>
				<stop  offset="1" style="stop-color:#893976"/>
			</linearGradient>
			<path style="fill:url(#SVGID_00000002354558946652944280000010987780485148100750_);" d="M2696.973,2489.893
				c0,0,17.417-37.562-20.772-37.118C2676.201,2452.775,2669.806,2481.401,2696.973,2489.893z"/>
			
				<linearGradient id="SVGID_00000087412591724692335070000010656479447566485133_" gradientUnits="userSpaceOnUse" x1="2693.5388" y1="2502.8765" x2="2722.8269" y2="2502.8765">
				<stop  offset="0" style="stop-color:#311944"/>
				<stop  offset="1" style="stop-color:#893976"/>
			</linearGradient>
			<path style="fill:url(#SVGID_00000087412591724692335070000010656479447566485133_);" d="M2706.136,2512.421
				c0,0-14.894-12.984-12.292-17.397c2.601-4.413,27.615,0.907,28.916,3.517C2724.06,2501.15,2706.136,2512.421,2706.136,2512.421z"
				/>
			
				<linearGradient id="SVGID_00000109724127042574970730000005734656699484275842_" gradientUnits="userSpaceOnUse" x1="2801.5974" y1="2430.8772" x2="2841.4185" y2="2430.8772">
				<stop  offset="0" style="stop-color:#FF9085"/>
				<stop  offset="1" style="stop-color:#FB6FBB"/>
			</linearGradient>
			<path style="fill:url(#SVGID_00000109724127042574970730000005734656699484275842_);" d="M2801.85,2443.426
				c1.341,5.722,6.944,6.698,17.934,16.711c3.829,3.488,7.051,6.927,9.723,10.074c4.716-12.05,9.721-28.752,11.361-49.105
				c0.887-11.003,0.613-20.948-0.18-29.563c-6.303,8.9-12.273,15.94-17.236,21.314
				C2810.583,2426.792,2799.795,2434.654,2801.85,2443.426z"/>
			
				<linearGradient id="SVGID_00000173157705100936244350000012478311588124649385_" gradientUnits="userSpaceOnUse" x1="2155.7119" y1="2896.4868" x2="2854.0791" y2="2896.4868">
				<stop  offset="0" style="stop-color:#FFC444"/>
				<stop  offset="0.9964" style="stop-color:#F36F56"/>
			</linearGradient>
			<path style="opacity:0.3;fill:url(#SVGID_00000173157705100936244350000012478311588124649385_);" d="M2805.767,3026.51
				c-11.951-7.555-14.278-15.743-35.547-58.089c-47.622-94.81-57.129-95.907-57.222-120.512
				c-0.194-50.937,40.435-75.827,26.877-97.104c-7.688-12.067-26.053-12.376-70.227-11.271
				c-90.319,2.26-135.478,3.389-149.123,7.803c-70.905,22.934-59.262,61.21-133.517,90.168
				c-61.578,24.014-77.719,0.865-136.985,29.478c-11.359,5.484-89.107,43.02-90.167,95.37
				c-0.754,37.226,37.606,65.329,30.345,73.694c-4.142,4.772-19.323-1.263-34.489-9.05c4.586,9.585,8.465,15.404,12.525,18.009
				c20.987,13.464,53.697,10.65,60.111-2.312c3.844-7.767-2.188-18.298-6.936-26.588c-14.18-24.759-31.449-25.023-34.545-37.656
				c-4.751-19.386,28.611-48.588,61.964-63.446c40.633-18.101,52.487-2.099,97.428-21.433c30.643-13.182,32.94-23.982,61.224-31.522
				c24.949-6.651,42.752-3.47,69.341-0.729c93.443,9.634,90.606-7.266,136.623,5.014c23.639,6.309,76.439,20.399,107.704,65.219
				c22.143,31.744,14.325,51.437,44.733,83.396c8.649,9.09,35.428,37.235,64.846,31.821c9.076-1.67,19.18-6.686,23.347-12.491
				C2837.044,3036.814,2819.954,3035.479,2805.767,3026.51z"/>
		</g>
	</g>
</g>
</svg>
